<?xml version="1.0" encoding="UTF-8"?>
<svg version="1.1" xmlns="http://www.w3.org/2000/svg" width="210" height="210">
<path d="M0 0 C1.875 1.375 1.875 1.375 3 3 C3 3.66 3 4.32 3 5 C4.65 4.34 6.3 3.68 8 3 C9.125 4.5625 9.125 4.5625 10 7 C9.62488281 8.05445313 9.24976562 9.10890625 8.86328125 10.1953125 C7.80698859 14.85064757 8.90554432 17.28916026 11.0625 21.3125 C11.38742432 21.95968994 11.71234863 22.60687988 12.04711914 23.27368164 C12.70345086 24.57616814 13.36895335 25.87407755 14.04394531 27.16699219 C15.38405635 29.73633684 16.6564285 32.3383318 17.9375 34.9375 C18.62284273 36.29275974 19.30938755 37.64741801 20 39 C22.99054972 37.43054702 25.05988444 35.78302985 27 33 C27.59479031 29.16360248 27.68797435 25.53590494 27.63671875 21.65625 C28.06732025 17.32245422 29.21870069 15.31223035 32 12 C35.39691538 9.75867256 38.29317339 9.75473397 42.3046875 9.76953125 C43.52800781 9.77146484 44.75132813 9.77339844 46.01171875 9.77539062 C47.28660156 9.78763672 48.56148437 9.79988281 49.875 9.8125 C51.14214844 9.81314453 52.40929687 9.81378906 53.71484375 9.81445312 C59.28357437 9.84080359 64.51082864 10.02189955 70 11 C71.66627298 11.03622333 73.33405374 11.04899842 75 11 C74.731875 10.278125 74.46375 9.55625 74.1875 8.8125 C74 6 74 6 76.3125 3.25 C80.1788562 0.01305062 82.02115516 -0.10823576 87 0 C87.99 1.98 87.99 1.98 89 4 C89.78375 3.814375 90.5675 3.62875 91.375 3.4375 C94 3 94 3 96 4 C96.556875 3.01 96.556875 3.01 97.125 2 C99 0 99 0 101.8125 -0.5 C105.8171669 0.12818304 107.9354176 1.36303375 111 4 C111.9375 6.625 111.9375 6.625 112 9 C111.67 9.66 111.34 10.32 111 11 C118.27189939 12.42321972 118.27189939 12.42321972 124.9375 10.125 C125.618125 9.42375 126.29875 8.7225 127 8 C133.04417413 5.94157193 140.48260908 5.93399427 146.3125 8.5625 C151.38406447 11.50963089 154.88806851 15.56434054 157.3125 20.875 C158 24 158 24 158.0859375 26.1640625 C158.20748141 30.87052479 158.20748141 30.87052479 160.6105957 34.75195312 C161.25085693 35.25662109 161.89111816 35.76128906 162.55078125 36.28125 C163.19313721 36.79751953 163.83549316 37.31378906 164.49731445 37.84570312 C164.99320068 38.22662109 165.48908691 38.60753906 166 39 C166.32798584 38.28344238 166.65597168 37.56688477 166.99389648 36.82861328 C168.47473987 33.59391159 169.95611324 30.35945288 171.4375 27.125 C172.2119043 25.43310547 172.2119043 25.43310547 173.00195312 23.70703125 C173.49501953 22.63066406 173.98808594 21.55429687 174.49609375 20.4453125 C175.17949829 18.95281982 175.17949829 18.95281982 175.87670898 17.43017578 C176.56379025 15.9437148 177.26765488 14.46469025 178 13 C177.68236347 11.00103089 177.68236347 11.00103089 177.0625 8.875 C176.86785156 8.15054687 176.67320312 7.42609375 176.47265625 6.6796875 C176.23869141 5.84824219 176.23869141 5.84824219 176 5 C177.32 4.34 178.64 3.68 180 3 C180.99 3.66 181.98 4.32 183 5 C183.309375 4.360625 183.61875 3.72125 183.9375 3.0625 C185 1 185 1 186 0 C189.34741307 -0.30431028 191.6562817 -0.12984914 194.8125 1.0625 C197 3 197 3 197.79296875 6.22851562 C198.02571093 10.46837544 197.33926613 12.49245561 195.5 16.28125 C194.94513916 17.44648193 194.39027832 18.61171387 193.81860352 19.81225586 C193.52108185 20.41552704 193.22356018 21.01879822 192.91702271 21.64035034 C191.9931629 23.51386511 191.09163497 25.39673629 190.19506836 27.28344727 C187.68528108 32.54787601 185.11608546 37.78165919 182.50390625 42.99609375 C181.99827148 44.02476563 181.99827148 44.02476563 181.48242188 45.07421875 C180.63210269 46.7965213 179.75658564 48.50632168 178.87890625 50.21484375 C177.7512519 52.93633723 177.7512519 52.93633723 178.6328125 55.48828125 C179.08398438 56.31714844 179.53515625 57.14601562 180 58 C180.51175781 58.97453125 181.02351562 59.9490625 181.55078125 60.953125 C182.13214844 62.04109375 182.71351563 63.1290625 183.3125 64.25 C195.55926303 88.13550804 197.20274694 116.21069219 189.05004883 141.67822266 C179.70822749 168.71106018 159.85707305 189.10644436 134.60546875 201.9140625 C114.18659512 211.64736611 87.54854085 213.63032026 66 207 C64.51113281 206.58234375 64.51113281 206.58234375 62.9921875 206.15625 C37.50665833 198.43739521 16.80590452 180.69281825 4.0390625 157.49609375 C-8.25523464 134.33084855 -11.67028542 107.09561289 -4.34960938 81.74804688 C-1.9045924 74.2648131 1.21947369 67.06145438 4.921875 60.11328125 C5.27765625 59.41589844 5.6334375 58.71851563 6 58 C6.39654785 57.24122559 6.7930957 56.48245117 7.20166016 55.70068359 C8.24964787 52.15547254 7.51196278 50.93205248 5.8515625 47.67578125 C5.34399414 46.65524658 4.83642578 45.63471191 4.31347656 44.58325195 C3.7562793 43.50390381 3.19908203 42.42455566 2.625 41.3125 C1.5060675 39.06336729 0.38889083 36.81336023 -0.7265625 34.5625 C-1.2824707 33.45261719 -1.83837891 32.34273437 -2.41113281 31.19921875 C-4.60884998 26.77406727 -6.71037924 22.31239536 -8.75 17.8125 C-9.08435059 17.10198486 -9.41870117 16.39146973 -9.76318359 15.65942383 C-11.57653708 11.63857311 -12.60925435 8.41385329 -12 4 C-8.16653572 0.53162756 -5.15233607 -0.8014745 0 0 Z " fill="#FC76A7" transform="translate(12,0)"/>
<path d="M0 0 C3.73981994 0.28767846 5.43928496 0.76050954 8.25 3.25 C9.56219592 8.59251195 9.13179494 11.62487395 6.75 16.53125 C6.19513916 17.69648193 5.64027832 18.86171387 5.06860352 20.06225586 C4.77108185 20.66552704 4.47356018 21.26879822 4.16702271 21.89035034 C3.2431629 23.76386511 2.34163497 25.64673629 1.44506836 27.53344727 C-1.06471892 32.79787601 -3.63391454 38.03165919 -6.24609375 43.24609375 C-6.75172852 44.27476563 -6.75172852 44.27476563 -7.26757812 45.32421875 C-8.11789731 47.0465213 -8.99341436 48.75632168 -9.87109375 50.46484375 C-10.9987481 53.18633723 -10.9987481 53.18633723 -10.1171875 55.73828125 C-9.66601562 56.56714844 -9.21484375 57.39601562 -8.75 58.25 C-8.23824219 59.22453125 -7.72648438 60.1990625 -7.19921875 61.203125 C-6.61785156 62.29109375 -6.03648437 63.3790625 -5.4375 64.5 C6.80926303 88.38550804 8.45274694 116.46069219 0.30004883 141.92822266 C-9.04177251 168.96106018 -28.89292695 189.35644436 -54.14453125 202.1640625 C-65.4525458 207.55438622 -78.26038244 210.46533823 -90.75 210.25 C-90.75 205.96 -90.75 201.67 -90.75 197.25 C-94.38 197.25 -98.01 197.25 -101.75 197.25 C-101.75410889 196.4029248 -101.75821777 195.55584961 -101.76245117 194.68310547 C-101.78953908 191.51793746 -101.83873625 188.3540766 -101.90258789 185.18945312 C-101.92567894 183.82401335 -101.9401427 182.45839771 -101.94555664 181.09277344 C-101.64884225 172.213267 -101.64884225 172.213267 -105.11328125 164.3828125 C-109.29525704 161.00005875 -113.26899806 160.98187779 -118.4375 160.6875 C-119.13939453 160.64431641 -119.84128906 160.60113281 -120.56445312 160.55664062 C-122.29275206 160.4508264 -124.0213511 160.34993419 -125.75 160.25 C-124.75 158.25 -124.75 158.25 -122.375 156.875 C-118.64012574 154.56293498 -117.12879375 152.38638124 -115.75 148.25 C-112.75 147.125 -112.75 147.125 -109.75 146.25 C-108.18090241 144.68090241 -108.42981135 143.10953743 -108.3125 140.9375 C-108.25778917 138.48621835 -108.25778917 138.48621835 -108.75 136.25 C-111.51238866 134.10250004 -111.51238866 134.10250004 -114.75 132.25 C-116.00871252 130.20862649 -116.95711887 128.16387249 -117.890625 125.95703125 C-118.63268321 124.05957341 -118.63268321 124.05957341 -120.75 123.25 C-124.513882 122.92864835 -128.28659322 122.92562154 -132.0625 122.875 C-133.63161133 122.81892578 -133.63161133 122.81892578 -135.23242188 122.76171875 C-141.52138844 122.64383515 -141.52138844 122.64383515 -146.9296875 125.59765625 C-148.76541445 128.27246011 -149.47488715 130.04035013 -149.75 133.25 C-151.73 133.25 -153.71 133.25 -155.75 133.25 C-158.2510656 128.24786879 -156.46355643 121.76416982 -155.578125 116.484375 C-154.53025708 113.65710872 -153.30579045 112.78631931 -150.75 111.25 C-148.75428677 110.57060826 -146.75405227 109.90438441 -144.75 109.25 C-143.06908407 108.2741417 -141.39993538 107.27737093 -139.75 106.25 C-140.11351562 105.47285645 -140.47703125 104.69571289 -140.8515625 103.89501953 C-142.19640652 101.01524295 -143.53783542 98.13390812 -144.87695312 95.25146484 C-145.45761521 94.00343107 -146.03964069 92.75603071 -146.62304688 91.50927734 C-147.46060247 89.7187886 -148.29287966 87.9258337 -149.125 86.1328125 C-149.87910156 84.51463623 -149.87910156 84.51463623 -150.6484375 82.86376953 C-151.75 80.25 -151.75 80.25 -151.75 78.25 C-147.13 76.27 -142.51 74.29 -137.75 72.25 C-132.7924504 81.98482468 -128.08668371 91.75721955 -123.72094727 101.77246094 C-123.36186279 102.5874707 -123.00277832 103.40248047 -122.6328125 104.2421875 C-122.31715332 104.96776855 -122.00149414 105.69334961 -121.67626953 106.44091797 C-120.77468296 108.43007821 -120.77468296 108.43007821 -118.75 110.25 C-117.780625 110.53875 -116.81125 110.8275 -115.8125 111.125 C-112.45772815 112.35736517 -111.40150088 113.13049834 -109.75 116.25 C-109.75 117.57 -109.75 118.89 -109.75 120.25 C-107.44 120.25 -105.13 120.25 -102.75 120.25 C-102.46125 121.384375 -102.1725 122.51875 -101.875 123.6875 C-101.50375 124.863125 -101.1325 126.03875 -100.75 127.25 C-97.95129973 128.64935013 -95.84501208 128.50265405 -92.75 128.25 C-90.21214383 126.58726664 -89.8181616 125.51644989 -89.0625 122.5625 C-88.959375 121.799375 -88.85625 121.03625 -88.75 120.25 C-86.11 120.25 -83.47 120.25 -80.75 120.25 C-80.69615479 122.54141286 -80.65727913 124.83318188 -80.625 127.125 C-80.60179688 128.40117187 -80.57859375 129.67734375 -80.5546875 130.9921875 C-80.75 134.25 -80.75 134.25 -82.75 136.25 C-83.068384 138.3898632 -83.068384 138.3898632 -83 140.75 C-83.00515625 141.5440625 -83.0103125 142.338125 -83.015625 143.15625 C-82.93939909 145.46892751 -82.93939909 145.46892751 -80.75 147.25 C-80.47082579 151.59395071 -80.66457862 155.89350967 -80.75 160.25 C-75.8 160.25 -70.85 160.25 -65.75 160.25 C-65.42 162.89 -65.09 165.53 -64.75 168.25 C-63.10425434 168.27688151 -61.45838587 168.29634123 -59.8125 168.3125 C-58.43771484 168.32990234 -58.43771484 168.32990234 -57.03515625 168.34765625 C-54.78406673 168.50949049 -54.78406673 168.50949049 -53.75 167.25 C-53.38239269 164.92182036 -53.04758419 162.5881615 -52.75 160.25 C-51.82316406 160.20101562 -50.89632812 160.15203125 -49.94140625 160.1015625 C-48.14509766 159.98941406 -48.14509766 159.98941406 -46.3125 159.875 C-45.11753906 159.80539063 -43.92257813 159.73578125 -42.69140625 159.6640625 C-41.72074219 159.52742187 -40.75007813 159.39078125 -39.75 159.25 C-38.21573231 156.18146462 -38.36060127 152.95412079 -38.12890625 149.5625 C-37.75 147.25 -37.75 147.25 -35.75 145.25 C-35.43100485 142.88044614 -35.43100485 142.88044614 -35.5 140.25 C-35.49484375 139.363125 -35.4896875 138.47625 -35.484375 137.5625 C-35.52947138 135.05599761 -35.52947138 135.05599761 -37.75 133.25 C-37.95182099 131.2144912 -38.06333114 129.16955979 -38.125 127.125 C-38.49845567 121.39656985 -39.16951458 116.85024393 -42.75 112.25 C-48.84958214 107.18864461 -54.4009836 107.09849221 -62.0625 107.1875 C-62.80306641 107.19201172 -63.54363281 107.19652344 -64.30664062 107.20117188 C-66.12112899 107.21287825 -67.93557534 107.23081102 -69.75 107.25 C-66.66844083 99.21544297 -63.13374879 91.42278149 -59.5 83.625 C-58.94570312 82.43003906 -58.39140625 81.23507813 -57.8203125 80.00390625 C-56.46586884 77.08484663 -55.10905371 74.16691538 -53.75 71.25 C-55.73 70.755 -55.73 70.755 -57.75 70.25 C-58.08 68.93 -58.41 67.61 -58.75 66.25 C-59.41386719 66.29640625 -60.07773438 66.3428125 -60.76171875 66.390625 C-61.64472656 66.42671875 -62.52773437 66.4628125 -63.4375 66.5 C-64.30761719 66.54640625 -65.17773438 66.5928125 -66.07421875 66.640625 C-69.72241793 66.10804118 -71.25955948 64.94760991 -73.75 62.25 C-74.3515625 59.15625 -74.3515625 59.15625 -74.375 55.75 C-74.42901692 51.03972433 -74.71663149 48.8521251 -77.75 45.25 C-78.125 42.25 -78.125 42.25 -77.75 39.25 C-77.25628906 38.64671875 -76.76257813 38.0434375 -76.25390625 37.421875 C-74.3362764 34.65251865 -74.38608169 32.84147457 -74.3125 29.5 C-73.78510967 21.46218067 -71.6865921 16.77372253 -65.75 11.3125 C-60.71939987 6.99915341 -56.02882401 6.89051166 -49.56640625 6.9765625 C-43.52348942 7.56325345 -39.43180366 10.21628084 -35.375 14.625 C-32.51227494 18.2868055 -30.8520684 21.67973206 -30.6640625 26.4140625 C-30.54251859 31.12052479 -30.54251859 31.12052479 -28.1394043 35.00195312 C-27.49914307 35.50662109 -26.85888184 36.01128906 -26.19921875 36.53125 C-25.55686279 37.04751953 -24.91450684 37.56378906 -24.25268555 38.09570312 C-23.75679932 38.47662109 -23.26091309 38.85753906 -22.75 39.25 C-22.42201416 38.53344238 -22.09402832 37.81688477 -21.75610352 37.07861328 C-20.27526013 33.84391159 -18.79388676 30.60945288 -17.3125 27.375 C-16.5380957 25.68310547 -16.5380957 25.68310547 -15.74804688 23.95703125 C-15.25498047 22.88066406 -14.76191406 21.80429687 -14.25390625 20.6953125 C-13.57050171 19.20281982 -13.57050171 19.20281982 -12.87329102 17.68017578 C-12.18620975 16.1937148 -11.48234512 14.71469025 -10.75 13.25 C-11.06763653 11.25103089 -11.06763653 11.25103089 -11.6875 9.125 C-11.88214844 8.40054687 -12.07679688 7.67609375 -12.27734375 6.9296875 C-12.51130859 6.09824219 -12.51130859 6.09824219 -12.75 5.25 C-11.43 4.59 -10.11 3.93 -8.75 3.25 C-7.76 3.91 -6.77 4.57 -5.75 5.25 C-5.440625 4.610625 -5.13125 3.97125 -4.8125 3.3125 C-3.25867052 0.29624277 -3.25867052 0.29624277 0 0 Z " fill="#97D62A" transform="translate(200.75,-0.25)"/>
<path d="M0 0 C3.03619016 1.51809508 3.50633197 3.8849034 4.8984375 6.94140625 C5.17466949 7.54250717 5.45090149 8.14360809 5.73550415 8.76292419 C6.62131749 10.69344416 7.49843913 12.62776371 8.375 14.5625 C10.5732267 19.37966957 12.78465868 24.19067576 15 29 C15.38953857 29.86641113 15.77907715 30.73282227 16.18041992 31.62548828 C17.97976047 35.48314232 18.60828958 36.80758085 22.5625 38.75 C24.2640625 39.36875 24.2640625 39.36875 26 40 C27.9375 41.9375 27.9375 41.9375 29 44 C29 45.32 29 46.64 29 48 C31.31 48 33.62 48 36 48 C36.28875 49.134375 36.5775 50.26875 36.875 51.4375 C37.24625 52.613125 37.6175 53.78875 38 55 C40.79870027 56.39935013 42.90498792 56.25265405 46 56 C48.53785617 54.33726664 48.9318384 53.26644989 49.6875 50.3125 C49.790625 49.549375 49.89375 48.78625 50 48 C52.64 48 55.28 48 58 48 C58.05384521 50.29141286 58.09272087 52.58318188 58.125 54.875 C58.14820312 56.15117187 58.17140625 57.42734375 58.1953125 58.7421875 C58 62 58 62 56 64 C55.681616 66.1398632 55.681616 66.1398632 55.75 68.5 C55.74484375 69.2940625 55.7396875 70.088125 55.734375 70.90625 C55.81060091 73.21892751 55.81060091 73.21892751 58 75 C58.27917421 79.34395071 58.08542138 83.64350967 58 88 C62.95 88 67.9 88 73 88 C73.495 91.96 73.495 91.96 74 96 C75.64574566 96.02688151 77.29161413 96.04634123 78.9375 96.0625 C79.85402344 96.07410156 80.77054687 96.08570313 81.71484375 96.09765625 C83.96593327 96.25949049 83.96593327 96.25949049 85 95 C85.36760731 92.67182036 85.70241581 90.3381615 86 88 C86.92683594 87.95101562 87.85367188 87.90203125 88.80859375 87.8515625 C90.60490234 87.73941406 90.60490234 87.73941406 92.4375 87.625 C93.63246094 87.55539063 94.82742187 87.48578125 96.05859375 87.4140625 C97.02925781 87.27742188 97.99992187 87.14078125 99 87 C100.53426769 83.93146462 100.38939873 80.70412079 100.62109375 77.3125 C101 75 101 75 103 73 C103.45811675 71.02764667 103.45811675 71.02764667 103.625 68.875 C103.810625 66.956875 103.810625 66.956875 104 65 C104.93279785 64.93627197 105.8655957 64.87254395 106.82666016 64.80688477 C110.1032736 64.32714849 110.1032736 64.32714849 111.59912109 61.86694336 C111.98664551 60.95050049 112.37416992 60.03405762 112.7734375 59.08984375 C113.20527344 58.10048828 113.63710937 57.11113281 114.08203125 56.09179688 C114.50871094 55.05087891 114.93539062 54.00996094 115.375 52.9375 C115.82488281 51.89271484 116.27476562 50.84792969 116.73828125 49.77148438 C117.84668862 47.18913104 118.9325794 44.59950175 120 42 C123.84172903 42.70079892 126.83839253 43.75596411 130.3125 45.5625 C131.19550781 46.01753906 132.07851562 46.47257812 132.98828125 46.94140625 C133.65214844 47.29074219 134.31601563 47.64007813 135 48 C133.79492769 50.70981868 132.58566294 53.41767844 131.375 56.125 C130.98763672 56.99721191 130.60027344 57.86942383 130.20117188 58.76806641 C127.9738925 63.74523181 125.68538972 68.68263941 123.27603149 73.57388306 C121.99041223 76.18588602 120.72182086 78.80604109 119.45294189 81.4262085 C118.82588808 82.70855022 118.19062567 83.98691592 117.54656982 85.26080322 C113.53245712 93.2096942 111.28016982 99.99775502 111.33813477 109.03051758 C110.93390632 112.5804314 109.95966726 113.84564484 107.4375 116.3125 C94.73247923 125.74011096 80.13776179 132.77704953 64.75 136.3125 C64.00508301 136.48434814 63.26016602 136.65619629 62.49267578 136.83325195 C57.56904723 137.88158959 53.03235111 138.15370303 48 138 C48 133.71 48 129.42 48 125 C44.37 125 40.74 125 37 125 C36.99589111 124.1529248 36.99178223 123.30584961 36.98754883 122.43310547 C36.96046092 119.26793746 36.91126375 116.1040766 36.84741211 112.93945312 C36.82432106 111.57401335 36.8098573 110.20839771 36.80444336 108.84277344 C37.10115775 99.963267 37.10115775 99.963267 33.63671875 92.1328125 C29.45474296 88.75005875 25.48100194 88.73187779 20.3125 88.4375 C19.61060547 88.39431641 18.90871094 88.35113281 18.18554688 88.30664062 C16.45724794 88.2008264 14.7286489 88.09993419 13 88 C14 86 14 86 16.375 84.625 C20.10987426 82.31293498 21.62120625 80.13638124 23 76 C26 74.875 26 74.875 29 74 C30.56909759 72.43090241 30.32018865 70.85953743 30.4375 68.6875 C30.49221083 66.23621835 30.49221083 66.23621835 30 64 C27.23761134 61.85250004 27.23761134 61.85250004 24 60 C22.74128748 57.95862649 21.79288113 55.91387249 20.859375 53.70703125 C20.11731679 51.80957341 20.11731679 51.80957341 18 51 C14.236118 50.67864835 10.46340678 50.67562154 6.6875 50.625 C5.11838867 50.56892578 5.11838867 50.56892578 3.51757812 50.51171875 C-2.77138844 50.39383515 -2.77138844 50.39383515 -8.1796875 53.34765625 C-10.01541445 56.02246011 -10.72488715 57.79035013 -11 61 C-12.98 61 -14.96 61 -17 61 C-19.5010656 55.99786879 -17.71355643 49.51416982 -16.828125 44.234375 C-15.78025708 41.40710872 -14.55579045 40.53631931 -12 39 C-10.00428677 38.32060826 -8.00405227 37.65438441 -6 37 C-4.31908407 36.0241417 -2.64993538 35.02737093 -1 34 C-1.36351563 33.22285645 -1.72703125 32.44571289 -2.1015625 31.64501953 C-3.44640652 28.76524295 -4.78783542 25.88390812 -6.12695312 23.00146484 C-6.70761521 21.75343107 -7.28964069 20.50603071 -7.87304688 19.25927734 C-8.71060247 17.4687886 -9.54287966 15.6758337 -10.375 13.8828125 C-10.87773438 12.80402832 -11.38046875 11.72524414 -11.8984375 10.61376953 C-13 8 -13 8 -13 6 C-10.87959258 4.96966118 -8.75352092 3.95097146 -6.625 2.9375 C-5.44164062 2.36902344 -4.25828125 1.80054687 -3.0390625 1.21484375 C-2.03617188 0.81394531 -1.03328125 0.41304688 0 0 Z " fill="#7B8C98" transform="translate(62,72)"/>
<path d="M0 0 C2.40786594 2.98969719 4.04423896 5.97337911 5.62890625 9.46484375 C6.10650391 10.51220703 6.58410156 11.55957031 7.07617188 12.63867188 C7.56666016 13.72728516 8.05714844 14.81589844 8.5625 15.9375 C9.05685547 17.02224609 9.55121094 18.10699219 10.06054688 19.22460938 C13.83296734 27.53006011 13.83296734 27.53006011 14.96850586 30.72485352 C15.90171582 33.31635813 15.90171582 33.31635813 19 35 C21.57956414 35.2926572 24.1285287 35.37713309 26.72265625 35.4609375 C27.47417969 35.63882813 28.22570312 35.81671875 29 36 C30.12109375 37.9765625 30.12109375 37.9765625 31 40 C32.485 40.495 32.485 40.495 34 41 C31.76320893 48.31902384 28.74491792 55.01230256 25.375 61.875 C24.38131305 63.9133322 23.38905728 65.95236291 22.3984375 67.9921875 C21.96192871 68.88276855 21.52541992 69.77334961 21.07568359 70.69091797 C19.91169737 73.07497979 19.91169737 73.07497979 19 76 C20.00160156 75.97679688 21.00320312 75.95359375 22.03515625 75.9296875 C23.37759664 75.91091211 24.72004518 75.89271382 26.0625 75.875 C27.37347656 75.85179688 28.68445313 75.82859375 30.03515625 75.8046875 C37.19038348 76.15716175 41.95747027 77.84286732 47 83 C50.34016875 88.52855517 50.44887107 93.8202715 50.69140625 100.20703125 C50.72061263 103.13739559 50.72061263 103.13739559 53 105 C53.265625 107.3125 53.265625 107.3125 53.25 110 C53.25773437 111.3303125 53.25773437 111.3303125 53.265625 112.6875 C53 115 53 115 51 117 C50.61247123 119.3332963 50.61247123 119.3332963 50.5 121.9375 C50.28284471 125.62371105 50.11910421 126.82134368 48 130 C44.9609375 130.29296875 44.9609375 130.29296875 41.375 130.1875 C40.18648438 130.16042969 38.99796875 130.13335937 37.7734375 130.10546875 C36.85820312 130.07066406 35.94296875 130.03585938 35 130 C35.04125 131.11375 35.0825 132.2275 35.125 133.375 C35 137 35 137 33 139 C25.98918083 139.55641422 25.98918083 139.55641422 23 137.875 C22 136 22 136 22 130 C17.05 130 12.1 130 7 130 C6.8046875 126.6796875 6.609375 123.359375 6.4140625 120.0390625 C6.29782654 116.89437681 6.29782654 116.89437681 4 115 C3.734375 112.90625 3.734375 112.90625 3.75 110.5 C3.74226563 109.30890625 3.74226563 109.30890625 3.734375 108.09375 C4 106 4 106 6 104 C6.22799654 101.96408708 6.22799654 101.96408708 6.08984375 99.640625 C6.05987305 98.33738281 6.05987305 98.33738281 6.02929688 97.0078125 C5.96861398 95.1847433 5.90358508 93.36181302 5.83398438 91.5390625 C5.72153113 86.28090369 5.85823579 82.47375641 9 78 C12.1875 77.125 12.1875 77.125 15 77 C16.2466219 73.2601343 16.60423037 69.91116688 16 66 C13.75416099 63.59927554 12.12739447 63.04246482 9 62 C8.32215008 59.66989091 7.65583207 57.33640176 7 55 C2.33938611 51.89292407 -2.45558512 52.63141535 -7.9375 52.625 C-9.58395508 52.58826172 -9.58395508 52.58826172 -11.26367188 52.55078125 C-12.32005859 52.54691406 -13.37644531 52.54304688 -14.46484375 52.5390625 C-15.91298462 52.52673584 -15.91298462 52.52673584 -17.39038086 52.51416016 C-20.73755061 53.13731179 -21.92309711 54.35501645 -24 57 C-24.1546875 58.2684375 -24.1546875 58.2684375 -24.3125 59.5625 C-24.539375 60.366875 -24.76625 61.17125 -25 62 C-28.5625 63.8125 -28.5625 63.8125 -32 65 C-34.21263963 61.68104055 -34.17780908 61.3603243 -33.5625 57.6875 C-33.10229945 54.56723913 -33.02413961 52.89539503 -33.75 49.75 C-33.8325 48.8425 -33.915 47.935 -34 47 C-31.75 44.5625 -31.75 44.5625 -29 42 C-28.03582629 40.18088734 -28.03582629 40.18088734 -27.3125 38.25 C-26 35 -26 35 -24 34 C-20.62177584 33.85624578 -18.22609045 33.92463652 -15 35 C-14.46375 34.34 -13.9275 33.68 -13.375 33 C-11 31 -11 31 -7.9375 30.6875 C-5 31 -5 31 -2 32 C-2.44472656 31.19175781 -2.88945313 30.38351563 -3.34765625 29.55078125 C-3.91355469 28.48214844 -4.47945312 27.41351563 -5.0625 26.3125 C-5.63097656 25.25675781 -6.19945313 24.20101562 -6.78515625 23.11328125 C-8.38093144 19.02378663 -7.90480229 17.16381127 -6.24975586 13.20581055 C-5.3488311 11.18041954 -4.40199988 9.1833463 -3.4375 7.1875 C-3.10814453 6.49462891 -2.77878906 5.80175781 -2.43945312 5.08789062 C-1.63127749 3.38955052 -0.81631623 1.69444231 0 0 Z " fill="#FEBD85" transform="translate(113,30)"/>
<path d="M0 0 C1.35308313 1.31328657 2.68870078 2.64499081 4 4 C6.21858253 3.86358623 6.21858253 3.86358623 8 3 C8.85054504 6.11866514 8.99708663 8.01416659 8.3371582 11.22314453 C7.93747086 15.70045317 9.07937982 18.47577123 11.04296875 22.3671875 C11.36783768 23.04621124 11.6927066 23.72523499 12.02742004 24.42483521 C13.06443236 26.58325971 14.12511155 28.7289705 15.1875 30.875 C15.88250781 32.30779531 16.57588275 33.74138389 17.26757812 35.17578125 C18.58758431 37.91052806 19.9150645 40.64143693 21.24755859 43.37011719 C23.27152876 47.53508289 25.16041886 51.75042496 27 56 C31.95 56.33 36.9 56.66 42 57 C42.495 60.465 42.495 60.465 43 64 C44.89488952 65.89488952 47.57139146 65.18019112 50.08984375 65.23046875 C52.2412636 65.1702792 52.2412636 65.1702792 54 63 C54.39764263 61.01178687 54.73775349 59.01055661 55 57 C57.39652528 56.91860858 59.79025436 56.85932991 62.1875 56.8125 C63.19780273 56.77479492 63.19780273 56.77479492 64.22851562 56.73632812 C68.73763795 56.67034097 71.46204531 57.18307926 75 60 C77.69292145 62.78019061 78.90916719 64.35396386 79.45410156 68.22973633 C79.4331543 69.41849365 79.41220703 70.60725098 79.390625 71.83203125 C79.37773438 73.12431641 79.36484375 74.41660156 79.3515625 75.74804688 C79.31814634 77.10287546 79.28428662 78.45769317 79.25 79.8125 C79.22992034 81.18682317 79.21167213 82.56117439 79.1953125 83.93554688 C79.14821732 87.29107856 79.08245135 90.64518127 79 94 C82.63 94 86.26 94 90 94 C90 98.29 90 102.58 90 107 C78.89883002 107.33983173 68.78942377 107.03044348 58 104 C56.99710937 103.7215625 55.99421875 103.443125 54.9609375 103.15625 C42.49979025 99.34228409 31.06745037 93.27578547 21 85 C19.89011719 84.20142578 19.89011719 84.20142578 18.7578125 83.38671875 C16.78143442 80.70323652 16.78510434 79.82663721 16.6328125 76.59765625 C16.2116464 70.15193259 13.62347707 65.04002656 10.7956543 59.30661011 C9.85414659 57.39516345 8.93338986 55.47490501 8.01757812 53.55102539 C6.70980922 50.80597515 5.39621683 48.06385747 4.07714844 45.32421875 C0.84981889 38.61302734 -2.34218788 31.88628206 -5.47601318 25.13088989 C-6.15637304 23.67355234 -6.84371971 22.21945541 -7.53814697 20.76876831 C-8.51054618 18.73718097 -9.46056666 16.69647392 -10.40625 14.65234375 C-10.95603516 13.48695068 -11.50582031 12.32155762 -12.07226562 11.12084961 C-13 8 -13 8 -12.30273438 5.19750977 C-9.46714873 0.41431891 -5.33944255 -0.79523612 0 0 Z " fill="#FDD304" transform="translate(20,103)"/>
<path d="M0 0 C5.01194229 3.73976438 8.50163538 8.14779433 9.78515625 14.33203125 C10.0607274 17.46202596 10.28527148 20.5843473 10.44140625 23.72265625 C10.53655076 26.48922303 10.53655076 26.48922303 12.78515625 28.33203125 C13.24892437 35.63637908 13.24892437 35.63637908 10.78515625 39.33203125 C10.55135937 41.61711721 10.55135937 41.61711721 10.5390625 44.171875 C9.98063892 51.51339628 6.95101748 57.37050452 3.72265625 63.89453125 C3.12935891 65.12505875 2.53798405 66.35651492 1.94848633 67.58886719 C1.06590945 69.43284438 0.18206453 71.27608094 -0.70857239 73.11618042 C-3.26105538 78.38975869 -5.67286596 83.71774259 -8.02734375 89.08203125 C-9.07921875 91.47453125 -10.13109375 93.86703125 -11.21484375 96.33203125 C-17.15484375 96.66203125 -23.09484375 96.99203125 -29.21484375 97.33203125 C-26.10125074 89.30621627 -22.6004019 81.50869552 -18.96484375 73.70703125 C-18.41054687 72.51207031 -17.85625 71.31710938 -17.28515625 70.0859375 C-15.93071259 67.16687788 -14.57389746 64.24894663 -13.21484375 61.33203125 C-14.53484375 61.00203125 -15.85484375 60.67203125 -17.21484375 60.33203125 C-17.54484375 59.01203125 -17.87484375 57.69203125 -18.21484375 56.33203125 C-18.87871094 56.3784375 -19.54257813 56.42484375 -20.2265625 56.47265625 C-21.55107422 56.52679688 -21.55107422 56.52679688 -22.90234375 56.58203125 C-23.77246094 56.6284375 -24.64257812 56.67484375 -25.5390625 56.72265625 C-29.18726168 56.19007243 -30.72440323 55.02964116 -33.21484375 52.33203125 C-33.81640625 49.23828125 -33.81640625 49.23828125 -33.83984375 45.83203125 C-33.89386067 41.12175558 -34.18147524 38.93415635 -37.21484375 35.33203125 C-37.58984375 32.33203125 -37.58984375 32.33203125 -37.21484375 29.33203125 C-36.72113281 28.72875 -36.22742188 28.12546875 -35.71875 27.50390625 C-33.80112015 24.7345499 -33.85092544 22.92350582 -33.77734375 19.58203125 C-33.24995342 11.54421192 -31.15143585 6.85575378 -25.21484375 1.39453125 C-18.334809 -4.50456105 -7.72827768 -4.4909704 0 0 Z " fill="#5E6F77" transform="translate(160.21484375,9.66796875)"/>
<path d="M0 0 C3.03619016 1.51809508 3.50633197 3.8849034 4.8984375 6.94140625 C5.17466949 7.54250717 5.45090149 8.14360809 5.73550415 8.76292419 C6.62131749 10.69344416 7.49843913 12.62776371 8.375 14.5625 C10.5732267 19.37966957 12.78465868 24.19067576 15 29 C15.38953857 29.86641113 15.77907715 30.73282227 16.18041992 31.62548828 C17.97976047 35.48314232 18.60828958 36.80758085 22.5625 38.75 C24.2640625 39.36875 24.2640625 39.36875 26 40 C27.9375 41.9375 27.9375 41.9375 29 44 C29 45.32 29 46.64 29 48 C31.31 48 33.62 48 36 48 C36.28875 49.134375 36.5775 50.26875 36.875 51.4375 C37.24625 52.613125 37.6175 53.78875 38 55 C40.79870027 56.39935013 42.90498792 56.25265405 46 56 C48.53785617 54.33726664 48.9318384 53.26644989 49.6875 50.3125 C49.790625 49.549375 49.89375 48.78625 50 48 C52.64 48 55.28 48 58 48 C58.05384521 50.29141286 58.09272087 52.58318188 58.125 54.875 C58.14820312 56.15117187 58.17140625 57.42734375 58.1953125 58.7421875 C58 62 58 62 56 64 C55.681616 66.1398632 55.681616 66.1398632 55.75 68.5 C55.74484375 69.2940625 55.7396875 70.088125 55.734375 70.90625 C55.81060091 73.21892751 55.81060091 73.21892751 58 75 C58.1953125 78.2578125 58.1953125 78.2578125 58.125 82.125 C58.10695313 83.40632813 58.08890625 84.68765625 58.0703125 86.0078125 C58.04710938 86.99523437 58.02390625 87.98265625 58 89 C57.071875 89.350625 56.14375 89.70125 55.1875 90.0625 C52.00692793 91.9957889 50.75414037 93.21539374 49.50146484 96.70361328 C48.37256611 101.873244 48.41313862 107.16691183 48.3125 112.4375 C48.27833984 113.64599609 48.24417969 114.85449219 48.20898438 116.09960938 C48.12690787 119.06608875 48.06176754 122.03302828 48 125 C44.37 125 40.74 125 37 125 C36.99589111 124.1529248 36.99178223 123.30584961 36.98754883 122.43310547 C36.96046092 119.26793746 36.91126375 116.1040766 36.84741211 112.93945312 C36.82432106 111.57401335 36.8098573 110.20839771 36.80444336 108.84277344 C37.10115775 99.963267 37.10115775 99.963267 33.63671875 92.1328125 C29.45474296 88.75005875 25.48100194 88.73187779 20.3125 88.4375 C19.61060547 88.39431641 18.90871094 88.35113281 18.18554688 88.30664062 C16.45724794 88.2008264 14.7286489 88.09993419 13 88 C14 86 14 86 16.375 84.625 C20.10987426 82.31293498 21.62120625 80.13638124 23 76 C26 74.875 26 74.875 29 74 C30.56909759 72.43090241 30.32018865 70.85953743 30.4375 68.6875 C30.49221083 66.23621835 30.49221083 66.23621835 30 64 C27.23761134 61.85250004 27.23761134 61.85250004 24 60 C22.74128748 57.95862649 21.79288113 55.91387249 20.859375 53.70703125 C20.11731679 51.80957341 20.11731679 51.80957341 18 51 C14.236118 50.67864835 10.46340678 50.67562154 6.6875 50.625 C5.11838867 50.56892578 5.11838867 50.56892578 3.51757812 50.51171875 C-2.77138844 50.39383515 -2.77138844 50.39383515 -8.1796875 53.34765625 C-10.01541445 56.02246011 -10.72488715 57.79035013 -11 61 C-12.98 61 -14.96 61 -17 61 C-19.5010656 55.99786879 -17.71355643 49.51416982 -16.828125 44.234375 C-15.78025708 41.40710872 -14.55579045 40.53631931 -12 39 C-10.00428677 38.32060826 -8.00405227 37.65438441 -6 37 C-4.31908407 36.0241417 -2.64993538 35.02737093 -1 34 C-1.36351563 33.22285645 -1.72703125 32.44571289 -2.1015625 31.64501953 C-3.44640652 28.76524295 -4.78783542 25.88390812 -6.12695312 23.00146484 C-6.70761521 21.75343107 -7.28964069 20.50603071 -7.87304688 19.25927734 C-8.71060247 17.4687886 -9.54287966 15.6758337 -10.375 13.8828125 C-10.87773438 12.80402832 -11.38046875 11.72524414 -11.8984375 10.61376953 C-13 8 -13 8 -13 6 C-10.87959258 4.96966118 -8.75352092 3.95097146 -6.625 2.9375 C-5.44164062 2.36902344 -4.25828125 1.80054687 -3.0390625 1.21484375 C-2.03617188 0.81394531 -1.03328125 0.41304688 0 0 Z " fill="#28A6FB" transform="translate(62,72)"/>
<path d="M0 0 C0.66 0 1.32 0 2 0 C10.43808089 14.73039551 17.27665087 30.79031869 18 48 C18.0515625 48.91136719 18.103125 49.82273438 18.15625 50.76171875 C18.94926384 77.09638679 9.97639144 102.6432785 -8 122 C-10.26195361 124.14137153 -12.54959165 126.07095513 -15 128 C-16.38630772 116.25393816 -12.59951677 108.33572325 -7.4375 98.1875 C-6.36718047 96.02568337 -5.30418023 93.86036783 -4.24136353 91.69485474 C-3.54009398 90.26821906 -2.83567862 88.84312513 -2.12802124 87.41964722 C1.51711827 80.05809423 4.76018819 72.54820807 8 65 C3.38 63.02 -1.24 61.04 -6 59 C-6.45375 60.44375 -6.9075 61.8875 -7.375 63.375 C-8.30760631 66.34238372 -8.77174356 67.77174356 -11 70 C-13.29903537 17.98392283 -13.29903537 17.98392283 0 0 Z " fill="#B7C4CF" transform="translate(188,55)"/>
<path d="M0 0 C0.66 0 1.32 0 2 0 C17.70996612 21.93165967 14.09107138 48.40086997 13 74 C12.34 73.01 11.68 72.02 11 71 C10.63519531 70.4534375 10.27039063 69.906875 9.89453125 69.34375 C6.42752226 63.43606681 6.88068149 58.61857902 8 52 C7.01 52 6.02 52 5 52 C4.34 52.66 3.68 53.32 3 54 C2.62875 53.175 2.2575 52.35 1.875 51.5 C0.22131568 48.70015294 0.22131568 48.70015294 -2.875 48.5 C-6.33026249 49.052842 -8.27137351 49.81709881 -11 52 C-11.99231057 54.42377685 -12.11363213 55.62892535 -11.34179688 58.14941406 C-10.97119141 58.93026367 -10.60058594 59.71111328 -10.21875 60.515625 C-9.7959375 61.4219165 -9.373125 62.32820801 -8.9375 63.26196289 C-8.463125 64.24801514 -7.98875 65.23406738 -7.5 66.25 C-7.0153125 67.28181396 -6.530625 68.31362793 -6.03125 69.37670898 C-4.6662766 72.27919695 -3.29113366 75.17665399 -1.91357422 78.07318115 C0.06635921 82.24905757 2.02244109 86.43616653 3.9822998 90.62149048 C5.63771145 94.15654027 7.29494774 97.69068022 8.95898438 101.22167969 C9.27130005 101.88536057 9.58361572 102.54904144 9.90539551 103.23283386 C10.75522087 105.03845545 11.60608846 106.8435864 12.45703125 108.64868164 C17.39784194 119.3800912 17.39784194 119.3800912 17.1875 123.9375 C17.14689453 125.09572266 17.14689453 125.09572266 17.10546875 126.27734375 C17.05326172 127.13005859 17.05326172 127.13005859 17 128 C-2.54367802 112.61455134 -12.44406104 89.55830427 -15.53125 65.421875 C-18.06997882 42.78487631 -12.69970694 19.04956041 0 0 Z " fill="#B7C4CE" transform="translate(20,55)"/>
<path d="M0 0 C1.54880859 -0.03577148 1.54880859 -0.03577148 3.12890625 -0.07226562 C10.66490638 -0.05767982 10.66490638 -0.05767982 14.6875 2.9296875 C16.5 5.5625 16.5 5.5625 17 8.25 C17.2475 9.3946875 17.2475 9.3946875 17.5 10.5625 C19.90952023 11.80964403 19.90952023 11.80964403 22.5 12.5625 C24.91486943 14.97736943 24.7961925 15.68957789 24.8125 19 C24.82925781 19.78246094 24.84601563 20.56492188 24.86328125 21.37109375 C24.4161161 24.06850935 23.67279961 24.94577233 21.5 26.5625 C18.8125 26.75 18.8125 26.75 16.5 26.5625 C16.4071875 27.6453125 16.4071875 27.6453125 16.3125 28.75 C15.24007034 32.4622565 13.40242087 34.07471068 10.5 36.5625 C9.51 36.8925 8.52 37.2225 7.5 37.5625 C7.396875 38.655625 7.29375 39.74875 7.1875 40.875 C6.5 44.5625 6.5 44.5625 5.4375 46.5 C2.13614182 48.31042223 -0.77884259 47.85782995 -4.5 47.5625 C-5.16 46.9025 -5.82 46.2425 -6.5 45.5625 C-6.5 43.2525 -6.5 40.9425 -6.5 38.5625 C-11.45 38.5625 -16.4 38.5625 -21.5 38.5625 C-22.79935464 36.04537811 -24.08954372 33.52420913 -25.375 31 C-25.73980469 30.29552734 -26.10460938 29.59105469 -26.48046875 28.86523438 C-28.69942197 24.48784485 -30.31066956 20.32608139 -31.5 15.5625 C-29.19 15.5625 -26.88 15.5625 -24.5 15.5625 C-23.84 14.2425 -23.18 12.9225 -22.5 11.5625 C-20.85 11.5625 -19.2 11.5625 -17.5 11.5625 C-17.438125 10.49 -17.37625 9.4175 -17.3125 8.3125 C-16.5 4.5625 -16.5 4.5625 -14.66796875 2.36328125 C-9.88191229 -0.35727612 -5.41169781 -0.0574275 0 0 Z " fill="#E59757" transform="translate(68.5,121.4375)"/>
<path d="M0 0 C1.27552734 -0.02449219 2.55105469 -0.04898437 3.86523438 -0.07421875 C5.09435547 -0.07808594 6.32347656 -0.08195313 7.58984375 -0.0859375 C8.71124756 -0.09415527 9.83265137 -0.10237305 10.98803711 -0.11083984 C15.29625305 0.56996296 17.74901758 2.6603942 20.3671875 6.078125 C21.47277077 9.73027647 21.26920323 13.3352269 21.1875 17.125 C21.17847656 17.91777344 21.16945312 18.71054687 21.16015625 19.52734375 C21.13667012 21.47669281 21.10080137 23.42588575 21.0625 25.375 C19.16015625 25.08984375 19.16015625 25.08984375 17.0625 24.375 C16.01202356 22.06395182 15.01242562 19.72916349 14.0625 17.375 C10.47022276 14.9801485 7.7801193 15.00796763 3.625 15 C2.30628906 14.97164062 0.98757812 14.94328125 -0.37109375 14.9140625 C-3.97160357 15.07311316 -3.97160357 15.07311316 -6.36328125 17.2578125 C-7.93267083 19.36850519 -8.56857792 20.79254541 -8.9375 23.375 C-8.2775 23.375 -7.6175 23.375 -6.9375 23.375 C-6.89508277 25.70794775 -6.89657063 28.04202567 -6.9375 30.375 C-7.2675 30.705 -7.5975 31.035 -7.9375 31.375 C-8.00929964 32.89428038 -8.02142007 34.41667482 -8 35.9375 C-7.99097656 36.76378906 -7.98195313 37.59007812 -7.97265625 38.44140625 C-7.96105469 39.07949219 -7.94945313 39.71757813 -7.9375 40.375 C-7.2775 39.715 -6.6175 39.055 -5.9375 38.375 C-3.1171875 38.1796875 -3.1171875 38.1796875 0.1875 38.25 C1.28320312 38.26804688 2.37890625 38.28609375 3.5078125 38.3046875 C4.35085937 38.32789063 5.19390625 38.35109375 6.0625 38.375 C7.1796875 42.15625 7.1796875 42.15625 6.125 44.125 C2.92890906 46.06202481 -0.34098844 45.81642295 -3.9375 45.375 C-6.4375 44.375 -6.4375 44.375 -7.9375 43.375 C-5.73255131 46.5128116 -4.23473701 48.22929558 -0.75 49.9375 C2.0625 51.375 2.0625 51.375 3.0625 53.125 C3.0625 56.67508313 3.02971026 59.38561186 1.0625 62.375 C-3.67171084 65.83112517 -8.01827953 68.375 -13.9375 68.375 C-14.75667642 66.64898621 -15.56756016 64.9190353 -16.375 63.1875 C-16.82746094 62.22457031 -17.27992187 61.26164062 -17.74609375 60.26953125 C-18.9375 57.375 -18.9375 57.375 -19.3515625 55.0078125 C-20.20860334 51.15684232 -22.05044095 47.91546478 -23.875 44.4375 C-26.28572591 39.81873891 -28.43799293 35.39167549 -29.9375 30.375 C-29.44378906 30.04371094 -28.95007812 29.71242188 -28.44140625 29.37109375 C-24.79732617 26.44556467 -23.11019469 24.50985083 -22.390625 19.78125 C-22.29872588 17.18765274 -22.26625214 14.59108892 -22.30078125 11.99609375 C-21.86825037 7.68473757 -20.70248549 5.67264469 -17.9375 2.375 C-12.70913159 -1.06005269 -6.00580679 0.00605119 0 0 Z " fill="#FEBD86" transform="translate(61.9375,9.625)"/>
<path d="M0 0 C1.62711914 -0.04253906 1.62711914 -0.04253906 3.28710938 -0.0859375 C12.17075764 -0.10777806 12.17075764 -0.10777806 15.296875 2.85546875 C17.22515244 5.74361881 17.54777346 7.10308579 17.0625 10.5 C18.2071875 10.6546875 18.2071875 10.6546875 19.375 10.8125 C23.4397242 11.85231317 23.4397242 11.85231317 25.0625 14.5 C25.82962329 21.40410959 25.82962329 21.40410959 23.3125 25 C21.0625 26.5 21.0625 26.5 17.0625 26.5 C16.0725 30.46 15.0825 34.42 14.0625 38.5 C11.7525 38.5 9.4425 38.5 7.0625 38.5 C6.959375 39.61375 6.85625 40.7275 6.75 41.875 C6.523125 43.07125 6.29625 44.2675 6.0625 45.5 C2.57381349 47.82579101 1.16531481 47.91865457 -2.9375 47.5 C-5.3125 46.375 -5.3125 46.375 -6.9375 44.5 C-7.1875 41.3125 -7.1875 41.3125 -6.9375 38.5 C-9.2475 38.5 -11.5575 38.5 -13.9375 38.5 C-14.9275 34.54 -15.9175 30.58 -16.9375 26.5 C-18.5875 26.17 -20.2375 25.84 -21.9375 25.5 C-23.75 24.4375 -23.75 24.4375 -24.9375 22.5 C-25.58086438 17.43350549 -25.58086438 17.43350549 -24.9375 14.5 C-22.625 12 -22.625 12 -19.9375 10.5 C-18.9475 10.5 -17.9575 10.5 -16.9375 10.5 C-16.855 9.406875 -16.7725 8.31375 -16.6875 7.1875 C-15.9375 3.5 -15.9375 3.5 -14.23217773 1.79882812 C-9.86399642 -0.67363965 -4.90234135 -0.01161004 0 0 Z " fill="#FDBB84" transform="translate(104.9375,81.5)"/>
<path d="M0 0 C3.76019425 1.22929427 4.45395951 1.60816843 6.25 5.0625 C6.71963081 8.33880693 6.71386382 11.56993597 6.6875 14.875 C6.7174707 16.19081055 6.7174707 16.19081055 6.74804688 17.53320312 C6.74351379 23.59393762 5.66065313 27.05453523 2.25 32.0625 C1.92 32.7225 1.59 33.3825 1.25 34.0625 C2.219375 34.619375 3.18875 35.17625 4.1875 35.75 C7.25 38.0625 7.25 38.0625 8.16552734 40.19091797 C8.29164089 44.47804972 6.54591907 47.53404242 4.6640625 51.3203125 C4.28768646 52.10518036 3.91131042 52.89004822 3.52352905 53.69869995 C2.32016457 56.20139551 1.09820498 58.69445054 -0.125 61.1875 C-1.33686401 63.68955231 -2.54491769 66.19341223 -3.75210571 68.69772339 C-4.50416018 70.25426771 -5.25972166 71.8091235 -6.01913452 73.36209106 C-7.42112377 76.23697258 -8.73723044 79.02419131 -9.75 82.0625 C-15.69 82.3925 -21.63 82.7225 -27.75 83.0625 C-25.67186748 77.66133935 -23.48336486 72.41114621 -20.91796875 67.22265625 C-20.43005859 66.22169922 -19.94214844 65.22074219 -19.43945312 64.18945312 C-18.43587594 62.14184247 -17.41489103 60.10267482 -16.37695312 58.07226562 C-12.96215396 50.96381488 -12.18078837 45.8168696 -13.75 38.0625 C-11.9375 37.4375 -11.9375 37.4375 -9.75 37.0625 C-8.76 37.7225 -7.77 38.3825 -6.75 39.0625 C-6.75 38.0725 -6.75 37.0825 -6.75 36.0625 C-7.471875 36.000625 -8.19375 35.93875 -8.9375 35.875 C-12.59657625 34.81793353 -14.24211602 32.85699929 -16.75 30.0625 C-16.05132812 30.07410156 -15.35265625 30.08570312 -14.6328125 30.09765625 C-13.72273437 30.10667969 -12.81265625 30.11570312 -11.875 30.125 C-10.97007812 30.13660156 -10.06515625 30.14820312 -9.1328125 30.16015625 C-6.7331415 30.22499257 -6.7331415 30.22499257 -4.75 29.0625 C-4.75 27.7425 -4.75 26.4225 -4.75 25.0625 C-8.71 25.0625 -12.67 25.0625 -16.75 25.0625 C-17.41 26.3825 -18.07 27.7025 -18.75 29.0625 C-20.74785435 24.9419254 -20.92835515 21.61055635 -20.75 17.0625 C-19.76 16.7325 -18.77 16.4025 -17.75 16.0625 C-17.56688932 12.0340651 -17.80841983 9.57874755 -19.75 6.0625 C-19.18152344 6.04832031 -18.61304688 6.03414062 -18.02734375 6.01953125 C-13.55730131 5.74341844 -10.63835956 5.326618 -7.125 2.4375 C-4.31424861 0.18236226 -3.89874763 0.06497913 0 0 Z " fill="#E89957" transform="translate(158.75,23.9375)"/>
<path d="M0 0 C1.37395963 2.69981565 2.7239569 5.40769046 4.0625 8.125 C4.45244141 8.88554687 4.84238281 9.64609375 5.24414062 10.4296875 C5.60830078 11.17734375 5.97246094 11.925 6.34765625 12.6953125 C6.68804932 13.37609863 7.02844238 14.05688477 7.37915039 14.75830078 C8.81212031 19.93231957 6.50802647 24.54560089 4.34765625 29.203125 C3.55391602 30.92015625 3.55391602 30.92015625 2.74414062 32.671875 C2.18919922 33.85265625 1.63425781 35.0334375 1.0625 36.25 C0.51142578 37.44625 -0.03964844 38.6425 -0.60742188 39.875 C-4.72888558 48.72888558 -4.72888558 48.72888558 -7 51 C-10.0390625 51.1953125 -10.0390625 51.1953125 -13.625 51.125 C-15.40777344 51.09792969 -15.40777344 51.09792969 -17.2265625 51.0703125 C-18.59941406 51.03550781 -18.59941406 51.03550781 -20 51 C-20 53.31 -20 55.62 -20 58 C-21.32 58.66 -22.64 59.32 -24 60 C-25.15941038 56.52176885 -24.70820884 54.54104422 -24 51 C-24.83144531 50.52820312 -24.83144531 50.52820312 -25.6796875 50.046875 C-26.40414062 49.61890625 -27.12859375 49.1909375 -27.875 48.75 C-28.59429687 48.33234375 -29.31359375 47.9146875 -30.0546875 47.484375 C-32.20874162 45.84071924 -32.99140585 44.48432665 -34 42 C-33.505 42.165 -33.01 42.33 -32.5 42.5 C-28.90190467 43.21961907 -25.67460767 43.1778036 -22 43 C-21.34 42.34 -20.68 41.68 -20 41 C-20 40.01 -20 39.02 -20 38 C-21.93681161 37.91892417 -23.8745934 37.86077525 -25.8125 37.8125 C-26.89144531 37.77769531 -27.97039063 37.74289063 -29.08203125 37.70703125 C-32.01948844 37.73463048 -32.01948844 37.73463048 -33.88671875 39.51171875 C-34.43779297 40.24841797 -34.43779297 40.24841797 -35 41 C-35.02687279 39.18757948 -35.04633715 37.37504767 -35.0625 35.5625 C-35.07410156 34.55316406 -35.08570313 33.54382812 -35.09765625 32.50390625 C-35 30 -35 30 -34 29 C-33.63239269 26.67182036 -33.29758419 24.3381615 -33 22 C-33.66 22 -34.32 22 -35 22 C-34.51504875 16.54429843 -34.51504875 16.54429843 -32.41796875 14.328125 C-29.0583184 12.4827597 -26.37685861 12.56628034 -22.5625 12.5625 C-21.26441406 12.54316406 -19.96632813 12.52382813 -18.62890625 12.50390625 C-14.49590771 13.06891251 -12.85626867 14.00950818 -10 17 C-9.1875 20.25 -9.1875 20.25 -9 23 C-8.01 23 -7.02 23 -6 23 C-5.91847656 20.45767658 -5.85926284 17.91800798 -5.8125 15.375 C-5.78736328 14.66214844 -5.76222656 13.94929688 -5.73632812 13.21484375 C-5.66975554 8.37723584 -6.44440547 5.25261662 -9 1 C-5.8035914 -0.06546953 -3.34252724 -0.07427838 0 0 Z " fill="#FDD0A2" transform="translate(88,11)"/>
<path d="M0 0 C3.03619016 1.51809508 3.50633197 3.8849034 4.8984375 6.94140625 C5.17466949 7.54250717 5.45090149 8.14360809 5.73550415 8.76292419 C6.62131749 10.69344416 7.49843913 12.62776371 8.375 14.5625 C10.5732267 19.37966957 12.78465868 24.19067576 15 29 C15.38953857 29.86641113 15.77907715 30.73282227 16.18041992 31.62548828 C17.97976047 35.48314232 18.60828958 36.80758085 22.5625 38.75 C24.2640625 39.36875 24.2640625 39.36875 26 40 C27.9375 41.8125 27.9375 41.8125 29 44 C29.04080783 45.99958364 29.04254356 48.00045254 29 50 C29.66 50.99 30.32 51.98 31 53 C30.625 56.6875 30.625 56.6875 30 60 C28.1875 60.6875 28.1875 60.6875 26 61 C22.82011766 58.83768001 21.6753545 55.35070901 20 52 C16.01948202 50.00974101 11.06452497 50.68368041 6.6875 50.625 C5.11838867 50.56892578 5.11838867 50.56892578 3.51757812 50.51171875 C-2.77138844 50.39383515 -2.77138844 50.39383515 -8.1796875 53.34765625 C-10.01541445 56.02246011 -10.72488715 57.79035013 -11 61 C-12.98 61 -14.96 61 -17 61 C-19.5010656 55.99786879 -17.71355643 49.51416982 -16.828125 44.234375 C-15.78025708 41.40710872 -14.55579045 40.53631931 -12 39 C-10.00428677 38.32060826 -8.00405227 37.65438441 -6 37 C-4.31908407 36.0241417 -2.64993538 35.02737093 -1 34 C-1.36351563 33.22285645 -1.72703125 32.44571289 -2.1015625 31.64501953 C-3.44640652 28.76524295 -4.78783542 25.88390812 -6.12695312 23.00146484 C-6.70761521 21.75343107 -7.28964069 20.50603071 -7.87304688 19.25927734 C-8.71060247 17.4687886 -9.54287966 15.6758337 -10.375 13.8828125 C-10.87773438 12.80402832 -11.38046875 11.72524414 -11.8984375 10.61376953 C-13 8 -13 8 -13 6 C-10.87959258 4.96966118 -8.75352092 3.95097146 -6.625 2.9375 C-5.44164062 2.36902344 -4.25828125 1.80054687 -3.0390625 1.21484375 C-2.03617188 0.81394531 -1.03328125 0.41304688 0 0 Z " fill="#596C76" transform="translate(62,72)"/>
<path d="M0 0 C1.875 1.375 1.875 1.375 3 3 C3 3.66 3 4.32 3 5 C4.65 4.34 6.3 3.68 8 3 C9.125 4.5625 9.125 4.5625 10 7 C9.125 10.75 9.125 10.75 8 14 C8.33 14.33 8.66 14.66 9 15 C9.04063832 16.66617115 9.042721 18.33388095 9 20 C7.02 20.66 5.04 21.32 3 22 C6.09913033 31.30230634 10.16745809 40.04040194 14.375 48.875 C15.3573324 50.949409 16.33827245 53.02447187 17.31900024 55.09963989 C17.92335103 56.3771534 18.52882223 57.65413799 19.13583374 58.9303894 C19.73515087 60.19227242 20.32646809 61.45797557 20.91116333 62.72669983 C21.7456161 64.468891 22.63504014 66.18484432 23.5475769 67.88743591 C27.81727061 76.22438333 28.8212277 82.88005845 28.5859375 92.17578125 C28.57744781 93.46695358 28.56895813 94.75812592 28.56021118 96.08842468 C28.53761298 99.47396296 28.47895752 102.85788561 28.4119873 106.24279785 C28.34992401 109.7156795 28.32306167 113.18882964 28.29296875 116.66210938 C28.2291723 123.44205803 28.12716214 130.22095087 28 137 C26.68 137 25.36 137 24 137 C20.34961535 131.35589792 20.72342242 126.48135267 20.9453125 120.0234375 C20.98251548 117.81672149 21.01505429 115.60992299 21.04345703 113.40307617 C21.05942932 112.25439056 21.07540161 111.10570496 21.09185791 109.92221069 C21.29237412 88.46088282 20.17517991 72.47307517 8.74560547 53.92041016 C5.85483649 49.08413344 3.55551265 43.98156801 1.1875 38.875 C0.30147916 37.01857538 -0.58648363 35.16307613 -1.4765625 33.30859375 C-3.91002376 28.1983251 -6.33133345 23.08393377 -8.6875 17.9375 C-9.02692627 17.21739746 -9.36635254 16.49729492 -9.71606445 15.75537109 C-11.54513181 11.70144774 -12.62290142 8.45210593 -12 4 C-8.16653572 0.53162756 -5.15233607 -0.8014745 0 0 Z " fill="#FD5895" transform="translate(12,0)"/>
<path d="M0 0 C2.9375 0.375 2.9375 0.375 5.9375 2.375 C5.9375 3.035 5.9375 3.695 5.9375 4.375 C6.61296875 4.25640625 7.2884375 4.1378125 7.984375 4.015625 C15.30407303 2.95786517 15.30407303 2.95786517 18.5 5.0625 C19.9375 7.375 19.9375 7.375 20.375 9.3125 C20.82852433 11.70515305 20.82852433 11.70515305 23.5625 13.75 C24.34625 14.61625 25.13 15.4825 25.9375 16.375 C25.75 19.5 25.75 19.5 24.9375 22.375 C24.82581192 25.40059518 24.82581192 25.40059518 25.625 28.375 C25.9375 31.375 25.9375 31.375 24.5 33.25 C23.984375 33.62125 23.46875 33.9925 22.9375 34.375 C20.0625 33.3125 20.0625 33.3125 16.9375 31.375 C15.75 27.8125 15.75 27.8125 14.9375 24.375 C10.27688611 21.26792407 5.48191488 22.00641535 0 22 C-1.64645508 21.96326172 -1.64645508 21.96326172 -3.32617188 21.92578125 C-4.38255859 21.92191406 -5.43894531 21.91804688 -6.52734375 21.9140625 C-7.97548462 21.90173584 -7.97548462 21.90173584 -9.45288086 21.88916016 C-12.80005061 22.51231179 -13.98559711 23.73001645 -16.0625 26.375 C-16.165625 27.220625 -16.26875 28.06625 -16.375 28.9375 C-16.601875 29.741875 -16.82875 30.54625 -17.0625 31.375 C-20.625 33.1875 -20.625 33.1875 -24.0625 34.375 C-26.27513963 31.05604055 -26.24030908 30.7353243 -25.625 27.0625 C-25.16479945 23.94223913 -25.08663961 22.27039503 -25.8125 19.125 C-25.895 18.2175 -25.9775 17.31 -26.0625 16.375 C-23.8125 13.9375 -23.8125 13.9375 -21.0625 11.375 C-20.09832629 9.55588734 -20.09832629 9.55588734 -19.375 7.625 C-18.0625 4.375 -18.0625 4.375 -16.0625 3.375 C-12.68427584 3.23124578 -10.28859045 3.29963652 -7.0625 4.375 C-6.52625 3.715 -5.99 3.055 -5.4375 2.375 C-3.0625 0.375 -3.0625 0.375 0 0 Z " fill="#BB5F4C" transform="translate(105.0625,60.625)"/>
<path d="M0 0 C2.40786594 2.98969719 4.04423896 5.97337911 5.62890625 9.46484375 C6.10650391 10.51220703 6.58410156 11.55957031 7.07617188 12.63867188 C7.56666016 13.72728516 8.05714844 14.81589844 8.5625 15.9375 C9.05685547 17.02224609 9.55121094 18.10699219 10.06054688 19.22460938 C13.83296734 27.53006011 13.83296734 27.53006011 14.96850586 30.72485352 C15.90171582 33.31635813 15.90171582 33.31635813 19 35 C21.57956414 35.2926572 24.1285287 35.37713309 26.72265625 35.4609375 C27.47417969 35.63882813 28.22570312 35.81671875 29 36 C30.12109375 37.9765625 30.12109375 37.9765625 31 40 C31.99 40.33 32.98 40.66 34 41 C31.4423154 49.38642161 27.73716347 56.98327525 23.8515625 64.82421875 C23.37203125 65.80519531 22.8925 66.78617187 22.3984375 67.796875 C21.96192871 68.67698242 21.52541992 69.55708984 21.07568359 70.46386719 C19.9009905 72.96842546 19.9009905 72.96842546 19.52587891 75.70019531 C19 78 19 78 16.1875 80 C14.6096875 80.99 14.6096875 80.99 13 82 C9.93727517 85.22827752 8.50729073 87.56120611 8 92 C6 90 6 90 5.6875 87.25 C6.05579088 83.41977485 6.79469453 81.16093784 9 78 C12.1875 77.125 12.1875 77.125 15 77 C15.9838739 74.04837831 16.07528458 72.25064121 16 69.1875 C15.9557572 66.14801998 16.06779868 63.63388713 16.625 60.625 C17.04959571 57.65283001 16.61847946 56.47532152 15 54 C15.66 53.01 16.32 52.02 17 51 C16.9934389 47.96003468 16.9934389 47.96003468 16 45 C14.70264493 43.95374591 13.36733028 42.95298777 12 42 C11.27840576 40.35636866 10.60648579 38.68949614 10 37 C8.21342243 34.78629949 8.21342243 34.78629949 5.8359375 34.8046875 C5.02382812 34.82789063 4.21171875 34.85109375 3.375 34.875 C2.55773437 34.89304688 1.74046875 34.91109375 0.8984375 34.9296875 C0.27195312 34.95289063 -0.35453125 34.97609375 -1 35 C-2.20474943 32.61153168 -3.38864958 30.21609848 -4.5625 27.8125 C-5.07586914 26.80219727 -5.07586914 26.80219727 -5.59960938 25.77148438 C-6.9990394 22.87367472 -8.01873433 20.74937336 -7.9375 17.5 C-6.61403388 13.97075702 -5.07700102 10.58013082 -3.4375 7.1875 C-2.9434668 6.14819336 -2.9434668 6.14819336 -2.43945312 5.08789062 C-1.63127749 3.38955052 -0.81631623 1.69444231 0 0 Z " fill="#96D52B" transform="translate(113,30)"/>
<path d="M0 0 C1.35308313 1.31328657 2.68870078 2.64499081 4 4 C6.21858253 3.86358623 6.21858253 3.86358623 8 3 C9.1684328 7.2842536 8.63302296 10.64796717 8 15 C8.34659295 17.32158065 8.34659295 17.32158065 9 19 C6.69 19.66 4.38 20.32 2 21 C5.1413297 30.45168821 9.29693239 39.33381302 13.5625 48.3125 C14.24196364 49.7530538 14.9210027 51.19380794 15.59960938 52.63476562 C19.03352706 59.97142591 19.03352706 59.97142591 22.69628906 67.19458008 C23.9124657 69.81163733 24.36245891 71.2600045 24.29296875 74.0859375 C24.28330078 74.78847656 24.27363281 75.49101562 24.26367188 76.21484375 C24.23853516 76.92769531 24.21339844 77.64054687 24.1875 78.375 C24.16719727 79.47908203 24.16719727 79.47908203 24.14648438 80.60546875 C24.11144869 82.40396743 24.05765288 84.20208422 24 86 C21.10951 84.7042631 19.01048247 83.46818503 17 81 C16.70361328 78.99633789 16.70361328 78.99633789 16.6953125 76.66015625 C16.21259665 70.20645525 13.6301648 65.05358594 10.7956543 59.30661011 C9.85414659 57.39516345 8.93338986 55.47490501 8.01757812 53.55102539 C6.70980922 50.80597515 5.39621683 48.06385747 4.07714844 45.32421875 C0.84981889 38.61302734 -2.34218788 31.88628206 -5.47601318 25.13088989 C-6.15637304 23.67355234 -6.84371971 22.21945541 -7.53814697 20.76876831 C-8.51054618 18.73718097 -9.46056666 16.69647392 -10.40625 14.65234375 C-10.95603516 13.48695068 -11.50582031 12.32155762 -12.07226562 11.12084961 C-13 8 -13 8 -12.30273438 5.19750977 C-9.46714873 0.41431891 -5.33944255 -0.79523612 0 0 Z " fill="#F9C603" transform="translate(20,103)"/>
<path d="M0 0 C1.2890625 -0.00128906 2.578125 -0.00257812 3.90625 -0.00390625 C7.96142856 0.63522515 9.62555231 1.69341509 12.5 4.5625 C14.35907568 8.28065135 13.72797004 12.72043546 13.75 16.8125 C13.770625 17.75480469 13.79125 18.69710937 13.8125 19.66796875 C13.84278321 25.06595013 13.56556064 28.91207427 10.5 33.5625 C7.25953856 36.49916818 4.56485065 37.46204239 0.1875 37.875 C-4.2020258 37.50300629 -6.14776343 36.36902364 -9.5 33.5625 C-10.875 31.3125 -10.875 31.3125 -11.5 29.5625 C-10.51 29.8925 -9.52 30.2225 -8.5 30.5625 C-6.60529184 30.6310495 -4.7083166 30.64730372 -2.8125 30.625 C-1.81863281 30.61597656 -0.82476562 30.60695312 0.19921875 30.59765625 C0.95847656 30.58605469 1.71773437 30.57445312 2.5 30.5625 C2.5 28.9125 2.5 27.2625 2.5 25.5625 C0.56318839 25.48142417 -1.3745934 25.42327525 -3.3125 25.375 C-4.39144531 25.34019531 -5.47039062 25.30539063 -6.58203125 25.26953125 C-9.51948844 25.29713048 -9.51948844 25.29713048 -11.38671875 27.07421875 C-11.75410156 27.56535156 -12.12148437 28.05648437 -12.5 28.5625 C-12.52687279 26.75007948 -12.54633715 24.93754767 -12.5625 23.125 C-12.57410156 22.11566406 -12.58570313 21.10632813 -12.59765625 20.06640625 C-12.5 17.5625 -12.5 17.5625 -11.5 16.5625 C-11.35914065 13.46359423 -11.37055914 10.97073656 -12.3125 8 C-12.5 5.5625 -12.5 5.5625 -10.48046875 2.9453125 C-6.73754212 -0.04706659 -4.74036129 -0.08058614 0 0 Z " fill="#FDD0A2" transform="translate(145.5,121.4375)"/>
<path d="M0 0 C-1.65 1.98 -3.3 3.96 -5 6 C-4.67 6.53625 -4.34 7.0725 -4 7.625 C-2.75035402 10.5929092 -2.72243416 12.80799279 -3 16 C-3.66 16.66 -4.32 17.32 -5 18 C-5.76524347 22.94738803 -5.48920515 26.98535227 -3.3125 31.5 C0.55987902 35.6863557 4.48973936 36.23112642 10 37 C10.35706695 43.30818278 10.35706695 43.30818278 9 45.9375 C5.64558048 47.71953537 2.76220155 47.29858742 -1 47 C-1.66 46.34 -2.32 45.68 -3 45 C-3 42.69 -3 40.38 -3 38 C-7.95 38 -12.9 38 -18 38 C-19.29935464 35.48287811 -20.58954372 32.96170913 -21.875 30.4375 C-22.23980469 29.73302734 -22.60460938 29.02855469 -22.98046875 28.30273438 C-25.19942197 23.92534485 -26.81066956 19.76358139 -28 15 C-25.69 15 -23.38 15 -21 15 C-20.34 13.68 -19.68 12.36 -19 11 C-17.35 11 -15.7 11 -14 11 C-13.938125 9.9275 -13.87625 8.855 -13.8125 7.75 C-13 4 -13 4 -10.9375 1.5625 C-6.98715265 -0.53874859 -4.43222695 -0.30048996 0 0 Z " fill="#D78954" transform="translate(65,122)"/>
<path d="M0 0 C1.27552734 -0.02449219 2.55105469 -0.04898437 3.86523438 -0.07421875 C5.70891602 -0.08001953 5.70891602 -0.08001953 7.58984375 -0.0859375 C8.71124756 -0.09415527 9.83265137 -0.10237305 10.98803711 -0.11083984 C15.29625305 0.56996296 17.74901758 2.6603942 20.3671875 6.078125 C21.47277077 9.73027647 21.26920323 13.3352269 21.1875 17.125 C21.17847656 17.91777344 21.16945312 18.71054687 21.16015625 19.52734375 C21.13667012 21.47669281 21.10080137 23.42588575 21.0625 25.375 C19.16015625 25.08984375 19.16015625 25.08984375 17.0625 24.375 C16.01202356 22.06395182 15.01242562 19.72916349 14.0625 17.375 C9.50242758 14.33495172 4.9898199 15.00656247 -0.375 15 C-1.94991211 14.96326172 -1.94991211 14.96326172 -3.55664062 14.92578125 C-4.56791016 14.92191406 -5.57917969 14.91804688 -6.62109375 14.9140625 C-7.54462646 14.90584473 -8.46815918 14.89762695 -9.41967773 14.88916016 C-12.70140662 15.52240368 -13.86307192 16.81028449 -15.9375 19.375 C-16.2675 20.261875 -16.5975 21.14875 -16.9375 22.0625 C-17.2675 22.825625 -17.5975 23.58875 -17.9375 24.375 C-20 25.01953125 -20 25.01953125 -21.9375 25.375 C-22.04611833 22.66557607 -22.12508577 19.960561 -22.1875 17.25 C-22.22101562 16.48945313 -22.25453125 15.72890625 -22.2890625 14.9453125 C-22.381075 9.60858722 -21.56930635 6.55284716 -17.9375 2.375 C-12.69602903 -1.05129694 -6.01492525 0.00606038 0 0 Z " fill="#FD9A04" transform="translate(61.9375,9.625)"/>
<path d="M0 0 C4.68140163 3.1509434 7.85977577 6.39633392 9 12 C9.22875943 16.34642908 9.17651548 20.65248903 9 25 C7.68 25 6.36 25 5 25 C4.7525 23.906875 4.505 22.81375 4.25 21.6875 C2.9194136 17.76227013 2.45445023 16.98900533 -1 15 C-4.81108888 14.38452848 -8.6444783 14.53635281 -12.5 14.5625 C-13.54542969 14.54251953 -14.59085938 14.52253906 -15.66796875 14.50195312 C-16.67472656 14.50259766 -17.68148437 14.50324219 -18.71875 14.50390625 C-20.09450195 14.50112671 -20.09450195 14.50112671 -21.49804688 14.49829102 C-24.77167989 15.1547426 -25.93141808 16.42958473 -28 19 C-29.26784124 22.13350717 -29.26784124 22.13350717 -30 25 C-31.32 25 -32.64 25 -34 25 C-34.2904259 15.93225809 -34.05405915 9.45203174 -27.68359375 2.546875 C-20.4903641 -4.06221767 -8.5805906 -3.60384805 0 0 Z " fill="#FDD302" transform="translate(154,108)"/>
<path d="M0 0 C6.42210386 -0.48468708 6.42210386 -0.48468708 8.9375 1.625 C10.25066255 4.56030453 10.21691118 6.81863606 10 10 C8.68 10.33 7.36 10.66 6 11 C6.66 14.3 7.32 17.6 8 21 C8.66 20.01 9.32 19.02 10 18 C12.8203125 17.70703125 12.8203125 17.70703125 16.125 17.8125 C17.22070312 17.83957031 18.31640625 17.86664063 19.4453125 17.89453125 C20.28835937 17.92933594 21.13140625 17.96414062 22 18 C22.33 19.65 22.66 21.3 23 23 C19.79619983 25.13586678 18.98060033 25.23132175 15.3125 25.125 C14.50425781 25.10695313 13.69601563 25.08890625 12.86328125 25.0703125 C12.24839844 25.04710938 11.63351563 25.02390625 11 25 C15.26577569 27.9540719 15.26577569 27.9540719 20 30 C20 30.99 20 31.98 20 33 C16.535 32.505 16.535 32.505 13 32 C13.66 34.97 14.32 37.94 15 41 C13.68 40.67 12.36 40.34 11 40 C10.67 38.68 10.34 37.36 10 36 C9.33613281 36.04640625 8.67226562 36.0928125 7.98828125 36.140625 C6.66376953 36.19476563 6.66376953 36.19476563 5.3125 36.25 C4.44238281 36.29640625 3.57226562 36.3428125 2.67578125 36.390625 C-0.97241793 35.85804118 -2.50955948 34.69760991 -5 32 C-5.6015625 28.90625 -5.6015625 28.90625 -5.625 25.5 C-5.67892741 20.79753019 -5.95502942 18.58927879 -9 15 C-9.5 12.0625 -9.5 12.0625 -9 9 C-6.6875 6.125 -6.6875 6.125 -4 4 C-3.01 4 -2.02 4 -1 4 C-0.67 2.68 -0.34 1.36 0 0 Z " fill="#D68A56" transform="translate(132,30)"/>
<path d="M0 0 C3.73981994 0.28767846 5.43928496 0.76050954 8.25 3.25 C10.17916145 8.39443053 9.0477822 11.2393112 6.8125 16.1875 C5.97488279 17.88327544 5.12601991 19.57374045 4.25 21.25 C3.3425 20.940625 2.435 20.63125 1.5 20.3125 C-0.91894068 19.52169247 -3.28200079 18.84553894 -5.75 18.25 C-6.27956299 19.36971191 -6.80912598 20.48942383 -7.35473633 21.64306641 C-9.32770648 25.81427857 -11.30154258 29.98508047 -13.27563477 34.15576172 C-14.12840865 35.95773394 -14.98095058 37.75981596 -15.83325195 39.56201172 C-17.06139503 42.15882097 -18.2903836 44.75522862 -19.51953125 47.3515625 C-19.89777542 48.1517984 -20.27601959 48.9520343 -20.66572571 49.77651978 C-22.64685713 53.95904684 -24.66164623 58.11950775 -26.75 62.25 C-28.4 62.25 -30.05 62.25 -31.75 62.25 C-31.63590318 60.14521396 -31.50834639 58.04115423 -31.375 55.9375 C-31.30539063 54.76574219 -31.23578125 53.59398437 -31.1640625 52.38671875 C-30.75 49.25 -30.75 49.25 -28.75 46.25 C-28.37832816 43.48979004 -28.57149364 41.06147524 -28.75 38.25 C-29.41 37.59 -30.07 36.93 -30.75 36.25 C-30.42 35.26 -30.09 34.27 -29.75 33.25 C-27.44 35.23 -25.13 37.21 -22.75 39.25 C-22.42201416 38.53344238 -22.09402832 37.81688477 -21.75610352 37.07861328 C-20.27526013 33.84391159 -18.79388676 30.60945288 -17.3125 27.375 C-16.79623047 26.24707031 -16.27996094 25.11914062 -15.74804688 23.95703125 C-15.25498047 22.88066406 -14.76191406 21.80429687 -14.25390625 20.6953125 C-13.79830322 19.70031738 -13.3427002 18.70532227 -12.87329102 17.68017578 C-12.18620975 16.1937148 -11.48234512 14.71469025 -10.75 13.25 C-11.06763653 11.25103089 -11.06763653 11.25103089 -11.6875 9.125 C-11.97947266 8.03832031 -11.97947266 8.03832031 -12.27734375 6.9296875 C-12.43332031 6.37539062 -12.58929688 5.82109375 -12.75 5.25 C-11.43 4.59 -10.11 3.93 -8.75 3.25 C-7.76 3.91 -6.77 4.57 -5.75 5.25 C-5.440625 4.610625 -5.13125 3.97125 -4.8125 3.3125 C-3.25867052 0.29624277 -3.25867052 0.29624277 0 0 Z " fill="#8EC82D" transform="translate(200.75,-0.25)"/>
<path d="M0 0 C-0.680625 0.7425 -1.36125 1.485 -2.0625 2.25 C-4.2556778 4.7019778 -4.2556778 4.7019778 -3.75 6.875 C-3.5025 7.57625 -3.255 8.2775 -3 9 C-2.92094936 11.33199388 -2.91201231 13.66832622 -3 16 C-3.33 16.33 -3.66 16.66 -4 17 C-4.42902253 21.91725822 -4.648252 26.48741199 -2.6875 31.0625 C0.17590297 34.35011082 2.48057392 35.25918034 6.6875 35.625 C7.49574219 35.69976562 8.30398437 35.77453125 9.13671875 35.8515625 C9.75160156 35.90054688 10.36648437 35.94953125 11 36 C11.48275862 42.27586207 11.48275862 42.27586207 9.375 45.4375 C6.30182885 47.45932313 4.61752119 47.52755517 1 47 C-1.375 45.875 -1.375 45.875 -3 44 C-3.25 40.8125 -3.25 40.8125 -3 38 C-5.31 38 -7.62 38 -10 38 C-10.99 34.04 -11.98 30.08 -13 26 C-14.65 25.67 -16.3 25.34 -18 25 C-19.8125 23.9375 -19.8125 23.9375 -21 22 C-21.64336438 16.93350549 -21.64336438 16.93350549 -21 14 C-18.6875 11.5 -18.6875 11.5 -16 10 C-15.01 10 -14.02 10 -13 10 C-12.9175 8.906875 -12.835 7.81375 -12.75 6.6875 C-12 3 -12 3 -10.4375 1.0625 C-6.8556202 -0.49883222 -3.89006898 -0.19450345 0 0 Z " fill="#F4A86D" transform="translate(101,82)"/>
<path d="M0 0 C-0.763125 0.556875 -1.52625 1.11375 -2.3125 1.6875 C-5.49544682 4.42631471 -7.65763233 6.70125573 -8.29647827 10.9906311 C-8.44267755 13.41002731 -8.49347979 15.81454037 -8.51171875 18.23828125 C-8.52966995 19.11904831 -8.54762115 19.99981537 -8.56611633 20.90727234 C-8.6201191 23.7089668 -8.65408266 26.51049187 -8.6875 29.3125 C-8.72068195 31.21682039 -8.75517243 33.12111846 -8.79101562 35.02539062 C-8.87583978 39.68347134 -8.94269874 44.3415027 -9 49 C-11.75078884 49.91692961 -13.35948913 50.10886083 -16.1875 50.0625 C-17.445625 50.041875 -18.70375 50.02125 -20 50 C-20.09940554 44.59233876 -20.17172051 39.18521772 -20.21972656 33.77685547 C-20.23975373 31.93984707 -20.26698382 30.10290171 -20.30175781 28.26611328 C-20.35067065 25.61474998 -20.37305763 22.96423459 -20.390625 20.3125 C-20.41127014 19.50071289 -20.43191528 18.68892578 -20.45318604 17.85253906 C-20.45539413 12.15034975 -19.27096637 7.73522891 -16 3 C-11.0688044 -0.75710141 -5.92876763 -0.31635717 0 0 Z " fill="#5B6F79" transform="translate(130,160)"/>
<path d="M0 0 C6.93 2.97 6.93 2.97 14 6 C12.66398387 10.00804839 11.35960399 13.60086309 9.6171875 17.3984375 C9.17246094 18.37167969 8.72773438 19.34492187 8.26953125 20.34765625 C7.80933594 21.34667969 7.34914062 22.34570312 6.875 23.375 C6.40707031 24.39722656 5.93914062 25.41945313 5.45703125 26.47265625 C4.30742298 28.98302533 3.1540809 31.49168395 2 34 C-3.94 34.33 -9.88 34.66 -16 35 C-13.01762864 27.35634513 -9.74495524 19.88888297 -6.3125 12.4375 C-5.81427734 11.34630859 -5.31605469 10.25511719 -4.80273438 9.13085938 C-1.12781718 1.12781718 -1.12781718 1.12781718 0 0 Z " fill="#0894F8" transform="translate(147,72)"/>
<path d="M0 0 C3.044839 1.5224195 3.55067354 3.92173833 4.96875 6.9765625 C5.24972534 7.5800351 5.53070068 8.18350769 5.82019043 8.80526733 C6.41493201 10.08669551 7.00652138 11.36959065 7.59521484 12.65380859 C8.48856867 14.60009536 9.39381295 16.54049569 10.30078125 18.48046875 C10.87833294 19.72882976 11.45517775 20.9775181 12.03125 22.2265625 C12.55267578 23.35658691 13.07410156 24.48661133 13.61132812 25.65087891 C15.03529876 29.08513156 16.05006178 32.41153435 17 36 C16.071875 35.67 15.14375 35.34 14.1875 35 C10.81083332 34.01217065 7.75009766 33.89559913 4.23828125 33.9375 C3.25512939 33.94652344 2.27197754 33.95554688 1.2590332 33.96484375 C0.51355225 33.97644531 -0.23192871 33.98804688 -1 34 C-2.71383583 30.33606817 -4.42269839 26.66986349 -6.12695312 23.00146484 C-6.70761521 21.75343107 -7.28964069 20.50603071 -7.87304688 19.25927734 C-8.71060247 17.4687886 -9.54287966 15.6758337 -10.375 13.8828125 C-10.87773438 12.80402832 -11.38046875 11.72524414 -11.8984375 10.61376953 C-13 8 -13 8 -13 6 C-10.87959258 4.96966118 -8.75352092 3.95097146 -6.625 2.9375 C-5.44164062 2.36902344 -4.25828125 1.80054687 -3.0390625 1.21484375 C-2.03617188 0.81394531 -1.03328125 0.41304688 0 0 Z " fill="#27A5FC" transform="translate(62,72)"/>
<path d="M0 0 C1.37395963 2.69981565 2.7239569 5.40769046 4.0625 8.125 C4.64741211 9.26582031 4.64741211 9.26582031 5.24414062 10.4296875 C5.60830078 11.17734375 5.97246094 11.925 6.34765625 12.6953125 C6.68804932 13.37609863 7.02844238 14.05688477 7.37915039 14.75830078 C8.81212031 19.93231957 6.50802647 24.54560089 4.34765625 29.203125 C3.55391602 30.92015625 3.55391602 30.92015625 2.74414062 32.671875 C2.18919922 33.85265625 1.63425781 35.0334375 1.0625 36.25 C0.51142578 37.44625 -0.03964844 38.6425 -0.60742188 39.875 C-4.72888558 48.72888558 -4.72888558 48.72888558 -7 51 C-9.8203125 51.1953125 -9.8203125 51.1953125 -13.125 51.125 C-14.22070312 51.10695312 -15.31640625 51.08890625 -16.4453125 51.0703125 C-17.28835937 51.04710937 -18.13140625 51.02390625 -19 51 C-19 50.34 -19 49.68 -19 49 C-18.0925 48.649375 -17.185 48.29875 -16.25 47.9375 C-13.03866374 46.02304954 -12.50708492 45.53791465 -10.9375 42.4375 C-8.79623719 38.63848535 -7.97387848 38.25490899 -4 37 C-1.67420899 33.51131349 -1.58134543 32.10281481 -2 28 C-2.49113281 27.44957031 -2.98226562 26.89914063 -3.48828125 26.33203125 C-5.6844264 22.94417943 -5.45291349 19.5399069 -5.5 15.625 C-5.56908336 9.94042616 -5.9965505 6.03237549 -9 1 C-5.8035914 -0.06546953 -3.34252724 -0.07427838 0 0 Z " fill="#B7C3CD" transform="translate(88,11)"/>
<path d="M0 0 C0.66 1.32 1.32 2.64 2 4 C3.65 3.67 5.3 3.34 7 3 C9.21854707 7.62197306 10.38281159 10.76824163 10 16 C7.03 15.505 7.03 15.505 4 15 C3.7525 15.804375 3.505 16.60875 3.25 17.4375 C1.73921353 21.74324143 -0.10188856 25.85364007 -2 30 C-5.15984867 26.23018054 -7.14281224 21.96878013 -9.25 17.5625 C-9.81460938 16.43618164 -9.81460938 16.43618164 -10.390625 15.28710938 C-11.95222478 12.02325101 -13.0258972 9.76655722 -12.90234375 6.109375 C-10.55193467 0.61491222 -5.47325345 -0.52126223 0 0 Z " fill="#D98E5B" transform="translate(99,0)"/>
<path d="M0 0 C2.475 0.495 2.475 0.495 5 1 C6.33079299 4.99237898 5.27830398 6.16644889 3.5 9.92578125 C2.66795044 11.70130371 2.66795044 11.70130371 1.8190918 13.51269531 C1.21305841 14.77945506 0.606689 16.04605411 0 17.3125 C-0.60379624 18.59049572 -1.20690575 19.86881611 -1.80932617 21.14746094 C-5.75181669 29.49100628 -9.76222496 37.80183157 -14 46 C-15.98 46 -17.96 46 -20 46 C-19.88623383 43.87436897 -19.75864369 41.7494739 -19.625 39.625 C-19.55539063 38.44164062 -19.48578125 37.25828125 -19.4140625 36.0390625 C-19 33 -19 33 -17 31 C-16.54188325 29.02764667 -16.54188325 29.02764667 -16.375 26.875 C-16.25125 25.59625 -16.1275 24.3175 -16 23 C-15.06720215 22.93627197 -14.1344043 22.87254395 -13.17333984 22.80688477 C-9.8967264 22.32714849 -9.8967264 22.32714849 -8.40087891 19.86694336 C-7.81959229 18.49227905 -7.81959229 18.49227905 -7.2265625 17.08984375 C-6.79472656 16.10048828 -6.36289063 15.11113281 -5.91796875 14.09179688 C-5.49128906 13.05087891 -5.06460938 12.00996094 -4.625 10.9375 C-4.17511719 9.89271484 -3.72523438 8.84792969 -3.26171875 7.77148438 C-2.15331138 5.18913104 -1.0674206 2.59950175 0 0 Z " fill="#5A6D76" transform="translate(182,114)"/>
<path d="M0 0 C3.3 0.33 6.6 0.66 10 1 C10 4 10 4 8.0625 7.4375 C5.65258976 11.97925392 5.48291852 16.18746466 5.37109375 21.265625 C4.94710117 24.38978087 3.96228537 25.60222049 2 28 C1.5 31 1.5 31 2 34 C2.495 34.598125 2.99 35.19625 3.5 35.8125 C5.86968857 39.26829583 5.23475574 42.93090046 5 47 C1.37824541 42.44712523 -0.82413247 37.38104631 -3.25 32.125 C-3.72179687 31.14402344 -4.19359375 30.16304687 -4.6796875 29.15234375 C-8.85846664 20.09832228 -8.85846664 20.09832228 -7 15 C-5.90867545 12.32270155 -4.70811213 9.72157767 -3.4375 7.125 C-3.10814453 6.43664062 -2.77878906 5.74828125 -2.43945312 5.0390625 C-1.63304639 3.3561267 -0.81745506 1.67759707 0 0 Z " fill="#B6C3CD" transform="translate(122,11)"/>
<path d="M0 0 C0.66 0.66 1.32 1.32 2 2 C-1.92682022 4.80487159 -5.41961801 6.54260573 -10 8 C-12.41121859 9.95633975 -12.41121859 9.95633975 -12.125 13.625 C-12.08375 14.73875 -12.0425 15.8525 -12 17 C-12.94875 17.433125 -13.8975 17.86625 -14.875 18.3125 C-18.20041937 19.79302201 -18.20041937 19.79302201 -20 23 C-20.38499891 24.65549531 -20.72793135 26.3222433 -21 28 C-22.98 28 -24.96 28 -27 28 C-29.5010656 22.99786879 -27.71355643 16.51416982 -26.828125 11.234375 C-25.78214626 8.41220594 -24.54706152 7.53775864 -22 6 C-20.00945124 5.30562253 -18.00744615 4.64389782 -16 4 C-14.51724513 3.29920892 -13.03830394 2.59031313 -11.5625 1.875 C-7.56395392 0.06484738 -4.43545636 -0.54311711 0 0 Z " fill="#485B63" transform="translate(72,105)"/>
<path d="M0 0 C1.875 1.375 1.875 1.375 3 3 C3 3.66 3 4.32 3 5 C4.65 4.34 6.3 3.68 8 3 C9.1875 4.5 9.1875 4.5 10 7 C9.41540664 10.62447882 9.13173942 12.15404609 7 15 C-2.10126582 21 -2.10126582 21 -7 21 C-7.84761822 19.29870914 -8.6774868 17.58856916 -9.5 15.875 C-9.9640625 14.92367188 -10.428125 13.97234375 -10.90625 12.9921875 C-12.10003395 9.7263357 -12.39709845 7.44797677 -12 4 C-8.16653572 0.53162756 -5.15233607 -0.8014745 0 0 Z " fill="#FEBE88" transform="translate(12,0)"/>
<path d="M0 0 C3.73981994 0.28767846 5.43928496 0.76050954 8.25 3.25 C10.17916145 8.39443053 9.0477822 11.2393112 6.8125 16.1875 C5.97488279 17.88327544 5.12601991 19.57374045 4.25 21.25 C2.23072489 20.64421747 0.23536627 19.95905938 -1.75 19.25 C-2.77673828 18.91742187 -2.77673828 18.91742187 -3.82421875 18.578125 C-7.34203801 17.19960803 -9.26649578 16.27162353 -10.92578125 12.765625 C-11.66991436 10.26872337 -12.2806623 7.81180162 -12.75 5.25 C-11.43 4.59 -10.11 3.93 -8.75 3.25 C-7.76 3.91 -6.77 4.57 -5.75 5.25 C-5.440625 4.610625 -5.13125 3.97125 -4.8125 3.3125 C-3.25867052 0.29624277 -3.25867052 0.29624277 0 0 Z " fill="#EA9F5E" transform="translate(200.75,-0.25)"/>
<path d="M0 0 C0 0.66 0 1.32 0 2 C2.31 2 4.62 2 7 2 C8.24288279 5.10720698 8.17616664 7.98545666 7.1953125 11.18359375 C4.5130829 15.25953088 -0.57894669 17.27084878 -5 19 C-6.32 19 -7.64 19 -9 19 C-9.8709379 17.27921959 -10.72114558 15.54793677 -11.5625 13.8125 C-12.27599609 12.36810547 -12.27599609 12.36810547 -13.00390625 10.89453125 C-14.11337675 7.67054049 -14.13778304 6.18470372 -13 3 C-8.52865141 -1.04550587 -5.78927415 -1.3894258 0 0 Z " fill="#F5A86C" transform="translate(57,59)"/>
<path d="M0 0 C1.35308313 1.31328657 2.68870078 2.64499081 4 4 C6.21858253 3.86358623 6.21858253 3.86358623 8 3 C9.26036117 6.7810835 9.04992716 9.64089994 7.359375 13.28515625 C4.55156458 16.82719296 0.15026807 18.45521755 -4 20 C-4.66 20 -5.32 20 -6 20 C-6.33 20.66 -6.66 21.32 -7 22 C-8.06383493 19.77916946 -9.10059089 17.55143781 -10.125 15.3125 C-10.42792969 14.68666016 -10.73085937 14.06082031 -11.04296875 13.41601562 C-12.4374429 10.31898583 -13.12121717 8.5071615 -12.3203125 5.15625 C-9.42392185 0.42604989 -5.33926098 -0.79520908 0 0 Z " fill="#E99B59" transform="translate(20,103)"/>
<path d="M0 0 C4.28954468 0.09126691 7.76664601 1.1470406 11 4 C12.32918063 10.5129851 9.10318768 15.49184187 6 21 C4.41579871 20.37720331 2.83267469 19.75166599 1.25 19.125 C0.36828125 18.77695313 -0.5134375 18.42890625 -1.421875 18.0703125 C-2.69804687 17.54050781 -2.69804687 17.54050781 -4 17 C-4.74121094 16.69449219 -5.48242188 16.38898438 -6.24609375 16.07421875 C-8 15 -8 15 -9.3125 11.6875 C-9.95307324 8.2516981 -9.99807583 6.29365023 -9 3 C-8.2575 3.2475 -7.515 3.495 -6.75 3.75 C-5.38875 3.87375 -5.38875 3.87375 -4 4 C-3.360625 3.34 -2.72125 2.68 -2.0625 2 C-1.381875 1.34 -0.70125 0.68 0 0 Z " fill="#FCD1A4" transform="translate(191,99)"/>
<path d="M0 0 C3 2.25 3 2.25 5 5 C5.13290207 9.78447443 2.00671804 14.71589032 0 19 C-5.6123665 18.5682795 -10.79935331 16.80017936 -15 13 C-16.31932628 9.69410197 -16.78686257 6.54083153 -17 3 C-15.1875 2.375 -15.1875 2.375 -13 2 C-12.01 2.66 -11.02 3.32 -10 4 C-9.814375 3.0409375 -9.814375 3.0409375 -9.625 2.0625 C-9.41875 1.381875 -9.2125 0.70125 -9 0 C-5.77509551 -1.61245225 -3.43772273 -0.81573082 0 0 Z " fill="#F3A86C" transform="translate(162,59)"/>
<path d="M0 0 C1.65 0 3.3 0 5 0 C5.03867187 1.73636719 5.03867187 1.73636719 5.078125 3.5078125 C5.13443349 5.04691128 5.1917802 6.58597233 5.25 8.125 C5.26417969 8.88554687 5.27835938 9.64609375 5.29296875 10.4296875 C5.51957637 15.68698423 6.5034455 18.84467436 10 23 C13.10014929 24.88568694 13.10014929 24.88568694 16 26 C16 26.33 16 26.66 16 27 C11.05 27 6.1 27 1 27 C-0.29935464 24.48287811 -1.58954372 21.96170913 -2.875 19.4375 C-3.23980469 18.73302734 -3.60460938 18.02855469 -3.98046875 17.30273438 C-6.19942197 12.92534485 -7.81066956 8.76358139 -9 4 C-6.69 4 -4.38 4 -2 4 C-1.34 2.68 -0.68 1.36 0 0 Z " fill="#C57944" transform="translate(46,133)"/>
<path d="M0 0 C0.66 0.33 1.32 0.66 2 1 C0.48710602 7.55587393 0.48710602 7.55587393 -2.125 9.9375 C-5.00175312 13.10192843 -4.13342559 15.7970938 -4 20 C-4.66 20.99 -5.32 21.98 -6 23 C-6.061875 23.825 -6.12375 24.65 -6.1875 25.5 C-6.455625 26.325 -6.72375 27.15 -7 28 C-10.5625 29.8125 -10.5625 29.8125 -14 31 C-16.21263963 27.68104055 -16.17780908 27.3603243 -15.5625 23.6875 C-15.10229945 20.56723913 -15.02413961 18.89539503 -15.75 15.75 C-15.8325 14.8425 -15.915 13.935 -16 13 C-13.75 10.5625 -13.75 10.5625 -11 8 C-10.03582629 6.18088734 -10.03582629 6.18088734 -9.3125 4.25 C-7.2768955 -0.79054447 -5.07834635 -0.21159776 0 0 Z " fill="#A54F3F" transform="translate(95,64)"/>
<path d="M0 0 C2.475 0.495 2.475 0.495 5 1 C4.34741969 5.84026783 2.37515874 9.83196485 0.2890625 14.1875 C-0.0797403 14.96762451 -0.44854309 15.74774902 -0.82852173 16.55151367 C-1.60765963 18.19672378 -2.38948761 19.84066227 -3.17382812 21.48339844 C-4.36956216 23.98860706 -5.55655352 26.4978106 -6.7421875 29.0078125 C-7.50209183 30.60961816 -8.26249212 32.21118864 -9.0234375 33.8125 C-9.37667084 34.55846436 -9.72990417 35.30442871 -10.09384155 36.07299805 C-13.9005446 44.03028532 -13.9005446 44.03028532 -16 47 C-18.6875 47.3125 -18.6875 47.3125 -21 47 C-18.73033215 39.54363415 -15.62041577 32.73798242 -12.1875 25.75 C-11.11257237 23.53810477 -10.03834669 21.32586827 -8.96484375 19.11328125 C-8.4529248 18.06092285 -7.94100586 17.00856445 -7.41357422 15.92431641 C-4.86489485 10.65176346 -2.41771207 5.33381215 0 0 Z " fill="#FC5894" transform="translate(103,15)"/>
<path d="M0 0 C1.85625 0.0309375 1.85625 0.0309375 3.75 0.0625 C3.75 0.7225 3.75 1.3825 3.75 2.0625 C2.140625 3.10546875 2.140625 3.10546875 0 4.25 C-5.83860435 7.77791994 -7.83208278 12.03396475 -9.5 18.5 C-9.7475 19.675625 -9.995 20.85125 -10.25 22.0625 C-11.9 22.3925 -13.55 22.7225 -15.25 23.0625 C-15.58 24.3825 -15.91 25.7025 -16.25 27.0625 C-17.57 27.3925 -18.89 27.7225 -20.25 28.0625 C-20.69883932 20.58184461 -20.98900741 14.19688182 -16.25 8.0625 C-11.19465727 2.73781524 -7.45550131 -0.12425836 0 0 Z " fill="#495C63" transform="translate(147.25,6.9375)"/>
<path d="M0 0 C3.36327963 0.56054661 5.99112219 1.41841038 9 3 C8.76812988 3.51908936 8.53625977 4.03817871 8.29736328 4.57299805 C7.23891621 6.94405701 6.18194605 9.31577157 5.125 11.6875 C4.76019531 12.50412109 4.39539063 13.32074219 4.01953125 14.16210938 C3.66503906 14.95810547 3.31054688 15.75410156 2.9453125 16.57421875 C2.62062988 17.30213623 2.29594727 18.03005371 1.96142578 18.7800293 C0.92766198 21.1670314 -0.03392393 23.58480981 -1 26 C-4.63 26 -8.26 26 -12 26 C-10.75237881 23.16559845 -9.50197335 20.33247871 -8.25 17.5 C-7.90195313 16.70851563 -7.55390625 15.91703125 -7.1953125 15.1015625 C-4.93340792 9.99133364 -2.53577842 4.98017745 0 0 Z " fill="#26A5FC" transform="translate(150,80)"/>
<path d="M0 0 C-0.5878125 0.28746094 -1.175625 0.57492188 -1.78125 0.87109375 C-8.36179127 4.21929169 -11.36780593 7.03216228 -14.03515625 14.00390625 C-15.3697649 16.76497921 -17.40615755 17.47029804 -20 19 C-21.32577997 21.61999374 -22.12164211 24.18000888 -23 27 C-24.32 27 -25.64 27 -27 27 C-27.2904259 17.93225809 -27.05405915 11.45203174 -20.68359375 4.546875 C-14.61107498 -1.03251579 -7.78727163 -0.3452485 0 0 Z " fill="#F8C502" transform="translate(147,106)"/>
<path d="M0 0 C1.75570312 0.02707031 1.75570312 0.02707031 3.546875 0.0546875 C4.88492188 0.08949219 4.88492188 0.08949219 6.25 0.125 C5.45078125 0.74632812 4.6515625 1.36765625 3.828125 2.0078125 C1.291576 4.09085729 0.31842533 5.09779489 -0.75 8.125 C-0.8325 9.135625 -0.915 10.14625 -1 11.1875 C-1.2475 12.156875 -1.495 13.12625 -1.75 14.125 C-3.75 15.125 -5.75 16.125 -7.75 17.125 C-8.78842565 19.44148799 -9.7921975 21.77403024 -10.75 24.125 C-12.8359375 24.8359375 -12.8359375 24.8359375 -14.75 25.125 C-14.85861833 22.41557607 -14.93758577 19.710561 -15 17 C-15.03351562 16.23945313 -15.06703125 15.47890625 -15.1015625 14.6953125 C-15.193575 9.35858722 -14.38180635 6.30284716 -10.75 2.125 C-7.38672266 -0.39027151 -4.09718296 -0.08194366 0 0 Z " fill="#FB8B07" transform="translate(54.75,9.875)"/>
<path d="M0 0 C3.90108532 0.78021706 6.11242014 2.03278012 9.125 4.625 C10.39420559 7.97849734 10.22734705 9.36271511 8.91015625 12.73828125 C8.34167969 13.79402344 7.77320312 14.84976562 7.1875 15.9375 C6.62160156 17.00613281 6.05570313 18.07476563 5.47265625 19.17578125 C5.02792969 19.98402344 4.58320312 20.79226562 4.125 21.625 C-0.825 19.645 -0.825 19.645 -5.875 17.625 C-5.854375 16.5525 -5.83375 15.48 -5.8125 14.375 C-5.66747627 10.84673138 -5.66747627 10.84673138 -6.625 8.5625 C-6.875 6.625 -6.875 6.625 -5.3125 3.375 C-2.875 0.625 -2.875 0.625 0 0 Z " fill="#FEBE89" transform="translate(113.875,-0.625)"/>
<path d="M0 0 C0.66 0.33 1.32 0.66 2 1 C2.625 3.0625 2.625 3.0625 3 5 C0.69 6.32 -1.62 7.64 -4 9 C-3.36699605 14.03388859 -1.14545036 18.19151818 1.0625 22.6875 C1.80684867 24.21055189 2.54790367 25.73521928 3.28515625 27.26171875 C3.61394775 27.93162842 3.94273926 28.60153809 4.28149414 29.29174805 C5 31 5 31 5 33 C2.03 33.495 2.03 33.495 -1 34 C-2.71383583 30.33606817 -4.42269839 26.66986349 -6.12695312 23.00146484 C-6.70761521 21.75343107 -7.28964069 20.50603071 -7.87304688 19.25927734 C-8.71060247 17.4687886 -9.54287966 15.6758337 -10.375 13.8828125 C-10.87773438 12.80402832 -11.38046875 11.72524414 -11.8984375 10.61376953 C-13 8 -13 8 -13 6 C-10.87959258 4.96966118 -8.75352092 3.95097146 -6.625 2.9375 C-5.44164062 2.36902344 -4.25828125 1.80054687 -3.0390625 1.21484375 C-2.03617188 0.81394531 -1.03328125 0.41304688 0 0 Z " fill="#0A92F9" transform="translate(62,72)"/>
<path d="M0 0 C5.75 1.75 5.75 1.75 8 4 C8.46376812 11.30434783 8.46376812 11.30434783 6 15 C5.6155838 17.60520732 5.6155838 17.60520732 5.5 20.4375 C5.29732637 24.1616279 4.8975381 26.76347332 3 30 C1 30 1 30 -0.875 28.1875 C-1.926875 27.1046875 -1.926875 27.1046875 -3 26 C-4.31558703 24.97676564 -5.64377755 23.96873032 -7 23 C-6.195625 22.236875 -5.39125 21.47375 -4.5625 20.6875 C-0.6547615 16.58914011 -0.74487497 12.70919818 -0.4375 7.3125 C-0.37272461 6.2596582 -0.37272461 6.2596582 -0.30664062 5.18554688 C-0.2008264 3.45724794 -0.09993419 1.7286489 0 0 Z " fill="#D88A55" transform="translate(165,34)"/>
<path d="M0 0 C2.375 -0.125 2.375 -0.125 5 0 C7 2 7 2 7.265625 4.3125 C7.26046875 5.199375 7.2553125 6.08625 7.25 7 C7.25515625 7.886875 7.2603125 8.77375 7.265625 9.6875 C7 12 7 12 5 14 C4.61247123 16.3332963 4.61247123 16.3332963 4.5 18.9375 C4.28284471 22.62371105 4.11910421 23.82134368 2 27 C-1.0390625 27.29296875 -1.0390625 27.29296875 -4.625 27.1875 C-5.81351563 27.16042969 -7.00203125 27.13335937 -8.2265625 27.10546875 C-9.14179688 27.07066406 -10.05703125 27.03585938 -11 27 C-10 25 -10 25 -7.125 23.75 C-3.23393564 21.57100396 -2.62411157 20.11441597 -1 16 C-0.53817878 13.20988721 -0.40186752 10.44901379 -0.3125 7.625 C-0.27833984 6.88894531 -0.24417969 6.15289062 -0.20898438 5.39453125 C-0.12727211 3.59686147 -0.06194219 1.79845954 0 0 Z " fill="#FEBD84" transform="translate(159,133)"/>
<path d="M0 0 C0.66 0.33 1.32 0.66 2 1 C2 1.66 2 2.32 2 3 C3.65 2.67 5.3 2.34 7 2 C9.21854707 6.62197306 10.38281159 9.76824163 10 15 C9.071875 14.95875 8.14375 14.9175 7.1875 14.875 C3.84190281 14.72863661 3.84190281 14.72863661 1 17 C-1 17.0625 -1 17.0625 -3 16 C-4.88639787 12.61749348 -6 10.08478333 -6 6.1875 C-5 4 -5 4 -2.4375 2.6875 C-1.633125 2.460625 -0.82875 2.23375 0 2 C0 1.34 0 0.68 0 0 Z " fill="#E99B58" transform="translate(99,1)"/>
<path d="M0 0 C2.30859375 -0.2109375 2.30859375 -0.2109375 5 0 C6.66015625 1.4609375 6.66015625 1.4609375 8.0625 3.375 C10.14121463 6.17349116 11.77381958 7.62627157 15 9 C15 11.31 15 13.62 15 16 C10.30969751 16.3278658 6.28700906 16.51480362 1.875 14.75 C-1.20243041 10.2364354 -0.37467662 5.29542961 0 0 Z " fill="#465A60" transform="translate(127,50)"/>
<path d="M0 0 C0.33 0.99 0.66 1.98 1 3 C0.34 3.66 -0.32 4.32 -1 5 C-1.50966413 10.88336903 -1.50966413 10.88336903 1 16 C1.804375 16.103125 2.60875 16.20625 3.4375 16.3125 C6 17 6 17 7.6875 19.875 C8.120625 20.90625 8.55375 21.9375 9 23 C9.66 23.99 10.32 24.98 11 26 C6.61309726 29.04646023 6.61309726 29.04646023 3.97998047 28.84692383 C0.00686338 27.14744871 -1.15744603 22.42071841 -2.875 18.6875 C-3.51695313 17.38522461 -3.51695313 17.38522461 -4.171875 16.05664062 C-4.56632812 15.21681641 -4.96078125 14.37699219 -5.3671875 13.51171875 C-5.72925293 12.74303467 -6.09131836 11.97435059 -6.46435547 11.18237305 C-7 9 -7 9 -6.26611328 6.88989258 C-4.49715813 4.24942172 -2.30030641 2.17923765 0 0 Z " fill="#B8C2CC" transform="translate(39,33)"/>
<path d="M0 0 C0 0.66 0 1.32 0 2 C-2 3.625 -2 3.625 -4 5 C-3.52434492 9.12234403 -2.95571265 12.34933639 -1 16 C-1 16.99 -1 17.98 -1 19 C-2.98 19.66 -4.96 20.32 -7 21 C-7.84761822 19.29870914 -8.6774868 17.58856916 -9.5 15.875 C-9.9640625 14.92367188 -10.428125 13.97234375 -10.90625 12.9921875 C-12.10003395 9.7263357 -12.39709845 7.44797677 -12 4 C-8.08275382 0.45582489 -5.23065471 -0.49815759 0 0 Z " fill="#F6AD75" transform="translate(12,0)"/>
<path d="M0 0 C3.63 0 7.26 0 11 0 C11 4.29 11 8.58 11 13 C7.37 13 3.74 13 0 13 C0 8.71 0 4.42 0 0 Z " fill="#FD9B02" transform="translate(99,197)"/>
<path d="M0 0 C0 0.66 0 1.32 0 2 C-0.99 2.66 -1.98 3.32 -3 4 C-2.58846263 8.97093824 -2.20399168 13.44508386 0 18 C-0.804375 18.28875 -1.60875 18.5775 -2.4375 18.875 C-5.1326468 19.73262568 -5.1326468 19.73262568 -6 22 C-7.06383493 19.77916946 -8.10059089 17.55143781 -9.125 15.3125 C-9.42792969 14.68666016 -9.73085937 14.06082031 -10.04296875 13.41601562 C-11.43661853 10.32081669 -12.12022744 8.50592818 -11.32421875 5.15625 C-8.59071435 0.70523399 -5.04821046 -0.43270375 0 0 Z " fill="#D88C56" transform="translate(19,103)"/>
<path d="M0 0 C0 0.66 0 1.32 0 2 C-2 3.625 -2 3.625 -4 5 C-3.44600983 8.97026289 -2.50059058 12.29854325 -1 16 C-1 16.99 -1 17.98 -1 19 C-2.98 19.33 -4.96 19.66 -7 20 C-7.8709379 18.27921959 -8.72114558 16.54793677 -9.5625 14.8125 C-10.27599609 13.36810547 -10.27599609 13.36810547 -11.00390625 11.89453125 C-12.11325969 8.67088067 -12.14965165 7.18197424 -11 4 C-7.34972742 0.93045261 -4.80536311 -0.56533684 0 0 Z " fill="#E99A5A" transform="translate(55,58)"/>
<path d="M0 0 C2.75 0.5625 2.75 0.5625 3.98046875 2.2421875 C4.79734643 3.68560243 5.60838923 5.13233253 6.4140625 6.58203125 C8.31553975 9.40088788 10.621992 10.39859005 13.75 11.5625 C13.75 11.8925 13.75 12.2225 13.75 12.5625 C8.8 12.5625 3.85 12.5625 -1.25 12.5625 C-4.25 6.5625 -4.25 6.5625 -4 3.75 C-3.02483995 0.90578318 -2.92564936 0.73141234 0 0 Z " fill="#495B60" transform="translate(48.25,147.4375)"/>
<path d="M0 0 C0.66 0 1.32 0 2 0 C4.97 6.6 7.94 13.2 11 20 C8 22 8 22 5 22 C3.79525057 19.61153168 2.61135042 17.21609848 1.4375 14.8125 C1.09525391 14.13896484 0.75300781 13.46542969 0.40039062 12.77148438 C-1.1210087 9.62111204 -2.05298263 7.68133808 -1.77734375 4.13671875 C-1 2 -1 2 0 0 Z " fill="#8CC62A" transform="translate(107,43)"/>
<path d="M0 0 C5 1 5 1 6.8125 2.0625 C8.74247853 5.21141234 8.64592135 8.4722757 8 12 C6.25 14.5 6.25 14.5 4 16 C2.68 16 1.36 16 0 16 C0 10.72 0 5.44 0 0 Z " fill="#F3A96A" transform="translate(122,92)"/>
<path d="M0 0 C5 1 5 1 6.8125 2.6875 C8.3863876 5.75243901 8.48701495 7.59089535 8 11 C6.25 13.875 6.25 13.875 4 16 C2.68 16 1.36 16 0 16 C0 10.72 0 5.44 0 0 Z " fill="#FCBC86" transform="translate(79,34)"/>
<path d="M0 0 C0.05429959 1.74965358 0.09292823 3.49979787 0.125 5.25 C0.14820313 6.22453125 0.17140625 7.1990625 0.1953125 8.203125 C-0.00137219 11.0196498 -0.55431084 12.60949036 -2 15 C-4 15 -4 15 -5.875 13.1875 C-6.57625 12.465625 -7.2775 11.74375 -8 11 C-9.31558703 9.97676564 -10.64377755 8.96873032 -12 8 C-11.195625 7.21625 -10.39125 6.4325 -9.5625 5.625 C-7.01309583 3.28017144 -7.01309583 3.28017144 -6 1 C-2 0 -2 0 0 0 Z " fill="#5E6F76" transform="translate(170,49)"/>
<path d="M0 0 C1.65 0 3.3 0 5 0 C5.350625 1.0725 5.70125 2.145 6.0625 3.25 C7.93898874 7.74082015 10.70074169 8.97204797 15 11 C15 11.33 15 11.66 15 12 C10.05 12 5.1 12 0 12 C0 8.04 0 4.08 0 0 Z " fill="#F1C40A" transform="translate(120,148)"/>
<path d="M0 0 C0 5.28 0 10.56 0 16 C-1.65 15.67 -3.3 15.34 -5 15 C-7.14304046 11.7854393 -7.47210474 9.77071584 -7.39453125 5.94140625 C-7 4 -7 4 -4.625 1.5 C-2 0 -2 0 0 0 Z " fill="#F5A86C" transform="translate(44,34)"/>
<path d="M0 0 C0 4.95 0 9.9 0 15 C-5 14 -5 14 -7 12 C-7.30078125 9.94140625 -7.30078125 9.94140625 -7.3125 7.5625 C-7.32925781 6.78003906 -7.34601563 5.99757812 -7.36328125 5.19140625 C-7 3 -7 3 -5.73046875 1.21484375 C-4 0 -4 0 0 0 Z " fill="#F4A86C" transform="translate(124,133)"/>
<path d="M0 0 C1.32 0 2.64 0 4 0 C4.05422947 1.4370809 4.09289723 2.87475462 4.125 4.3125 C4.14820313 5.11300781 4.17140625 5.91351563 4.1953125 6.73828125 C4 9 4 9 2 12 C-1.0390625 12.29296875 -1.0390625 12.29296875 -4.625 12.1875 C-5.81351563 12.16042969 -7.00203125 12.13335937 -8.2265625 12.10546875 C-9.14179688 12.07066406 -10.05703125 12.03585938 -11 12 C-10 10 -10 10 -7.1875 8.8125 C-3.0157356 6.44032024 -2.08564832 4.25151388 0 0 Z " fill="#FDD305" transform="translate(159,148)"/>
<path d="M0 0 C2.65171248 2.37094293 4.1490052 4.83568087 5.75 8 C6.19859375 8.86625 6.6471875 9.7325 7.109375 10.625 C8 13 8 13 7 16 C6.62875 15.505 6.2575 15.01 5.875 14.5 C4.0171668 12.75742715 4.0171668 12.75742715 1.125 12.5625 C-2.64875512 13.09082572 -4.26191346 14.42297737 -7 17 C-5.24009216 11.08030998 -2.60305395 5.58365008 0 0 Z " fill="#B6C0CA" transform="translate(104,49)"/>
<path d="M0 0 C3.96 0 7.92 0 12 0 C12.33 1.65 12.66 3.3 13 5 C10.00261059 6.99825961 9.36652492 7.27550398 6 7.25 C5.319375 7.25515625 4.63875 7.2603125 3.9375 7.265625 C2 7 2 7 -1 5 C-0.67 3.35 -0.34 1.7 0 0 Z " fill="#D98B56" transform="translate(99,106)"/>
<path d="M0 0 C3.96 0 7.92 0 12 0 C12.33 1.32 12.66 2.64 13 4 C11.84765625 5.73046875 11.84765625 5.73046875 10 7 C7.80859375 7.36328125 7.80859375 7.36328125 5.4375 7.3125 C4.65246094 7.30863281 3.86742187 7.30476562 3.05859375 7.30078125 C1 7 1 7 -1 5 C-0.67 3.35 -0.34 1.7 0 0 Z " fill="#D88B57" transform="translate(136,146)"/>
<path d="M0 0 C3.96 0 7.92 0 12 0 C12.33 1.65 12.66 3.3 13 5 C10.58513057 7.41486943 9.87292211 7.2961925 6.5625 7.3125 C5.38880859 7.33763672 5.38880859 7.33763672 4.19140625 7.36328125 C2 7 2 7 0.15234375 5.73046875 C-0.22792969 5.15941406 -0.60820313 4.58835938 -1 4 C-0.67 2.68 -0.34 1.36 0 0 Z " fill="#BC5E4C" transform="translate(62,146)"/>
<path d="M0 0 C1.32 0 2.64 0 4 0 C4.93423645 3.01031744 5.04449911 3.86650268 4 7 C4.185625 7.680625 4.37125 8.36125 4.5625 9.0625 C4.706875 9.701875 4.85125 10.34125 5 11 C4.34 11.66 3.68 12.32 3 13 C0.57872051 12.76568263 -0.81176163 12.12981957 -2.8125 10.75 C-4 9 -4 9 -3.875 6.5625 C-2.93187089 3.80047903 -2.06601173 2.06601173 0 0 Z " fill="#D98C57" transform="translate(140,132)"/>
<path d="M0 0 C1.32 0 2.64 0 4 0 C4.93423645 3.01031744 5.04449911 3.86650268 4 7 C4.38932856 9.14255793 4.38932856 9.14255793 5 11 C3.02 11.99 3.02 11.99 1 13 C-0.65 11.68 -2.3 10.36 -4 9 C-3.47679633 5.23293356 -2.72611199 2.72611199 0 0 Z " fill="#D98C58" transform="translate(60,34)"/>
<path d="M0 0 C3.96 0 7.92 0 12 0 C12.33 1.65 12.66 3.3 13 5 C9.20034921 7.53310053 6.45613438 7.60218032 2 7 C-0.0625 5.75 -0.0625 5.75 -1 4 C-0.67 2.68 -0.34 1.36 0 0 Z " fill="#BB5E4C" transform="translate(142,48)"/>
<path d="M0 0 C3.96 0 7.92 0 12 0 C13 4 13 4 12.0625 5.75 C8.90026232 7.66650769 5.60938272 7.56032756 2 7 C1.01 6.34 0.02 5.68 -1 5 C-0.67 3.35 -0.34 1.7 0 0 Z " fill="#D88B56" transform="translate(56,48)"/>
<path d="M0 0 C1.1446875 0.3403125 1.1446875 0.3403125 2.3125 0.6875 C2.126875 1.595 1.94125 2.5025 1.75 3.4375 C1.35515379 6.37064324 1.36558428 7.9519657 2.3125 10.6875 C0.3325 11.6775 0.3325 11.6775 -1.6875 12.6875 C-3.6875 11.625 -3.6875 11.625 -5.6875 9.6875 C-6.12854161 6.15916713 -6.34551422 3.79573448 -4.5 0.6875 C-2.6875 -0.3125 -2.6875 -0.3125 0 0 Z " fill="#D88B56" transform="translate(105.6875,92.3125)"/>
<path d="M0 0 C1.65 0.33 3.3 0.66 5 1 C5 4.63 5 8.26 5 12 C1 13 1 13 -0.75 12 C-2.64703032 8.96475149 -2.31226309 6.49734661 -2 3 C-1.34 2.01 -0.68 1.02 0 0 Z " fill="#BC5E4C" transform="translate(66,132)"/>
<path d="M0 0 C1.32 0.33 2.64 0.66 4 1 C4 4.3 4 7.6 4 11 C0 12 0 12 -2.25 10.875 C-4 9 -4 9 -4.5 6.5625 C-3.84561903 3.20879751 -2.75064627 1.98657786 0 0 Z " fill="#BC5E4C" transform="translate(147,35)"/>
<path d="M0 0 C1.15224028 0.92961422 2.29659176 1.8690125 3.4375 2.8125 C4.07558594 3.33457031 4.71367187 3.85664062 5.37109375 4.39453125 C7 6 7 6 8 9 C6.93797752 11.64782172 5.82570625 14.13967722 4.5625 16.6875 C4.22412109 17.38939453 3.88574219 18.09128906 3.53710938 18.81445312 C2.70018652 20.54723706 1.85122607 22.27419752 1 24 C0.67 24 0.34 24 0 24 C-0.25 16.375 -0.25 16.375 2 13 C2.37167184 10.23979004 2.17850636 7.81147524 2 5 C1.34 4.34 0.68 3.68 0 3 C0 2.01 0 1.02 0 0 Z " fill="#B6C3C9" transform="translate(170,33)"/>
<path d="M0 0 C2.31 0 4.62 0 7 0 C7.04898438 0.71027344 7.09796875 1.42054688 7.1484375 2.15234375 C7.22320312 3.07144531 7.29796875 3.99054688 7.375 4.9375 C7.44460937 5.85402344 7.51421875 6.77054688 7.5859375 7.71484375 C7.72257812 8.46894531 7.85921875 9.22304687 8 10 C8.66 10.33 9.32 10.66 10 11 C8.68 12.65 7.36 14.3 6 16 C4.9955866 13.7101766 3.99632388 11.4183401 3 9.125 C2.71382812 8.47402344 2.42765625 7.82304687 2.1328125 7.15234375 C0 2.2265625 0 2.2265625 0 0 Z " fill="#BE614C" transform="translate(37,137)"/>
<path d="M0 0 C2.64 0.33 5.28 0.66 8 1 C8.36923077 7.52307692 8.36923077 7.52307692 6.5 9.9375 C6.005 10.288125 5.51 10.63875 5 11 C1.125 9.25 1.125 9.25 0 7 C-0.04022391 4.6670134 -0.04320247 2.33293334 0 0 Z " fill="#D88A54" transform="translate(67,158)"/>
<path d="M0 0 C2.31 0.33 4.62 0.66 7 1 C7 3.64 7 6.28 7 9 C5.02 9.99 5.02 9.99 3 11 C2.01 10.34 1.02 9.68 0 9 C-0.29296875 6.8359375 -0.29296875 6.8359375 -0.1875 4.375 C-0.16042969 3.55773437 -0.13335937 2.74046875 -0.10546875 1.8984375 C-0.05326172 0.95871094 -0.05326172 0.95871094 0 0 Z " fill="#FDBC85" transform="translate(141,158)"/>
<path d="M0 0 C2 0.9375 2 0.9375 3.25 3.625 C3.98252613 6.86032373 4.15729036 9.63440238 4 12.9375 C2.35 12.6075 0.7 12.2775 -1 11.9375 C-1.99 8.3075 -2.98 4.6775 -4 0.9375 C-2 -0.0625 -2 -0.0625 0 0 Z " fill="#F6AA6F" transform="translate(105,3.0625)"/>
<path d="M0 0 C2.53085304 1.73775139 2.71422938 2.86926348 3.26953125 5.84375 C3.43066406 6.6378125 3.59179688 7.431875 3.7578125 8.25 C3.95703125 10.34375 3.95703125 10.34375 2.95703125 12.34375 C0.58203125 11.96875 0.58203125 11.96875 -2.04296875 10.34375 C-3.12305658 7.06549346 -3.62027106 3.76318506 -4.04296875 0.34375 C-2.04296875 -0.65625 -2.04296875 -0.65625 0 0 Z " fill="#E89B58" transform="translate(149.04296875,61.65625)"/>
<path d="M0 0 C0.66 0.33 1.32 0.66 2 1 C0.02 5.29 -1.96 9.58 -4 14 C-6.40785992 10.7895201 -7.68197635 8.64991166 -9 5 C-7.54735962 4.1361871 -6.0876837 3.28419546 -4.625 2.4375 C-3.40683594 1.72400391 -3.40683594 1.72400391 -2.1640625 0.99609375 C-1.44992188 0.66738281 -0.73578125 0.33867187 0 0 Z " fill="#8FC42C" transform="translate(101,16)"/>
<path d="M0 0 C1.98 0 3.96 0 6 0 C6.1953125 2.01822917 6.390625 4.03645833 6.5859375 6.0546875 C6.86374749 8.22668245 6.86374749 8.22668245 9 10 C3.63157895 10.35789474 3.63157895 10.35789474 1.125 8.9375 C-0.58196395 5.99772876 -0.18799766 3.32129197 0 0 Z " fill="#F4A96D" transform="translate(135,159)"/>
<path d="M0 0 C1.98 0 3.96 0 6 0 C6.12375 1.093125 6.2475 2.18625 6.375 3.3125 C6.75464801 7.07381802 6.75464801 7.07381802 9 10 C2.25 9.25 2.25 9.25 0 7 C-0.125 3.375 -0.125 3.375 0 0 Z " fill="#E59B5C" transform="translate(98,119)"/>
<path d="M0 0 C1.98 0 3.96 0 6 0 C2.04 8.91 2.04 8.91 -2 18 C-2.33 18 -2.66 18 -3 18 C-3.1953125 11.9453125 -3.1953125 11.9453125 -3 10 C-2.34 9.34 -1.68 8.68 -1 8 C-0.54188325 6.02764667 -0.54188325 6.02764667 -0.375 3.875 C-0.25125 2.59625 -0.1275 1.3175 0 0 Z " fill="#C16A53" transform="translate(166,137)"/>
<path d="M0 0 C1.65 0 3.3 0 5 0 C5.48828125 2.01822917 5.9765625 4.03645833 6.46484375 6.0546875 C6.94846992 8.0585657 6.94846992 8.0585657 8 10 C5.125 10.125 5.125 10.125 2 10 C0 8 0 8 -0.1953125 6.0546875 C-0.13020833 4.03645833 -0.06510417 2.01822917 0 0 Z " fill="#C57B43" transform="translate(62,159)"/>
<path d="M0 0 C3.53571429 0.53571429 3.53571429 0.53571429 5 2 C5.1875 4.4375 5.1875 4.4375 5 7 C4.34 7.66 3.68 8.32 3 9 C-0.53571429 8.46428571 -0.53571429 8.46428571 -2 7 C-2.1875 4.5625 -2.1875 4.5625 -2 2 C-1.34 1.34 -0.68 0.68 0 0 Z " fill="#DB8F5A" transform="translate(113,90)"/>
<path d="M0 0 C0.99 0 1.98 0 3 0 C5.28571429 8.42857143 5.28571429 8.42857143 5 13 C3.68 12.67 2.36 12.34 1 12 C-0.47075246 7.58774263 -1.36884358 4.51718381 0 0 Z " fill="#FABC88" transform="translate(182,102)"/>
<path d="M0 0 C2.125 0.9375 2.125 0.9375 4 2 C4 3.98 4 5.96 4 8 C2.34385343 8.38218767 0.67542976 8.71395102 -1 9 C-2 8 -2 8 -2.0625 4.4375 C-2.041875 3.303125 -2.02125 2.16875 -2 1 C-1.34 0.67 -0.68 0.34 0 0 Z " fill="#BD5F4C" transform="translate(157,32)"/>
<path d="M0 0 C2.125 0.375 2.125 0.375 4 1 C4 3.31 4 5.62 4 8 C2.34385343 8.38218767 0.67542976 8.71395102 -1 9 C-2 8 -2 8 -2.1875 5.0625 C-2 2 -2 2 0 0 Z " fill="#DA8D59" transform="translate(70,32)"/>
<path d="M0 0 C2.125 0.375 2.125 0.375 4 1 C4 3.31 4 5.62 4 8 C2.34385343 8.38218767 0.67542976 8.71395102 -1 9 C-2 8 -2 8 -2.1875 5.0625 C-2 2 -2 2 0 0 Z " fill="#D98C57" transform="translate(51,32)"/>
<path d="M0 0 C2.125 0.375 2.125 0.375 4 1 C4 3.31 4 5.62 4 8 C2.125 8.625 2.125 8.625 0 9 C-2 7 -2 7 -2.25 4.5 C-2 2 -2 2 0 0 Z " fill="#D98C56" transform="translate(94,90)"/>
<path d="M0 0 C1.66611905 -0.042721 3.33382885 -0.04063832 5 0 C6 1 6 1 6.0625 4.0625 C6.041875 5.031875 6.02125 6.00125 6 7 C4.34385343 7.38218767 2.67542976 7.71395102 1 8 C0 7 0 7 -0.0625 3.4375 C-0.041875 2.303125 -0.02125 1.16875 0 0 Z " fill="#BC5F4C" transform="translate(136,33)"/>
<path d="M0 0 C1.67542976 0.28604898 3.34385343 0.61781233 5 1 C5 2.98 5 4.96 5 7 C3.34385343 7.38218767 1.67542976 7.71395102 0 8 C-1 7 -1 7 -1.125 4 C-1 1 -1 1 0 0 Z " fill="#D88B57" transform="translate(149,131)"/>
<path d="M0 0 C1.67542976 0.28604898 3.34385343 0.61781233 5 1 C5 2.98 5 4.96 5 7 C3.34385343 7.38218767 1.67542976 7.71395102 0 8 C-1 7 -1 7 -1.125 4 C-1 1 -1 1 0 0 Z " fill="#D88A55" transform="translate(130,131)"/>
<path d="M0 0 C1.67542976 0.28604898 3.34385343 0.61781233 5 1 C5 2.98 5 4.96 5 7 C3.34385343 7.38218767 1.67542976 7.71395102 0 8 C-1 7 -1 7 -1.125 4 C-1 1 -1 1 0 0 Z " fill="#BB5E4C" transform="translate(76,131)"/>
<path d="M0 0 C1.67542976 0.28604898 3.34385343 0.61781233 5 1 C5 2.98 5 4.96 5 7 C3.34385343 7.38218767 1.67542976 7.71395102 0 8 C-1 7 -1 7 -1.125 4 C-1 1 -1 1 0 0 Z " fill="#BC5E4C" transform="translate(57,131)"/>
<path d="M0 0 C0.99 0 1.98 0 3 0 C3.35233003 4.22796038 2.55682984 5.72725781 0 9 C-0.71433121 11.64934822 -0.71433121 11.64934822 -1 14 C-3 12 -3 12 -3.3125 9.25 C-2.9586728 5.57019712 -1.82157417 3.18775479 0 0 Z " fill="#90C636" transform="translate(122,108)"/>
<path d="M0 0 C1.32 0.33 2.64 0.66 4 1 C4.33 4.3 4.66 7.6 5 11 C1 10 1 10 0 9 C-0.07179964 7.48071962 -0.08392007 5.95832518 -0.0625 4.4375 C-0.05347656 3.61121094 -0.04445312 2.78492188 -0.03515625 1.93359375 C-0.02355469 1.29550781 -0.01195312 0.65742187 0 0 Z " fill="#C47C43" transform="translate(142,60)"/>
<path d="M0 0 C0.721875 0.763125 1.44375 1.52625 2.1875 2.3125 C4.69948618 4.71284235 7.00875481 6.29071704 10 8 C10 8.33 10 8.66 10 9 C6.7 9 3.4 9 0 9 C0 6.03 0 3.06 0 0 Z " fill="#FED305" transform="translate(125,151)"/>
<path d="M0 0 C2.475 0.99 2.475 0.99 5 2 C5 4.31 5 6.62 5 9 C1.7 9 -1.6 9 -5 9 C-5 8.67 -5 8.34 -5 8 C-1.535 7.505 -1.535 7.505 2 7 C1.34 6.01 0.68 5.02 0 4 C0 2.68 0 1.36 0 0 Z " fill="#626D68" transform="translate(137,57)"/>
<path d="M0 0 C1.32 0 2.64 0 4 0 C4 2.64 4 5.28 4 8 C2.02 8.99 2.02 8.99 0 10 C-1.231394 6.30581799 -0.64432764 3.7943739 0 0 Z " fill="#FEBB85" transform="translate(64,61)"/>
<path d="M0 0 C1.65 0 3.3 0 5 0 C3.515 3.465 3.515 3.465 2 7 C1.34 6.67 0.68 6.34 0 6 C0 4.02 0 2.04 0 0 Z " fill="#B4664B" transform="translate(167,137)"/>
<path d="M0 0 C3.465 1.485 3.465 1.485 7 3 C7 3.66 7 4.32 7 5 C4.69 5 2.38 5 0 5 C0 3.35 0 1.7 0 0 Z " fill="#B6C3CE" transform="translate(91,115)"/>
<path d="M0 0 C0 1.65 0 3.3 0 5 C-2.31 5 -4.62 5 -7 5 C-7 4.34 -7 3.68 -7 3 C-1.125 0 -1.125 0 0 0 Z " fill="#B6C3CE" transform="translate(119,115)"/>
</svg>
