<?xml version="1.0" encoding="UTF-8"?>
<svg version="1.1" xmlns="http://www.w3.org/2000/svg" width="210" height="210">
<path d="M0 0 C4.52127062 0.71388483 5.66604904 2.085394 8.5625 5.5625 C9.63330078 8.57006836 9.63330078 8.57006836 10.2578125 11.90234375 C10.61939453 13.74602539 10.61939453 13.74602539 10.98828125 15.62695312 C11.33439453 17.54411133 11.33439453 17.54411133 11.6875 19.5 C12.16878906 22.00920704 12.65055895 24.5183219 13.1328125 27.02734375 C13.36436035 28.26774414 13.5959082 29.50814453 13.83447266 30.78613281 C14.7904929 35.74512715 15.87148635 40.67330695 16.97070312 45.60229492 C18.87400693 55.12273991 16.48967714 64.2133966 14.5625 73.5625 C15.04493164 72.79957642 15.04493164 72.79957642 15.53710938 72.02124023 C17.03277376 69.67239639 18.54741653 67.33636068 20.0625 65 C20.5678125 64.20013672 21.073125 63.40027344 21.59375 62.57617188 C26.93821583 54.39245857 33.56941912 48.94148004 41.75 43.75 C48.00740188 39.68813617 53.91284281 35.32425118 59.7578125 30.69140625 C66.53846199 25.54453442 66.53846199 25.54453442 71.125 25.625 C74.95967502 26.67082046 76.41994848 27.22011962 78.5625 30.5625 C78.9147132 36.6581755 78.07574246 42.18848507 76.83984375 48.14453125 C76.65668106 49.03935715 76.47351837 49.93418304 76.2848053 50.85612488 C75.8949669 52.74038656 75.50055513 54.62370725 75.10180664 56.50610352 C74.50477037 59.352259 73.94054814 62.20370245 73.37695312 65.05664062 C71.28293968 75.23091994 69.12510159 83.3037945 62.5625 91.5625 C61.9025 92.5525 61.2425 93.5425 60.5625 94.5625 C61.34367188 93.89863281 62.12484375 93.23476562 62.9296875 92.55078125 C73.8215856 83.99967872 84.98199972 82.15439751 98.43066406 80.08154297 C103.6352894 79.2189741 108.74762854 77.98839584 113.8684082 76.72900391 C118.18332337 75.71429109 122.13340688 75.23762764 126.5625 75.5625 C129.5 77.625 129.5 77.625 131.5625 80.5625 C132.20145099 85.63759644 131.450738 88.51641471 128.4140625 92.64648438 C127.96804687 93.21689453 127.52203125 93.78730469 127.0625 94.375 C126.60617188 94.98537109 126.14984375 95.59574219 125.6796875 96.22460938 C122.43433648 100.53512448 119.05508778 104.73990803 115.63671875 108.9140625 C112.64167214 112.73824631 109.87755747 116.72320478 107.15039062 120.7421875 C102.30413389 127.72206626 95.69209699 131.49278492 88.625 135.9375 C86.6366695 137.19523464 84.64838965 138.45304936 82.66015625 139.7109375 C81.6458252 140.3512793 80.63149414 140.99162109 79.58642578 141.65136719 C76.71977006 143.46310471 73.85691229 145.28062475 70.99609375 147.1015625 C69.64668701 147.95995728 69.64668701 147.95995728 68.27001953 148.83569336 C66.46537849 149.98666054 64.66296197 151.14112308 62.86279297 152.29907227 C58.06812051 155.37508676 53.23979364 158.35873428 48.32421875 161.23828125 C47.30779297 161.84736328 46.29136719 162.45644531 45.24414062 163.08398438 C43.29537928 164.2496818 41.33222377 165.39175196 39.35351562 166.50585938 C34.52603095 169.18623214 34.52603095 169.18623214 31.99072266 173.77099609 C31.92684009 175.32136444 31.88435228 176.872769 31.86376953 178.42431641 C31.48542154 181.10954467 30.75190553 181.88789687 28.73046875 183.66015625 C27.3696652 184.66732423 25.97607526 185.6308463 24.5625 186.5625 C23.69447754 187.14112793 22.82645508 187.71975586 21.93212891 188.31591797 C18.93927136 190.25587393 15.91437313 192.13385148 12.875 194 C11.86244141 194.62970703 10.84988281 195.25941406 9.80664062 195.90820312 C6.73548724 197.81032422 3.65217228 199.69062638 0.5625 201.5625 C-0.50943604 202.21629639 -1.58137207 202.87009277 -2.68579102 203.54370117 C-3.73307373 204.17123291 -4.78035645 204.79876465 -5.859375 205.4453125 C-6.79749023 206.01008301 -7.73560547 206.57485352 -8.70214844 207.15673828 C-17.49209094 211.67409717 -29.17929972 211.87836139 -38.625 209.4375 C-46.89842674 206.61850357 -53.03843266 201.08201304 -57.4375 193.5625 C-58.09765625 191.3203125 -58.09765625 191.3203125 -58.4375 189.5625 C-59.736875 189.5625 -61.03625 189.5625 -62.375 189.5625 C-68.57417756 188.89549988 -72.53084128 185.22075691 -76.4375 180.5625 C-81.31889851 170.05508287 -77.51002408 157.31154752 -75.61157227 146.38037109 C-75.1217646 143.54376293 -74.65492003 140.70397322 -74.18945312 137.86328125 C-73.88157845 136.05445376 -73.57238153 134.24585072 -73.26171875 132.4375 C-73.12408615 131.5906665 -72.98645355 130.74383301 -72.84465027 129.87133789 C-72.7047316 129.08621826 -72.56481293 128.30109863 -72.4206543 127.4921875 C-72.30296188 126.80366699 -72.18526947 126.11514648 -72.06401062 125.40576172 C-71.30522746 123.17333993 -70.19637271 122.0962082 -68.4375 120.5625 C-67.1175 121.2225 -65.7975 121.8825 -64.4375 122.5625 C-65.22802317 130.71550759 -66.25780773 138.77442726 -67.75390625 146.83203125 C-67.98827393 148.1053833 -68.2226416 149.37873535 -68.46411133 150.69067383 C-68.93972979 153.23634822 -69.43004331 155.77932879 -69.9362793 158.3190918 C-71.25595762 165.41337995 -71.78479874 170.67709037 -69.4375 177.5625 C-66.58707329 180.56294917 -64.39454352 181.68689888 -60.4375 182.5625 C-60.47012939 181.91015381 -60.50275879 181.25780762 -60.53637695 180.58569336 C-60.77443674 171.69888365 -59.53536124 163.27598556 -58.03881836 154.55102539 C-57.62197262 152.1072519 -57.22716539 149.66057057 -56.83398438 147.21289062 C-56.57161601 145.64301076 -56.30798952 144.07334052 -56.04296875 142.50390625 C-55.92720993 141.77990128 -55.81145111 141.0558963 -55.69218445 140.30995178 C-54.96434636 136.17208631 -54.0706732 132.88107907 -51.4375 129.5625 C-47.75 128.75 -47.75 128.75 -44.4375 128.5625 C-44.32647949 127.25240967 -44.21545898 125.94231934 -44.10107422 124.5925293 C-43.34237306 117.03919179 -42.05812807 109.56810298 -40.8203125 102.08203125 C-40.5598663 100.49883843 -40.29943981 98.91564237 -40.03903198 97.33244324 C-39.49509208 94.03152361 -38.94827955 90.73109336 -38.39990234 87.4309082 C-37.70015687 83.21602233 -37.01171537 78.99937225 -36.32589912 74.78220081 C-35.79315151 71.51856778 -35.25235776 68.25630462 -34.70937729 64.99435997 C-34.452089 63.44041981 -34.19773872 61.88599005 -33.94647598 60.33106422 C-33.59405105 58.15515937 -33.23026543 55.98143429 -32.86376953 53.80786133 C-32.55851852 51.95781242 -32.55851852 51.95781242 -32.24710083 50.07038879 C-30.9421366 44.41615867 -28.550544 39.50581572 -25.58203125 34.5234375 C-25.04570068 33.61899902 -24.50937012 32.71456055 -23.95678711 31.78271484 C-23.39354736 30.84379395 -22.83030762 29.90487305 -22.25 28.9375 C-21.67064697 27.96635254 -21.09129395 26.99520508 -20.49438477 25.99462891 C-19.34069527 24.06404358 -18.1847464 22.13480633 -17.02636719 20.20703125 C-15.66016108 17.93310001 -14.30164804 15.65482215 -12.9453125 13.375 C-12.25604686 12.22866206 -11.56602285 11.08277953 -10.875 9.9375 C-10.29621094 8.97585938 -9.71742187 8.01421875 -9.12109375 7.0234375 C-6.43092196 3.09116783 -4.80773484 0.78672025 0 0 Z " fill="#E571A6" transform="translate(78.4375,-0.5625)"/>
<path d="M0 0 C2.4375 1.5625 2.4375 1.5625 4 4 C4.3522132 10.0956755 3.51324246 15.62598507 2.27734375 21.58203125 C2.09418106 22.47685715 1.91101837 23.37168304 1.7223053 24.29362488 C1.3324669 26.17788656 0.93805513 28.06120725 0.53930664 29.94360352 C-0.05772963 32.789759 -0.62195186 35.64120245 -1.18554688 38.49414062 C-3.27956032 48.66841994 -5.43739841 56.7412945 -12 65 C-12.66 65.99 -13.32 66.98 -14 68 C-13.21882813 67.33613281 -12.43765625 66.67226562 -11.6328125 65.98828125 C-0.7409144 57.43717872 10.41949972 55.59189751 23.86816406 53.51904297 C29.0727894 52.6564741 34.18512854 51.42589584 39.3059082 50.16650391 C43.62082337 49.15179109 47.57090688 48.67512764 52 49 C54.9375 51.0625 54.9375 51.0625 57 54 C57.63895099 59.07509644 56.888238 61.95391471 53.8515625 66.08398438 C53.40554687 66.65439453 52.95953125 67.22480469 52.5 67.8125 C52.04367188 68.42287109 51.58734375 69.03324219 51.1171875 69.66210938 C47.87183648 73.97262448 44.49258778 78.17740803 41.07421875 82.3515625 C38.07917214 86.17574631 35.31505747 90.16070478 32.58789062 94.1796875 C27.74163389 101.15956626 21.12959699 104.93028492 14.0625 109.375 C12.0741695 110.63273464 10.08588965 111.89054936 8.09765625 113.1484375 C7.0833252 113.7887793 6.06899414 114.42912109 5.02392578 115.08886719 C2.15727006 116.90060471 -0.70558771 118.71812475 -3.56640625 120.5390625 C-4.46601074 121.11132568 -5.36561523 121.68358887 -6.29248047 122.27319336 C-8.09712151 123.42416054 -9.89953803 124.57862308 -11.69970703 125.73657227 C-16.49437949 128.81258676 -21.32270636 131.79623428 -26.23828125 134.67578125 C-27.25470703 135.28486328 -28.27113281 135.89394531 -29.31835938 136.52148438 C-31.26712072 137.6871818 -33.23027623 138.82925196 -35.20898438 139.94335938 C-40.03646905 142.62373214 -40.03646905 142.62373214 -42.57177734 147.20849609 C-42.63565991 148.75886444 -42.67814772 150.310269 -42.69873047 151.86181641 C-43.07707846 154.54704467 -43.81059447 155.32539687 -45.83203125 157.09765625 C-47.1928348 158.10482423 -48.58642474 159.0683463 -50 160 C-50.86802246 160.57862793 -51.73604492 161.15725586 -52.63037109 161.75341797 C-55.62322864 163.69337393 -58.64812687 165.57135148 -61.6875 167.4375 C-62.70005859 168.06720703 -63.71261719 168.69691406 -64.75585938 169.34570312 C-67.82696028 171.24779172 -70.91294934 173.12393736 -74 175 C-75.09006348 175.6820752 -76.18012695 176.36415039 -77.30322266 177.06689453 C-78.36460449 177.7164209 -79.42598633 178.36594727 -80.51953125 179.03515625 C-81.47577393 179.62820557 -82.4320166 180.22125488 -83.41723633 180.83227539 C-86 182 -86 182 -88.3425293 181.68530273 C-88.88949463 181.45915283 -89.43645996 181.23300293 -90 181 C-89.41992188 180.64808594 -88.83984375 180.29617187 -88.2421875 179.93359375 C-78.59119659 173.83404009 -74.17604704 167.98257086 -71 157 C-69.82191348 151.7476943 -68.97457602 146.43392729 -68.13476562 141.11889648 C-67.74768272 138.67285675 -67.34387684 136.23001051 -66.9375 133.78710938 C-66.68131881 132.21630419 -66.42607671 130.64534549 -66.171875 129.07421875 C-66.05318054 128.35223801 -65.93448608 127.63025726 -65.81219482 126.88639832 C-64.36612274 119.07433424 -64.36612274 119.07433424 -67 112 C-69.05003955 110.80767387 -69.05003955 110.80767387 -71 110 C-69.77466431 99.40264823 -68.23196993 88.89706305 -66.39550781 78.38867188 C-65.99670375 76.10613403 -65.60339202 73.82269984 -65.2109375 71.5390625 C-64.70974615 68.62988116 -64.19839988 65.72280802 -63.67724609 62.81713867 C-63.27408762 60.54483052 -62.88592572 58.26965216 -62.52978516 55.98950195 C-61.55171571 50.15175453 -59.65290356 45.85097479 -56.375 40.9375 C-55.92406982 40.2470459 -55.47313965 39.5565918 -55.00854492 38.84521484 C-48.66007125 29.293857 -41.95149592 22.99438308 -32.3125 16.8359375 C-26.39960695 13.02089889 -20.8060842 8.76653092 -15.1706543 4.55786133 C-14.0091687 3.69197388 -14.0091687 3.69197388 -12.82421875 2.80859375 C-11.78914185 2.03213501 -11.78914185 2.03213501 -10.7331543 1.23999023 C-6.91189812 -1.49393851 -4.56407658 -1.02298268 0 0 Z " fill="#83DEFE" transform="translate(153,26)"/>
<path d="M0 0 C2.9375 2.0625 2.9375 2.0625 5 5 C5.63895099 10.07509644 4.888238 12.95391471 1.8515625 17.08398438 C1.40554687 17.65439453 0.95953125 18.22480469 0.5 18.8125 C0.04367188 19.42287109 -0.41265625 20.03324219 -0.8828125 20.66210938 C-4.12816352 24.97262448 -7.50741222 29.17740803 -10.92578125 33.3515625 C-13.92082786 37.17574631 -16.68494253 41.16070478 -19.41210938 45.1796875 C-24.25836611 52.15956626 -30.87040301 55.93028492 -37.9375 60.375 C-39.9258305 61.63273464 -41.91411035 62.89054936 -43.90234375 64.1484375 C-44.9166748 64.7887793 -45.93100586 65.42912109 -46.97607422 66.08886719 C-49.84272994 67.90060471 -52.70558771 69.71812475 -55.56640625 71.5390625 C-56.46601074 72.11132568 -57.36561523 72.68358887 -58.29248047 73.27319336 C-60.09712151 74.42416054 -61.89953803 75.57862308 -63.69970703 76.73657227 C-68.49437949 79.81258676 -73.32270636 82.79623428 -78.23828125 85.67578125 C-79.76291992 86.5894043 -79.76291992 86.5894043 -81.31835938 87.52148438 C-83.26712072 88.6871818 -85.23027623 89.82925196 -87.20898438 90.94335938 C-92.03646905 93.62373214 -92.03646905 93.62373214 -94.57177734 98.20849609 C-94.63568763 99.75953707 -94.67896496 101.31157126 -94.70117188 102.86376953 C-95.07483809 105.53499449 -95.78302663 106.30261616 -97.79296875 108.06640625 C-99.16724657 109.08333673 -100.57430225 110.05651017 -102 111 C-103.38179443 111.93175049 -103.38179443 111.93175049 -104.79150391 112.88232422 C-107.93626044 114.95033531 -111.11624939 116.95012455 -114.3125 118.9375 C-115.40884766 119.63423828 -116.50519531 120.33097656 -117.63476562 121.04882812 C-118.67955078 121.70173828 -119.72433594 122.35464844 -120.80078125 123.02734375 C-121.75122314 123.62281006 -122.70166504 124.21827637 -123.6809082 124.83178711 C-124.82885864 125.41005249 -124.82885864 125.41005249 -126 126 C-126.66 125.67 -127.32 125.34 -128 125 C-127.36602295 124.21798218 -127.36602295 124.21798218 -126.71923828 123.42016602 C-122.00954235 117.5029056 -117.88288053 111.34570458 -113.875 104.9375 C-113.28074219 103.99583984 -112.68648437 103.05417969 -112.07421875 102.08398438 C-110.91570676 100.24647694 -109.761637 98.40615944 -108.61254883 96.56274414 C-107.57883508 94.91991398 -106.52797714 93.2876746 -105.45581055 91.66967773 C-104.99730713 90.97173096 -104.53880371 90.27378418 -104.06640625 89.5546875 C-103.46227905 88.65532471 -103.46227905 88.65532471 -102.84594727 87.73779297 C-101.34492688 84.65431155 -102.06966963 82.16312326 -103 79 C-103.66 78.01 -104.32 77.02 -105 76 C-102.71948704 72.49261194 -100.42379483 68.99542776 -98.125 65.5 C-97.47402344 64.49839844 -96.82304688 63.49679688 -96.15234375 62.46484375 C-95.52714844 61.51738281 -94.90195313 60.56992188 -94.2578125 59.59375 C-93.6817627 58.71396484 -93.10571289 57.83417969 -92.51220703 56.92773438 C-92.01317871 56.29158203 -91.51415039 55.65542969 -91 55 C-90.34 55 -89.68 55 -89 55 C-88.87488037 54.41009277 -88.74976074 53.82018555 -88.62084961 53.21240234 C-87.6233774 49.65790249 -85.53005092 46.71291578 -83.5625 43.625 C-83.11511475 42.92181641 -82.66772949 42.21863281 -82.20678711 41.49414062 C-80.81421808 39.32299115 -79.40832781 37.16095243 -78 35 C-77.57976562 34.34483398 -77.15953125 33.68966797 -76.7265625 33.01464844 C-71.20603936 24.47453979 -65.75685235 18.46655576 -57 13 C-56.154375 12.32195312 -55.30875 11.64390625 -54.4375 10.9453125 C-49.44730677 8.12131679 -44.36109527 7.44845089 -38.75 6.5 C-36.41494732 6.08174995 -34.08031179 5.66116448 -31.74609375 5.23828125 C-30.60124512 5.03283691 -29.45639648 4.82739258 -28.27685547 4.61572266 C-23.04520305 3.63269275 -17.865419 2.43699373 -12.69628906 1.16796875 C-8.38095 0.15109946 -4.42987371 -0.32492961 0 0 Z " fill="#61DAA9" transform="translate(205,75)"/>
<path d="M0 0 C4.60142496 0.6346793 5.69466718 1.97163394 8.625 5.5 C9.69580078 8.50756836 9.69580078 8.50756836 10.3203125 11.83984375 C10.56136719 13.06896484 10.80242187 14.29808594 11.05078125 15.56445312 C11.39689453 17.48161133 11.39689453 17.48161133 11.75 19.4375 C12.23128906 21.94670704 12.71305895 24.4558219 13.1953125 26.96484375 C13.54190918 28.83438721 13.54190918 28.83438721 13.89550781 30.74169922 C14.62023177 34.47543438 15.45457059 38.17197796 16.3046875 41.87890625 C18.45306498 51.97783312 17.36679198 60.05811603 15.40319824 70.17089844 C14.70081488 73.79275534 14.02602578 77.419731 13.3515625 81.046875 C13.20984619 81.80705933 13.06812988 82.56724365 12.92211914 83.35046387 C10.96510424 93.94295879 9.30652745 104.58573362 7.63037109 115.22558594 C6.49892765 122.37034031 5.32045155 129.4622766 3.625 136.5 C0.655 136.17 -2.315 135.84 -5.375 135.5 C-11.375 121.28640777 -11.375 121.28640777 -11.375 113.5 C-12.365 113.995 -12.365 113.995 -13.375 114.5 C-16.87837981 114.88080215 -18.73778626 114.90245078 -21.75 113 C-25.76822025 106.8181227 -22.67701461 97.14502808 -21.5 90.3125 C-21.23896484 88.71245117 -21.23896484 88.71245117 -20.97265625 87.08007812 C-19.62552545 79.10207018 -19.62552545 79.10207018 -18.33178711 75.99291992 C-17.27676961 73.24405958 -17.07731246 71.09161436 -16.99609375 68.15625 C-16.96193359 67.15722656 -16.92777344 66.15820312 -16.89257812 65.12890625 C-16.86615234 64.09636719 -16.83972656 63.06382813 -16.8125 62 C-16.75229212 59.94780807 -16.68861 57.89571449 -16.62109375 55.84375 C-16.59716553 54.93818359 -16.5732373 54.03261719 -16.54858398 53.09960938 C-16.37436051 50.49042297 -15.94538403 48.04934362 -15.375 45.5 C-16.24511719 45.40912109 -16.24511719 45.40912109 -17.1328125 45.31640625 C-17.91398437 45.23261719 -18.69515625 45.14882813 -19.5 45.0625 C-20.26570313 44.98128906 -21.03140625 44.90007813 -21.8203125 44.81640625 C-24.68827401 44.46120001 -27.5274515 43.99109894 -30.375 43.5 C-6.21774271 0.92114707 -6.21774271 0.92114707 0 0 Z " fill="#F0AACB" transform="translate(78.375,-0.5)"/>
<path d="M0 0 C1.75032844 0.14183696 3.50025534 0.28863429 5.25 0.4375 C6.71179687 0.55931641 6.71179687 0.55931641 8.203125 0.68359375 C10.57171321 0.95154856 12.70376168 1.39583992 15 2 C14.88998376 6.56299068 14.75938389 11.12516706 14.625 15.6875 C14.57859375 17.62786133 14.57859375 17.62786133 14.53125 19.60742188 C14.49257813 20.85458984 14.45390625 22.10175781 14.4140625 23.38671875 C14.3826416 24.53358154 14.3512207 25.68044434 14.31884766 26.86206055 C14.00146462 29.98558591 13.22766088 32.13699349 12 35 C11.12184477 38.90696096 10.51967375 42.86088867 9.875 46.8125 C9.69324219 47.86759766 9.51148438 48.92269531 9.32421875 50.00976562 C7.3101376 59.65401073 7.3101376 59.65401073 9 69 C11.28705831 70.14352916 12.59264762 70.10334439 15.125 70.0625 C16.40375 70.041875 17.6825 70.02125 19 70 C19.81313676 72.9164905 20.6255335 75.83318369 21.4375 78.75 C21.66759766 79.575 21.89769531 80.4 22.13476562 81.25 C22.35712891 82.04921875 22.57949219 82.8484375 22.80859375 83.671875 C23.01282959 84.4050293 23.21706543 85.13818359 23.42749023 85.89355469 C23.9790563 87.92294147 24.49755982 89.95795396 25 92 C26.01320313 92.07347656 26.01320313 92.07347656 27.046875 92.1484375 C27.93890625 92.22320312 28.8309375 92.29796875 29.75 92.375 C30.63171875 92.44460937 31.5134375 92.51421875 32.421875 92.5859375 C35.0512314 93.00822807 36.76337938 93.57050769 39 95 C41.33515692 98.50273538 41.13947892 99.44852627 40.6875 103.5 C40.58824219 104.4590625 40.48898438 105.418125 40.38671875 106.40625 C40 109 40 109 39 112 C32.45901337 112.28834165 26.29447804 111.18819545 19.86328125 110.06640625 C18.7062822 109.86901352 17.54928314 109.67162079 16.35722351 109.46824646 C13.92022254 109.0514304 11.4836906 108.63186384 9.04760742 108.2097168 C5.31590638 107.56309026 1.58292374 106.92434879 -2.15039062 106.28710938 C-4.52091156 105.8806643 -6.89135696 105.47377841 -9.26171875 105.06640625 C-10.37842453 104.87470352 -11.49513031 104.68300079 -12.64567566 104.48548889 C-13.68387955 104.30537766 -14.72208344 104.12526642 -15.79174805 103.93969727 C-17.15906319 103.70320213 -17.15906319 103.70320213 -18.55400085 103.46192932 C-20.73002315 103.05098539 -22.85927494 102.56413516 -25 102 C-24.35793358 89.35793358 -24.35793358 89.35793358 -21 86 C-17.3125 85.1875 -17.3125 85.1875 -14 85 C-13.83564453 83.03921509 -13.83564453 83.03921509 -13.66796875 81.03881836 C-12.9040509 73.43221965 -11.57839292 65.91414032 -10.3125 58.37890625 C-10.0470687 56.78616324 -9.78185434 55.19338407 -9.5168457 53.60057068 C-8.96413446 50.28292673 -8.40918542 46.96566755 -7.85253906 43.64868164 C-7.13914024 39.39682877 -6.43085039 35.14414374 -5.72413635 30.89117527 C-5.17864131 27.61125836 -4.63076136 24.33174342 -4.0821228 21.052351 C-3.81990584 19.48356239 -3.55836564 17.91466051 -3.29751587 16.345644 C-2.93379988 14.16044197 -2.56694634 11.97578979 -2.19921875 9.79125977 C-1.99127686 8.54901138 -1.78333496 7.306763 -1.5690918 6.02687073 C-1 3 -1 3 0 0 Z " fill="#E984B2" transform="translate(48,43)"/>
<path d="M0 0 C0.99 0.66 1.98 1.32 3 2 C3 2.66 3 3.32 3 4 C3.66 4 4.32 4 5 4 C5.33 3.34 5.66 2.68 6 2 C6.48080596 4.99974538 6.95968682 7.99977769 7.4375 11 C7.57220703 11.83917969 7.70691406 12.67835937 7.84570312 13.54296875 C8.66308805 18.68651294 9.3834858 23.82846341 10 29 C7.76422331 30.42276699 5.52829951 31.84529662 3.29174805 33.2668457 C1.32980889 34.51672592 -0.6296277 35.77054224 -2.58666992 37.02807617 C-7.78108973 40.35789626 -12.99966619 43.61226368 -18.32421875 46.73046875 C-19.3282373 47.33165527 -20.33225586 47.9328418 -21.36669922 48.55224609 C-23.29779673 49.70616728 -25.2432674 50.83643983 -27.20361328 51.93994141 C-32.03424722 54.62161406 -32.03424722 54.62161406 -34.57177734 59.20849609 C-34.63568763 60.75953707 -34.67896496 62.31157126 -34.70117188 63.86376953 C-35.07483809 66.53499449 -35.78302663 67.30261616 -37.79296875 69.06640625 C-39.16724657 70.08333673 -40.57430225 71.05651017 -42 72 C-43.38179443 72.93175049 -43.38179443 72.93175049 -44.79150391 73.88232422 C-47.93626044 75.95033531 -51.11624939 77.95012455 -54.3125 79.9375 C-55.40884766 80.63423828 -56.50519531 81.33097656 -57.63476562 82.04882812 C-58.67955078 82.70173828 -59.72433594 83.35464844 -60.80078125 84.02734375 C-61.75122314 84.62281006 -62.70166504 85.21827637 -63.6809082 85.83178711 C-64.82885864 86.41005249 -64.82885864 86.41005249 -66 87 C-66.66 86.67 -67.32 86.34 -68 86 C-67.36602295 85.21798218 -67.36602295 85.21798218 -66.71923828 84.42016602 C-62.00954235 78.5029056 -57.88288053 72.34570458 -53.875 65.9375 C-53.28074219 64.99583984 -52.68648437 64.05417969 -52.07421875 63.08398438 C-50.91570676 61.24647694 -49.761637 59.40615944 -48.61254883 57.56274414 C-47.57883508 55.91991398 -46.52797714 54.2876746 -45.45581055 52.66967773 C-44.99730713 51.97173096 -44.53880371 51.27378418 -44.06640625 50.5546875 C-43.66365479 49.9551123 -43.26090332 49.35553711 -42.84594727 48.73779297 C-41.34492688 45.65431155 -42.06966963 43.16312326 -43 40 C-43.66 39.01 -44.32 38.02 -45 37 C-36.99642982 22.04516491 -19.45699174 -1.42368232 0 0 Z " fill="#3AD49C" transform="translate(145,114)"/>
<path d="M0 0 C2.97 1.65 5.94 3.3 9 5 C8.3348204 9.44509613 7.6106254 13.87856275 6.875 18.3125 C6.68679687 19.57513672 6.49859375 20.83777344 6.3046875 22.13867188 C6.0984375 23.34716797 5.8921875 24.55566406 5.6796875 25.80078125 C5.50163574 26.91622314 5.32358398 28.03166504 5.14013672 29.1809082 C3.59943074 32.99044396 1.66198852 33.34672622 -2 35 C-3.98556799 37.15706953 -3.98556799 37.15706953 -5.54296875 39.7109375 C-6.14173828 40.62617187 -6.74050781 41.54140625 -7.35742188 42.484375 C-7.96134766 43.43828125 -8.56527344 44.3921875 -9.1875 45.375 C-9.80302734 46.32117188 -10.41855469 47.26734375 -11.05273438 48.2421875 C-12.72141241 50.81661602 -14.37349842 53.39873905 -16 56 C-16.55212158 56.86318848 -17.10424316 57.72637695 -17.6730957 58.61572266 C-19.36091802 61.64852353 -19.44618844 63.57922196 -19 67 C-18 69 -18 69 -16 70 C-13.08559301 70.66721536 -13.08559301 70.66721536 -10 70 C-5.21165789 66.43943791 -2.51827175 61.27463416 0.546875 56.23046875 C1.02640625 55.49441406 1.5059375 54.75835937 2 54 C2.33 54 2.66 54 3 54 C3.27589161 58.15808072 3.53099292 62.31448759 3.73828125 66.4765625 C3.87222624 69.11063169 4.0833511 71.65278712 4.41796875 74.2734375 C5.34778792 84.1106548 -0.29473818 90.54240777 -6 98 C-5.484375 98.680625 -4.96875 99.36125 -4.4375 100.0625 C-2.52139872 103.97801132 -2.8730643 105.8085119 -4 110 C-5.38359041 112.76355695 -7.06186726 115.2693775 -8.8125 117.8125 C-9.29517334 118.53590576 -9.77784668 119.25931152 -10.27514648 120.00463867 C-11.83891751 122.34414851 -13.41937167 124.67185431 -15 127 C-16.65888367 129.47175617 -18.3132523 131.94646201 -19.96557617 134.42260742 C-21.01143804 135.98780263 -22.06094842 137.55056749 -23.11450195 139.1105957 C-23.59363037 139.82304443 -24.07275879 140.53549316 -24.56640625 141.26953125 C-24.98865479 141.89448486 -25.41090332 142.51943848 -25.84594727 143.16333008 C-27.05439592 145.00406076 -27.05439592 145.00406076 -27.99829102 147.12451172 C-29.4950232 149.92682627 -31.61593846 150.82201501 -34.375 152.3125 C-35.33148438 152.84488281 -36.28796875 153.37726563 -37.2734375 153.92578125 C-40.14727583 155.05802414 -41.19191053 155.13787512 -44 154 C-43.41992188 153.64808594 -42.83984375 153.29617187 -42.2421875 152.93359375 C-32.59119659 146.83404009 -28.17604704 140.98257086 -25 130 C-23.82191348 124.7476943 -22.97457602 119.43392729 -22.13476562 114.11889648 C-21.74768272 111.67285675 -21.34387684 109.23001051 -20.9375 106.78710938 C-20.68131881 105.21630419 -20.42607671 103.64534549 -20.171875 102.07421875 C-20.05318054 101.35223801 -19.93448608 100.63025726 -19.81219482 99.88639832 C-18.36612274 92.07433424 -18.36612274 92.07433424 -21 85 C-23.05003955 83.80767387 -23.05003955 83.80767387 -25 83 C-23.77466431 72.40264823 -22.23196993 61.89706305 -20.39550781 51.38867188 C-19.99670375 49.10613403 -19.60339202 46.82269984 -19.2109375 44.5390625 C-18.70974453 41.62958801 -18.19807331 38.72229621 -17.67651367 35.81640625 C-17.27419369 33.54680467 -16.88796543 31.27410566 -16.53637695 28.99609375 C-15.54994875 23.04906442 -13.53560891 18.74011225 -10.1875 13.75 C-9.76146484 13.08226563 -9.33542969 12.41453125 -8.89648438 11.7265625 C-6.19612994 7.55960105 -3.24728968 3.7544965 0 0 Z " fill="#5BD5FD" transform="translate(107,53)"/>
<path d="M0 0 C4.5999165 0.63447124 5.69338446 1.97550387 8.625 5.5 C9.69580078 8.47583008 9.69580078 8.47583008 10.3203125 11.76953125 C10.55991699 12.98165283 10.79952148 14.19377441 11.04638672 15.44262695 C11.39467529 17.35821411 11.39467529 17.35821411 11.75 19.3125 C12.00237383 20.62426933 12.25644837 21.93571259 12.51220703 23.24682617 C13.23450056 26.99474782 13.93214997 30.74654217 14.625 34.5 C14.97233915 36.32322588 15.3210601 38.14618971 15.671875 39.96875 C16.343448 43.47556163 16.99406976 46.98560785 17.625 50.5 C11.89802816 50.68920969 6.60444763 49.97063682 0.97265625 48.96875 C0.07252304 48.81337769 -0.82761017 48.65800537 -1.75502014 48.4979248 C-4.60849741 48.00409636 -7.46048169 47.50217863 -10.3125 47 C-12.25576616 46.66222371 -14.19912472 46.32497854 -16.14257812 45.98828125 C-20.88781 45.16499617 -25.63172053 44.33445703 -30.375 43.5 C-6.08124854 0.90092571 -6.08124854 0.90092571 0 0 Z " fill="#EDEBFE" transform="translate(78.375,-0.5)"/>
<path d="M0 0 C2.4375 1.5625 2.4375 1.5625 4 4 C4.33269207 9.85760107 3.58084363 15.03834662 2.28515625 20.734375 C2.10995956 21.53482239 1.93476288 22.33526978 1.7542572 23.15997314 C1.19813239 25.69177728 0.63046524 28.22082883 0.0625 30.75 C-0.31520619 32.46207362 -0.69216615 34.17431205 -1.06835938 35.88671875 C-3.75840342 48.09125394 -3.75840342 48.09125394 -5 53 C-9.1317874 51.531608 -12.48473572 49.49333944 -16.11328125 47.04296875 C-16.68652634 46.6581282 -17.25977142 46.27328766 -17.85038757 45.87678528 C-19.67407302 44.65138405 -21.49344553 43.41976271 -23.3125 42.1875 C-25.70311372 40.57486825 -28.09543257 38.96478191 -30.48828125 37.35546875 C-31.05837921 36.97147919 -31.62847717 36.58748962 -32.21585083 36.19186401 C-36.42236107 33.36627304 -40.67892325 30.64632402 -45 28 C-43.12842363 23.75583895 -40.40365255 22.01636166 -36.5625 19.625 C-29.20438294 14.89798385 -22.17804883 9.79091966 -15.17211914 4.55908203 C-14.39731201 3.9814209 -13.62250488 3.40375977 -12.82421875 2.80859375 C-12.13416748 2.29095459 -11.44411621 1.77331543 -10.7331543 1.23999023 C-6.91189812 -1.49393851 -4.56407658 -1.02298268 0 0 Z " fill="#EDEBFE" transform="translate(153,26)"/>
<path d="M0 0 C2.62220764 3.73465937 2.55606149 5.434339 2.0625 9.9375 C0.6453802 12.46101866 -0.67927143 14.50130983 -2.4375 16.75 C-2.89310303 17.359646 -3.34870605 17.96929199 -3.81811523 18.59741211 C-7.07749011 22.92786281 -10.48289493 27.14162385 -13.91015625 31.33984375 C-17.83019964 36.36263537 -21.36643591 41.66356739 -24.9375 46.9375 C-28.72092175 45.67635942 -29.14807743 44.44034013 -31.1953125 41.08203125 C-31.81720459 40.07269531 -32.43909668 39.06335938 -33.07983398 38.0234375 C-33.73411377 36.94320312 -34.38839355 35.86296875 -35.0625 34.75 C-36.4094771 32.55817624 -37.75713132 30.36676845 -39.10546875 28.17578125 C-39.75950684 27.1079541 -40.41354492 26.04012695 -41.08740234 24.93994141 C-43.46919957 21.07462835 -45.90721109 17.24831378 -48.375 13.4375 C-49.07496094 12.3546875 -49.77492187 11.271875 -50.49609375 10.15625 C-51.20958984 9.05796875 -51.20958984 9.05796875 -51.9375 7.9375 C-48.97356116 5.96154077 -47.33712792 5.44095668 -43.921875 4.75390625 C-42.92470459 4.54983154 -41.92753418 4.34575684 -40.90014648 4.13549805 C-39.83997314 3.92578369 -38.7797998 3.71606934 -37.6875 3.5 C-36.60734619 3.28190674 -35.52719238 3.06381348 -34.41430664 2.83911133 C-32.25148073 2.40292879 -30.08815567 1.96921328 -27.92431641 1.53808594 C-25.36615878 1.02369426 -22.81315373 0.49184567 -20.26171875 -0.0546875 C-18.97910156 -0.32539062 -17.69648438 -0.59609375 -16.375 -0.875 C-15.28058594 -1.10832031 -14.18617188 -1.34164062 -13.05859375 -1.58203125 C-4.19627193 -2.94631859 -4.19627193 -2.94631859 0 0 Z " fill="#ECEBFE" transform="translate(207.9375,77.0625)"/>
<path d="M0 0 C13.74047798 0.98463554 27.43569843 3.82866536 41 6.125 C43.23953203 6.50160728 45.47911504 6.87791153 47.71875 7.25390625 C53.14642518 8.16578317 58.57346238 9.08137905 64 10 C63.69268013 12.64653131 63.37940678 15.292115 63.0625 17.9375 C62.97548828 18.69224609 62.88847656 19.44699219 62.79882812 20.22460938 C62.11328125 25.88671875 62.11328125 25.88671875 61 27 C52.73820139 26.82456856 44.56845092 25.38011028 36.453125 23.93359375 C34.74730255 23.63606956 34.74730255 23.63606956 33.00701904 23.33253479 C29.42045574 22.70581682 25.8352308 22.07179151 22.25 21.4375 C19.79956439 21.00797707 17.34904424 20.57893615 14.8984375 20.15039062 C8.93130393 19.10582535 2.96524779 18.05527831 -3 17 C-2.69268013 14.35346869 -2.37940678 11.707885 -2.0625 9.0625 C-1.97548828 8.30775391 -1.88847656 7.55300781 -1.79882812 6.77539062 C-1.11328125 1.11328125 -1.11328125 1.11328125 0 0 Z " fill="#F9D88A" transform="translate(23,145)"/>
<path d="M0 0 C10.23 1.65 20.46 3.3 31 5 C29.72108654 19.06804806 27.609759 27.41006606 17 37 C12.51973684 40 12.51973684 40 10 40 C10 40.66 10 41.32 10 42 C8.02 42 6.04 42 4 42 C3.34735571 39.98135603 2.70321254 37.95996273 2.0625 35.9375 C1.70285156 34.81214844 1.34320313 33.68679687 0.97265625 32.52734375 C-0.9484836 25.5603185 -1.15629173 18.85852185 -1.125 11.6875 C-1.12886719 10.78193359 -1.13273437 9.87636719 -1.13671875 8.94335938 C-1.13542969 8.07904297 -1.13414063 7.21472656 -1.1328125 6.32421875 C-1.13168457 5.54135498 -1.13055664 4.75849121 -1.12939453 3.9519043 C-1 2 -1 2 0 0 Z " fill="#E883B2" transform="translate(53,167)"/>
<path d="M0 0 C2.97 1.65 5.94 3.3 9 5 C8.3348204 9.44509613 7.6106254 13.87856275 6.875 18.3125 C6.68679687 19.57513672 6.49859375 20.83777344 6.3046875 22.13867188 C5.9953125 23.95141602 5.9953125 23.95141602 5.6796875 25.80078125 C5.41260986 27.47394409 5.41260986 27.47394409 5.14013672 29.1809082 C3.59943074 32.99044396 1.66198852 33.34672622 -2 35 C-3.98556799 37.15706953 -3.98556799 37.15706953 -5.54296875 39.7109375 C-6.14173828 40.62617187 -6.74050781 41.54140625 -7.35742188 42.484375 C-7.96134766 43.43828125 -8.56527344 44.3921875 -9.1875 45.375 C-9.80302734 46.32117188 -10.41855469 47.26734375 -11.05273438 48.2421875 C-16.38237577 56.41579825 -16.38237577 56.41579825 -21 65 C-22.29742487 61.10772538 -21.58733544 57.92125718 -20.9609375 53.96484375 C-20.83820465 53.17155167 -20.7154718 52.37825958 -20.58901978 51.56092834 C-20.32546827 49.87829859 -20.0578927 48.19629497 -19.78662109 46.51489258 C-19.38080656 43.97385816 -19.00039949 41.42987251 -18.62109375 38.88476562 C-17.27260491 30.21600787 -15.86520451 22.48430926 -11 15 C-10.56413574 14.32428955 -10.12827148 13.6485791 -9.67919922 12.95239258 C-8.41369813 11.07661378 -7.09942484 9.25356727 -5.75 7.4375 C-5.30398437 6.82326172 -4.85796875 6.20902344 -4.3984375 5.57617188 C-1.22576531 1.22576531 -1.22576531 1.22576531 0 0 Z " fill="#5DD6FE" transform="translate(107,53)"/>
<path d="M0 0 C0.76554199 0.13317627 1.53108398 0.26635254 2.31982422 0.40356445 C4.73520788 0.82523145 7.14882114 1.256193 9.5625 1.6875 C11.21213095 1.97718181 12.86186976 2.26625008 14.51171875 2.5546875 C18.52992667 3.25854393 22.54657571 3.97073377 26.5625 4.6875 C26.5625 5.3475 26.5625 6.0075 26.5625 6.6875 C24.98828125 8.16796875 24.98828125 8.16796875 22.875 9.875 C19.99534418 12.27555372 17.96765334 14.403916 16.0625 17.625 C13.5625 20.6875 13.5625 20.6875 10.3125 21.03515625 C3.8210455 20.78190683 -2.56894858 19.38483944 -8.9375 18.1875 C-10.24988106 17.94596742 -11.56238041 17.70507667 -12.875 17.46484375 C-16.06371771 16.87868241 -19.25109166 16.28606591 -22.4375 15.6875 C-22.30793578 13.9187322 -22.16951942 12.15061127 -22.02734375 10.3828125 C-21.91314087 8.90578857 -21.91314087 8.90578857 -21.79663086 7.39892578 C-21.37400627 4.20812453 -20.50006417 2.162577 -18.4375 -0.3125 C-13.11580121 -2.97334939 -5.64924377 -1.02365051 0 0 Z " fill="#E571A6" transform="translate(45.4375,129.3125)"/>
<path d="M0 0 C-2 10 -2 10 -2.53515625 12.3203125 C-3.28464259 16.64088083 -3.39517831 21.00759707 -3.60546875 25.38085938 C-3.89759026 30.79518053 -3.89759026 30.79518053 -5 33 C-5.66 33 -6.32 33 -7 33 C-7 32.34 -7 31.68 -7 31 C-12.08044592 29.77328641 -14.91758543 29.55346558 -19.5078125 32.203125 C-21.06088373 33.19719606 -22.59988938 34.21354203 -24.125 35.25 C-25.66798061 36.25718768 -27.21222547 37.2624416 -28.7578125 38.265625 C-29.8411084 38.9781543 -29.8411084 38.9781543 -30.94628906 39.70507812 C-33.55334835 41.34890152 -36.20876931 42.69802019 -39 44 C-36.82489129 37.96768923 -33.21773726 32.84306993 -29.70800781 27.52661133 C-28.51657378 25.71273247 -27.34825478 23.88530519 -26.1796875 22.05664062 C-20.95459845 14.0405553 -10.7731286 0 0 0 Z " fill="#39D49C" transform="translate(155,85)"/>
<path d="M0 0 C4.43283582 1.2005597 4.43283582 1.2005597 6 3.8125 C7.08926722 10.94394182 3.76665715 15.09667413 -0.1875 20.8125 C-0.76564453 21.67617187 -1.34378906 22.53984375 -1.93945312 23.4296875 C-3.60486684 25.90616711 -5.29678127 28.36191401 -7 30.8125 C-7.72823975 31.87597656 -7.72823975 31.87597656 -8.47119141 32.9609375 C-11.75683995 37.69091997 -11.75683995 37.69091997 -14 38.8125 C-17.5817622 39.20182198 -19.36281721 39.24846718 -22.375 37.1875 C-24.52778061 34.04112834 -24.43479434 32.59698545 -24 28.8125 C-22.76478194 26.07118922 -21.16358989 23.62414588 -19.5 21.125 C-18.82312134 20.07868408 -18.82312134 20.07868408 -18.13256836 19.01123047 C-5.50128915 -0.34383057 -5.50128915 -0.34383057 0 0 Z " fill="#F8D88A" transform="translate(111,85.1875)"/>
<path d="M0 0 C2.375 1.5 2.375 1.5 4 4 C4.44823494 11.01691417 3.29909566 17.7713539 2.1875 24.6875 C2.02185547 25.80189453 1.85621094 26.91628906 1.68554688 28.06445312 C1.51474609 29.14017578 1.34394531 30.21589844 1.16796875 31.32421875 C1.01610107 32.29447998 0.8642334 33.26474121 0.70776367 34.2644043 C-0.07590063 37.29336549 -1.20497358 39.44652762 -3 42 C-5.84083641 43.42041821 -7.85477278 43.31452272 -11 43 C-13.375 41.5 -13.375 41.5 -15 39 C-15.43301663 32.1504642 -14.32502453 25.6174181 -13.1875 18.875 C-13.02185547 17.81667969 -12.85621094 16.75835937 -12.68554688 15.66796875 C-11.79957037 10.33873651 -10.96817793 5.62755299 -8 1 C-5.15916359 -0.42041821 -3.14522722 -0.31452272 0 0 Z " fill="#FEE9B6" transform="translate(70,71)"/>
<path d="M0 0 C3.24285367 2.19111734 3.90296847 3.52366341 4.6875 7.375 C3.7233067 12.45892833 1.03611918 14.00355082 -3 17 C-6.02383757 19.02122653 -9.12036293 20.89787052 -12.25 22.75 C-13.838767 23.70274934 -15.42731774 24.65585944 -17.015625 25.609375 C-17.70946289 26.02155273 -18.40330078 26.43373047 -19.11816406 26.85839844 C-20.77264219 27.8620751 -22.38988814 28.9265921 -24 30 C-27.4375 30.4375 -27.4375 30.4375 -31 30 C-33.5 27.75 -33.5 27.75 -35 25 C-34.89152453 21.528785 -32.92567006 18.81640779 -31 16 C-28.48803711 14.07128906 -28.48803711 14.07128906 -25.52734375 12.265625 C-24.46322266 11.60949219 -23.39910156 10.95335938 -22.30273438 10.27734375 C-20.63694336 9.27380859 -20.63694336 9.27380859 -18.9375 8.25 C-17.82310547 7.56550781 -16.70871094 6.88101563 -15.56054688 6.17578125 C-4.58612732 -0.54596754 -4.58612732 -0.54596754 0 0 Z " fill="#F7D889" transform="translate(145,114)"/>
<path d="M0 0 C11.06591434 5.88253398 11.06591434 5.88253398 14 9 C15.18572577 13.30023214 15.29819221 15.35695469 13.40234375 19.4453125 C12.60064153 20.68498167 11.77747358 21.91093638 10.9375 23.125 C10.49792969 23.79370117 10.05835938 24.46240234 9.60546875 25.15136719 C8.08930583 27.4474793 6.54486747 29.72311286 5 32 C3.12499625 34.80621704 1.25494892 37.61569918 -0.61499023 40.42529297 C-1.8556327 42.28440879 -3.10111751 44.14030377 -4.35180664 45.99267578 C-4.92664795 46.84587402 -5.50148926 47.69907227 -6.09375 48.578125 C-6.86235352 49.71362793 -6.86235352 49.71362793 -7.64648438 50.87207031 C-9.03451695 52.95758593 -9.03451695 52.95758593 -10.02783203 55.16772461 C-11.50169806 57.94556603 -13.64716945 58.83888645 -16.375 60.3125 C-17.33148438 60.84488281 -18.28796875 61.37726563 -19.2734375 61.92578125 C-22.14727583 63.05802414 -23.19191053 63.13787512 -26 62 C-25.41992188 61.64808594 -24.83984375 61.29617187 -24.2421875 60.93359375 C-14.60502855 54.84278207 -10.14618453 48.98274996 -7 38 C-5.66425435 31.86355499 -4.76329607 25.64259822 -3.8125 19.4375 C-3.42484795 16.96360134 -3.03410537 14.49023759 -2.64006042 12.01734924 C-2.39756104 10.48998161 -2.15920566 8.96194884 -1.92549133 7.43321228 C-1.11032252 2.22064503 -1.11032252 2.22064503 0 0 Z " fill="#84DDFC" transform="translate(89,145)"/>
<path d="M0 0 C9.74824187 0.79903622 19.353358 2.42524017 29 4 C28.69268013 6.64653131 28.37940678 9.292115 28.0625 11.9375 C27.97548828 12.69224609 27.88847656 13.44699219 27.79882812 14.22460938 C27.11328125 19.88671875 27.11328125 19.88671875 26 21 C18.89913228 20.94778774 11.85200725 19.72304923 4.875 18.5 C4.12863281 18.36948242 3.38226563 18.23896484 2.61328125 18.10449219 C-2.73703193 17.13148404 -2.73703193 17.13148404 -5 16 C-4.55643705 9.79011871 -3.08467498 5.39459439 0 0 Z " fill="#FEE8B7" transform="translate(58,151)"/>
<path d="M0 0 C1.32 0.66 2.64 1.32 4 2 C3.20947683 10.15300759 2.17969227 18.21192726 0.68359375 26.26953125 C0.33204224 28.17955933 0.33204224 28.17955933 -0.02661133 30.12817383 C-0.50222979 32.67384822 -0.99254331 35.21682879 -1.4987793 37.7565918 C-2.81856067 44.85143394 -3.34309345 50.11315694 -1 57 C1.5106328 59.64634268 3.28975851 60.77401407 6.75 61.875 C7.4925 62.24625 8.235 62.6175 9 63 C9.8125 66.125 9.8125 66.125 10 69 C2.5983151 69 -0.74809475 67.19752796 -6.15234375 62.203125 C-10.78922119 56.67416332 -10.52731143 50.86158171 -10 44 C-9.25291853 37.90905158 -8.22390427 31.86274344 -7.17407227 25.81787109 C-6.6842646 22.98126293 -6.21742003 20.14147322 -5.75195312 17.30078125 C-5.44407845 15.49195376 -5.13488153 13.68335072 -4.82421875 11.875 C-4.68658615 11.0281665 -4.54895355 10.18133301 -4.40715027 9.30883789 C-4.19727226 8.13115845 -4.19727226 8.13115845 -3.9831543 6.9296875 C-3.86546188 6.24116699 -3.74776947 5.55264648 -3.62651062 4.84326172 C-2.86772746 2.61083993 -1.75887271 1.5337082 0 0 Z " fill="#FADB91" transform="translate(10,120)"/>
<path d="M0 0 C2.9375 2.0625 2.9375 2.0625 5 5 C5.71985951 10.3989463 4.66623495 13.29580687 1.59179688 17.54296875 C1.12837891 18.14753906 0.66496094 18.75210938 0.1875 19.375 C-0.26431641 20.00277344 -0.71613281 20.63054687 -1.18164062 21.27734375 C-4.56887542 25.85629181 -4.56887542 25.85629181 -8 27 C-8.32274902 26.47043701 -8.64549805 25.94087402 -8.97802734 25.39526367 C-10.44304591 22.99228554 -11.90901245 20.5898871 -13.375 18.1875 C-13.88289062 17.35412109 -14.39078125 16.52074219 -14.9140625 15.66210938 C-15.40390625 14.85966797 -15.89375 14.05722656 -16.3984375 13.23046875 C-16.84880371 12.49207764 -17.29916992 11.75368652 -17.76318359 10.99291992 C-18.80907225 9.3076477 -19.89978666 7.65032001 -21 6 C-21 5.01 -21 4.02 -21 3 C-18.81462633 2.49078672 -16.62657569 1.99305563 -14.4375 1.5 C-12.61025391 1.08234375 -12.61025391 1.08234375 -10.74609375 0.65625 C-7.03740966 0.00655352 -3.75458968 -0.25972283 0 0 Z " fill="#66DBAB" transform="translate(205,75)"/>
<path d="M0 0 C3.38066084 0.53378855 5.22187612 1.0010017 7.49609375 3.60546875 C10.70237504 9.48952343 11.79778438 16.92500371 11.5625 23.5625 C5.73708174 23.71441 0.40601286 23.20349146 -5.3125 22.125 C-6.07046875 21.99029297 -6.8284375 21.85558594 -7.609375 21.71679688 C-13.1499256 20.7062872 -13.1499256 20.7062872 -15.4375 19.5625 C-14.09658452 15.99311069 -12.51554969 12.77363509 -10.5625 9.5 C-10.07007812 8.66339844 -9.57765625 7.82679687 -9.0703125 6.96484375 C-6.41237662 3.05424431 -4.77121371 0.78074406 0 0 Z " fill="#F1ABCC" transform="translate(78.4375,-0.5625)"/>
<path d="M0 0 C2.4375 1.5625 2.4375 1.5625 4 4 C4.96804421 11.46776965 2.70904791 18.7568922 1 26 C-2.44955334 24.72199484 -5.38090029 23.23881563 -8.42578125 21.1796875 C-9.22177734 20.64472656 -10.01777344 20.10976563 -10.83789062 19.55859375 C-11.65451172 19.00300781 -12.47113281 18.44742188 -13.3125 17.875 C-14.14845703 17.31167969 -14.98441406 16.74835937 -15.84570312 16.16796875 C-17.89999052 14.78279211 -19.95127038 13.39337781 -22 12 C-20.1495926 7.85204445 -17.46554742 5.74504503 -13.8125 3.1875 C-13.26013672 2.76791016 -12.70777344 2.34832031 -12.13867188 1.91601562 C-7.7844015 -1.1537197 -5.08405251 -1.354106 0 0 Z " fill="#87DEFE" transform="translate(153,26)"/>
<path d="M0 0 C0.66 0 1.32 0 2 0 C6 5.41176471 6 5.41176471 6 8 C6.66 8 7.32 8 8 8 C8.19171003 9.36935738 8.32606026 10.7467861 8.4375 12.125 C8.51871094 12.89070312 8.59992188 13.65640625 8.68359375 14.4453125 C6.65207867 22.03737457 -5.09606245 27.07222255 -11.3125 30.9375 C-12.95702148 31.98260742 -12.95702148 31.98260742 -14.63476562 33.04882812 C-15.67955078 33.70173828 -16.72433594 34.35464844 -17.80078125 35.02734375 C-18.75122314 35.62281006 -19.70166504 36.21827637 -20.6809082 36.83178711 C-21.4462085 37.21729736 -22.21150879 37.60280762 -23 38 C-23.66 37.67 -24.32 37.34 -25 37 C-24.57807373 36.48010498 -24.15614746 35.96020996 -23.72143555 35.42456055 C-18.97958076 29.47029599 -14.84066388 23.26546919 -10.8125 16.8125 C-9.0510902 14.01119907 -7.28831135 11.21079344 -5.52197266 8.41259766 C-4.59415541 6.94184212 -3.67077732 5.46825823 -2.75537109 3.98974609 C-1.88982646 2.62480262 -0.95388447 1.30473852 0 0 Z " fill="#65DBAB" transform="translate(102,163)"/>
<path d="M0 0 C3.3 0.33 6.6 0.66 10 1 C8.02 1.99 8.02 1.99 6 3 C4.92490834 5.48173548 4.92490834 5.48173548 4.375 8.4375 C4.13910156 9.50355469 3.90320313 10.56960937 3.66015625 11.66796875 C2.71544081 16.43626623 1.80223071 21.20549173 1 26 C-0.37523135 25.85636473 -1.75017402 25.70996483 -3.125 25.5625 C-3.89070313 25.48128906 -4.65640625 25.40007813 -5.4453125 25.31640625 C-8.31327401 24.96120001 -11.1524515 24.49109894 -14 24 C-9.42529835 15.94202299 -4.8030624 7.92505297 0 0 Z " fill="#DEDDF4" transform="translate(62,19)"/>
<path d="M0 0 C0.33 0 0.66 0 1 0 C1.0501123 0.56283691 1.10022461 1.12567383 1.15185547 1.70556641 C2.06895608 11.91013037 3.02026945 22.06569133 4.6328125 32.1875 C4.97946409 34.84270367 5.14320407 37.32685732 5 40 C4 41 4 41 1.1875 41.3125 C-2 41 -2 41 -4.375 39.5 C-8.39322025 33.3181227 -5.30201461 23.64502808 -4.125 16.8125 C-3.95097656 15.74580078 -3.77695312 14.67910156 -3.59765625 13.58007812 C-2.78786444 8.7843111 -1.93807032 4.48413288 0 0 Z " fill="#F9D78A" transform="translate(61,73)"/>
<path d="M0 0 C2.92761527 0.32529059 5.32615294 0.59569177 7.875 2.125 C9.78422716 5.30704527 9.53091105 7.34261274 9 11 C7.2802604 14.21939348 5.31244113 17.17510655 3 20 C2.67 20 2.34 20 2 20 C1.97302863 17.39576408 1.95317511 14.79180756 1.9375 12.1875 C1.92493164 11.08051758 1.92493164 11.08051758 1.91210938 9.95117188 C1.89740172 6.70077932 1.96468298 4.10595105 3 1 C2.01 0.67 1.02 0.34 0 0 Z " fill="#F9E8B7" transform="translate(108,85)"/>
<path d="M0 0 C0.66 0.33 1.32 0.66 2 1 C0.68 4.96 -0.64 8.92 -2 13 C-6.27709699 13 -7.55930376 12.29379749 -11 10 C-9.54144353 6.31353859 -7.69770955 4.83856029 -4.375 2.75 C-3.55773437 2.22921875 -2.74046875 1.7084375 -1.8984375 1.171875 C-1.27195312 0.78515625 -0.64546875 0.3984375 0 0 Z " fill="#DDDDF5" transform="translate(119,44)"/>
<path d="M0 0 C1.3274855 3.98245651 -0.00092171 6.44789543 -1.4375 10.1875 C-1.68048828 10.84169922 -1.92347656 11.49589844 -2.17382812 12.16992188 C-2.7743293 13.78303286 -3.38609203 15.3919435 -4 17 C-5.65 16.67 -7.3 16.34 -9 16 C-7.63498381 12.33357971 -5.97203048 9.08922939 -3.9375 5.75 C-3.41027344 4.87859375 -2.88304688 4.0071875 -2.33984375 3.109375 C-1 1 -1 1 0 0 Z " fill="#EA8EB9" transform="translate(72,3)"/>
</svg>
