<?xml version="1.0" encoding="utf-8"?>
<svg version="1.1" xmlns:xlink="http://www.w3.org/1999/xlink" width="23px" height="23px" xmlns="http://www.w3.org/2000/svg">
  <g transform="matrix(1 0 0 1 -1722 -205 )">
    <path d="M 14.10546875 14.10546875  C 15.317207532051283 12.893729967948717  15.923076923076923 11.435496794871794  15.923076923076923 9.730769230769232  C 15.923076923076923 8.026041666666664  15.317207532051283 6.567808493589743  14.10546875 5.356069711538462  C 12.893729967948719 4.144330929487178  11.435496794871796 3.5384615384615388  9.73076923076923 3.5384615384615388  C 8.026041666666668 3.5384615384615388  6.5678084935897445 4.144330929487178  5.356069711538462 5.356069711538462  C 4.14433092948718 6.567808493589743  3.5384615384615388 8.026041666666664  3.5384615384615388 9.730769230769232  C 3.5384615384615388 11.435496794871794  4.14433092948718 12.893729967948717  5.356069711538462 14.10546875  C 6.5678084935897445 15.317207532051277  8.026041666666668 15.923076923076923  9.73076923076923 15.923076923076923  C 11.435496794871796 15.923076923076923  12.893729967948719 15.317207532051277  14.10546875 14.10546875  Z M 22.488581730769234 19.986778846153847  C 22.829527243589745 20.32772435897436  23 20.74238782051282  23 21.230769230769234  C 23 21.709935897435898  22.824919871794872 22.12459935897436  22.474759615384617 22.474759615384617  C 22.12459935897436 22.824919871794872  21.709935897435898 23  21.230769230769234 23  C 20.733173076923077 23  20.318509615384617 22.824919871794872  19.986778846153847 22.474759615384617  L 15.245793269230768 17.747596153846153  C 13.596354166666668 18.89022435897436  11.758012820512823 19.46153846153846  9.73076923076923 19.46153846153846  C 8.413060897435898 19.46153846153846  7.152944711538462 19.205829326923077  5.9504206730769225 18.69441105769231  C 4.747896634615385 18.18299278846154  3.711237980769231 17.491887019230766  2.8404447115384617 16.62109375  C 1.9696514423076923 15.750300480769232  1.2785456730769234 14.713641826923077  0.7671274038461539 13.511117788461538  C 0.25570913461538464 12.30859375  0 11.048477564102562  0 9.730769230769232  C 0 8.413060897435894  0.25570913461538464 7.152944711538462  0.7671274038461539 5.9504206730769225  C 1.2785456730769234 4.747896634615384  1.9696514423076923 3.7112379807692317  2.8404447115384617 2.8404447115384612  C 3.711237980769231 1.9696514423076934  4.747896634615385 1.2785456730769227  5.9504206730769225 0.7671274038461546  C 7.152944711538462 0.255709134615384  8.413060897435898 0  9.73076923076923 0  C 11.048477564102564 0  12.30859375 0.255709134615384  13.511117788461538 0.7671274038461546  C 14.713641826923077 1.2785456730769227  15.750300480769232 1.9696514423076934  16.62109375 2.8404447115384612  C 17.491887019230766 3.7112379807692317  18.18299278846154 4.747896634615384  18.694411057692307 5.9504206730769225  C 19.205829326923077 7.152944711538462  19.46153846153846 8.413060897435894  19.46153846153846 9.730769230769232  C 19.46153846153846 11.75801282051282  18.89022435897436 13.596354166666664  17.747596153846153 15.245793269230768  L 22.488581730769234 19.986778846153847  Z " fill-rule="nonzero" fill="#a087c9" stroke="none" transform="matrix(1 0 0 1 1722 205 )" />
  </g>
</svg>