<?xml version="1.0" encoding="UTF-8"?>
<svg version="1.1" xmlns="http://www.w3.org/2000/svg" width="210" height="210">
<path d="M0 0 C1.19473938 -0.00281982 2.38947876 -0.00563965 3.62042236 -0.00854492 C4.95642105 -0.00660033 6.29241958 -0.00455214 7.62841797 -0.00241089 C9.02594041 -0.0037649 10.42346249 -0.00554484 11.82098389 -0.00772095 C15.62666441 -0.01229527 19.43231794 -0.01050573 23.23799896 -0.00734186 C27.21205216 -0.00481826 31.18610297 -0.0071558 35.16015625 -0.00872803 C41.83512794 -0.01054972 48.51008858 -0.00814342 55.18505859 -0.00338745 C62.91321511 0.00205517 70.64134524 0.00029251 78.36950111 -0.00521386 C84.99283894 -0.00974499 91.6161688 -0.01039553 98.23950768 -0.00777519 C102.20054939 -0.00621241 106.1615787 -0.00601865 110.12261963 -0.00931168 C113.84568777 -0.0121904 117.56872176 -0.01021469 121.29178619 -0.00441742 C122.66204013 -0.00308983 124.03229692 -0.00348393 125.40254974 -0.00568008 C127.2654358 -0.00839158 129.1283281 -0.00439678 130.99121094 0 C132.03614716 0.00037703 133.08108337 0.00075405 134.15768433 0.0011425 C136.49560547 0.12698364 136.49560547 0.12698364 137.49560547 1.12698364 C137.59550183 3.55317958 137.63002609 5.95096682 137.62258911 8.37771606 C137.6241491 9.14557277 137.62570909 9.91342947 137.62731636 10.70455456 C137.63132935 13.29720625 137.62813557 15.88980018 137.625 18.48245239 C137.62635391 20.33317092 137.62813378 22.18388919 137.63031006 24.03460693 C137.63488563 29.07578308 137.63309432 34.11693886 137.62993097 39.15811539 C137.62740801 44.42142036 137.62974473 49.68472353 137.63131714 54.94802856 C137.63313902 63.78860794 137.63073204 72.62917897 137.62597656 81.46975708 C137.62053391 91.7063638 137.62229655 101.94295061 137.62780297 112.17955685 C137.63233357 120.95149628 137.63298491 129.72342969 137.6303643 138.49536991 C137.62880123 143.74191171 137.62860857 148.98844414 137.63190079 154.23498535 C137.63477873 159.16623242 137.63280523 164.0974537 137.62700653 169.02869797 C137.62567852 170.84401786 137.62607374 172.65933991 137.6282692 174.47465897 C137.6309791 176.94188621 137.62760156 179.40902941 137.62258911 181.87625122 C137.62481983 182.60415454 137.62705055 183.33205786 137.62934887 184.08201885 C137.60975533 189.01283379 137.60975533 189.01283379 136.49560547 190.12698364 C134.14503339 190.22682739 131.8237902 190.26141128 129.47265625 190.25396729 C128.72930086 190.25552728 127.98594547 190.25708727 127.22006416 190.25869453 C124.71032905 190.26270728 122.20065362 190.25951383 119.69091797 190.25637817 C117.89931197 190.25773209 116.10770626 190.25951197 114.31610107 190.26168823 C109.43607659 190.26626368 104.55607315 190.26447255 99.67604828 190.26130915 C94.58090659 190.25878612 89.48576676 190.26112292 84.390625 190.26269531 C75.83251622 190.26451718 67.27441606 190.26211026 58.71630859 190.25735474 C48.80689109 190.25191209 38.89749416 190.25367473 28.98807716 190.25918114 C20.49639013 190.2637118 12.00470932 190.26436306 3.51302147 190.26174247 C-1.56584638 190.26017943 -6.64470454 190.25998666 -11.72357178 190.26327896 C-16.49723021 190.26615698 -21.27086198 190.26418326 -26.04451752 190.2583847 C-27.80178534 190.25705673 -29.55905538 190.25745184 -31.31632233 190.25964737 C-33.70472746 190.26235744 -36.09304579 190.25897953 -38.48144531 190.25396729 C-39.18600294 190.25619801 -39.89056057 190.25842873 -40.61646843 190.26072705 C-45.39024467 190.24113351 -45.39024467 190.24113351 -46.50439453 189.12698364 C-46.57665955 187.27410863 -46.58820673 185.41864487 -46.56689453 183.56448364 C-46.55787109 182.55256958 -46.54884766 181.54065552 -46.53955078 180.49807739 C-46.52214844 179.32438599 -46.52214844 179.32438599 -46.50439453 178.12698364 C-45.18439453 177.79698364 -43.86439453 177.46698364 -42.50439453 177.12698364 C-42.50439453 172.83698364 -42.50439453 168.54698364 -42.50439453 164.12698364 C-43.82439453 163.79698364 -45.14439453 163.46698364 -46.50439453 163.12698364 C-46.53126732 161.31456313 -46.55073169 159.50203131 -46.56689453 157.68948364 C-46.57849609 156.68014771 -46.59009766 155.67081177 -46.60205078 154.63088989 C-46.50439453 152.12698364 -46.50439453 152.12698364 -45.50439453 151.12698364 C-43.52439453 151.12698364 -41.54439453 151.12698364 -39.50439453 151.12698364 C-39.50439453 146.83698364 -39.50439453 142.54698364 -39.50439453 138.12698364 C-41.48439453 138.12698364 -43.46439453 138.12698364 -45.50439453 138.12698364 C-46.50439453 137.12698364 -46.50439453 137.12698364 -46.60205078 134.40432739 C-46.5694987 131.31187948 -46.53694661 128.21943156 -46.50439453 125.12698364 C-41.88439453 125.12698364 -37.26439453 125.12698364 -32.50439453 125.12698364 C-32.50439453 120.50698364 -32.50439453 115.88698364 -32.50439453 111.12698364 C-31.51439453 110.63198364 -31.51439453 110.63198364 -30.50439453 110.12698364 C-31.02388672 109.76346802 -31.54337891 109.39995239 -32.07861328 109.02542114 C-39.16290792 103.91844349 -44.41302428 98.87856377 -46.50439453 90.12698364 C-47.68255774 82.31087648 -45.58102864 74.43905373 -40.99658203 68.01370239 C-36.08130672 62.67548479 -30.5080669 59.50668366 -23.25048828 58.81838989 C-17.4682358 58.70656021 -12.97320487 59.21853969 -7.50439453 61.12698364 C-7.49408707 60.37751968 -7.4837796 59.62805573 -7.47315979 58.85588074 C-7.37534928 51.8070791 -7.27285877 44.7583649 -7.16505527 37.70971012 C-7.10979356 34.08556784 -7.05636853 30.46141755 -7.00708008 26.83718872 C-6.95948421 23.34231265 -6.90714343 19.84753744 -6.85145378 16.3527813 C-6.8210304 14.36464541 -6.79557471 12.37643555 -6.77015686 10.38822937 C-6.75021164 9.18705978 -6.73026642 7.9858902 -6.7097168 6.74832153 C-6.69417252 5.68464859 -6.67862823 4.62097565 -6.66261292 3.52507019 C-6.36563169 -0.97621883 -3.96741942 0.00143149 0 0 Z M-13.50439453 110.12698364 C-13.50439453 110.45698364 -13.50439453 110.78698364 -13.50439453 111.12698364 C-11.19439453 111.12698364 -8.88439453 111.12698364 -6.50439453 111.12698364 C-6.50439453 110.13698364 -6.50439453 109.14698364 -6.50439453 108.12698364 C-9.15092803 108.12698364 -11.08521083 109.10837998 -13.50439453 110.12698364 Z " fill="#E8EDF1" transform="translate(62.50439453125,9.873016357421875)"/>
<path d="M0 0 C7.81863551 4.75250394 13.1638359 10.00508311 15.765625 18.91796875 C17.35278488 26.5157619 15.98171899 33.20582114 12.1875 39.9375 C8.34402528 44.89772283 4.91117796 47.07566102 -0.8125 49.9375 C4.7975 50.2675 10.4075 50.5975 16.1875 50.9375 C16.1875 55.5575 16.1875 60.1775 16.1875 64.9375 C24.7675 64.9375 33.3475 64.9375 42.1875 64.9375 C42.1875 69.2275 42.1875 73.5175 42.1875 77.9375 C44.4975 77.9375 46.8075 77.9375 49.1875 77.9375 C49.1875 82.2275 49.1875 86.5175 49.1875 90.9375 C46.8775 90.9375 44.5675 90.9375 42.1875 90.9375 C42.1875 95.2275 42.1875 99.5175 42.1875 103.9375 C44.1675 104.4325 44.1675 104.4325 46.1875 104.9375 C48.60875596 102.74934632 50.6700852 100.47169524 52.76953125 97.984375 C56.11392502 94.30649467 58.3103423 93.59890195 63.19335938 93.30615234 C66.89135921 92.62251134 69.19369914 89.98569593 71.8125 87.4375 C78.53017347 80.99567302 78.53017347 80.99567302 84.1875 80.9375 C85.30253906 81.38996094 86.41757813 81.84242188 87.56640625 82.30859375 C91.02468754 83.31002631 91.02468754 83.31002631 93.11279297 81.81298828 C95.2370378 79.96994751 97.18377817 78.03481979 99.125 76 C100.46614647 74.65625189 101.80859312 73.31380019 103.15234375 71.97265625 C103.81282715 71.30258545 104.47331055 70.63251465 105.15380859 69.94213867 C110.2089617 64.95920204 115.71548901 60.45190907 121.1875 55.9375 C119.269375 55.751875 119.269375 55.751875 117.3125 55.5625 C113.4375 55.1875 113.4375 55.1875 111.1875 52.9375 C111.72321429 49.40178571 111.72321429 49.40178571 113.1875 47.9375 C116.3257345 47.68783433 119.47799613 47.75228209 122.625 47.75 C123.50994141 47.73775391 124.39488281 47.72550781 125.30664062 47.71289062 C126.15291016 47.71095703 126.99917969 47.70902344 127.87109375 47.70703125 C129.03983032 47.70086792 129.03983032 47.70086792 130.23217773 47.69458008 C132.1875 47.9375 132.1875 47.9375 134.1875 49.9375 C134.41455078 52.00048828 134.41455078 52.00048828 134.3828125 54.5078125 C134.37314453 55.85166016 134.37314453 55.85166016 134.36328125 57.22265625 C134.33814453 58.62837891 134.33814453 58.62837891 134.3125 60.0625 C134.30347656 61.00738281 134.29445312 61.95226562 134.28515625 62.92578125 C134.26154522 65.26327292 134.22861516 67.60026123 134.1875 69.9375 C131.8125 70.5625 131.8125 70.5625 129.1875 70.9375 C126.18132731 67.93132731 126.59164684 65.11368402 126.1875 60.9375 C125.775 61.32494385 125.3625 61.7123877 124.9375 62.11157227 C109.8807779 76.24195306 109.8807779 76.24195306 105.05859375 80.265625 C103.05123311 82.0034805 103.05123311 82.0034805 100.91015625 84.421875 C98.43008248 87.00773391 96.2808267 89.11921652 93.1875 90.9375 C90.33984375 90.67578125 90.33984375 90.67578125 87.375 89.8125 C83.36423863 88.65583917 83.36423863 88.65583917 79.53222656 89.85058594 C77.15345322 91.68753525 75.00088751 93.7063689 72.83496094 95.78686523 C67.8476537 100.53200466 67.8476537 100.53200466 63.625 100.875 C57.4179346 101.4864767 53.66922823 107.05726734 49.69140625 111.3828125 C48.86511719 112.22585937 48.03882812 113.06890625 47.1875 113.9375 C46.5275 113.9375 45.8675 113.9375 45.1875 113.9375 C45.1875 114.9275 45.1875 115.9175 45.1875 116.9375 C44.1975 116.9375 43.2075 116.9375 42.1875 116.9375 C42.1875 121.2275 42.1875 125.5175 42.1875 129.9375 C32.03483849 129.96062392 21.8821832 129.97841534 11.72950077 129.98931217 C7.01570267 129.99454089 2.30192253 130.00163834 -2.41186523 130.01293945 C-6.95705404 130.02376873 -11.50222552 130.02977692 -16.04742622 130.03237724 C-17.78544958 130.03423142 -19.52347194 130.03785189 -21.26148796 130.04323006 C-23.68728595 130.05044103 -26.11301146 130.05149092 -28.53881836 130.05102539 C-29.26458069 130.05462067 -29.99034302 130.05821594 -30.73809814 130.06192017 C-35.69844784 130.05155216 -35.69844784 130.05155216 -36.8125 128.9375 C-36.88476502 127.08462498 -36.8963122 125.22916122 -36.875 123.375 C-36.86597656 122.36308594 -36.85695313 121.35117188 -36.84765625 120.30859375 C-36.83605469 119.52613281 -36.82445312 118.74367188 -36.8125 117.9375 C-34.8325 117.4425 -34.8325 117.4425 -32.8125 116.9375 C-32.8125 112.6475 -32.8125 108.3575 -32.8125 103.9375 C-34.1325 103.6075 -35.4525 103.2775 -36.8125 102.9375 C-36.83937279 101.12507948 -36.85883715 99.31254767 -36.875 97.5 C-36.88660156 96.49066406 -36.89820313 95.48132813 -36.91015625 94.44140625 C-36.8125 91.9375 -36.8125 91.9375 -35.8125 90.9375 C-33.8325 90.9375 -31.8525 90.9375 -29.8125 90.9375 C-29.8125 86.6475 -29.8125 82.3575 -29.8125 77.9375 C-31.7925 77.9375 -33.7725 77.9375 -35.8125 77.9375 C-36.8125 76.9375 -36.8125 76.9375 -36.91015625 74.21484375 C-36.87760417 71.12239583 -36.84505208 68.02994792 -36.8125 64.9375 C-32.1925 64.9375 -27.5725 64.9375 -22.8125 64.9375 C-22.8125 60.3175 -22.8125 55.6975 -22.8125 50.9375 C-21.8225 50.4425 -21.8225 50.4425 -20.8125 49.9375 C-21.33199219 49.57398438 -21.85148437 49.21046875 -22.38671875 48.8359375 C-29.47101339 43.72895985 -34.72112975 38.68908013 -36.8125 29.9375 C-37.99066321 22.12139284 -35.88913411 14.24957008 -31.3046875 7.82421875 C-22.91241692 -1.29017743 -11.77991963 -3.28292842 0 0 Z " fill="#FEB632" transform="translate(52.8125,70.0625)"/>
<path d="M0 0 C7.81863551 4.75250394 13.1638359 10.00508311 15.765625 18.91796875 C17.35278488 26.5157619 15.98171899 33.20582114 12.1875 39.9375 C8.34402528 44.89772283 4.91117796 47.07566102 -0.8125 49.9375 C4.7975 50.2675 10.4075 50.5975 16.1875 50.9375 C16.1875 55.5575 16.1875 60.1775 16.1875 64.9375 C24.7675 64.9375 33.3475 64.9375 42.1875 64.9375 C42.1875 69.2275 42.1875 73.5175 42.1875 77.9375 C29.3175 77.9375 16.4475 77.9375 3.1875 77.9375 C3.1875 73.6475 3.1875 69.3575 3.1875 64.9375 C-5.3925 64.9375 -13.9725 64.9375 -22.8125 64.9375 C-22.8125 60.3175 -22.8125 55.6975 -22.8125 50.9375 C-21.8225 50.4425 -21.8225 50.4425 -20.8125 49.9375 C-21.33199219 49.57398438 -21.85148437 49.21046875 -22.38671875 48.8359375 C-29.47101339 43.72895985 -34.72112975 38.68908013 -36.8125 29.9375 C-37.99066321 22.12139284 -35.88913411 14.24957008 -31.3046875 7.82421875 C-22.91241692 -1.29017743 -11.77991963 -3.28292842 0 0 Z " fill="#FFD239" transform="translate(52.8125,70.0625)"/>
<path d="M0 0 C38.94 0 77.88 0 118 0 C118 6.6 118 13.2 118 20 C79.06 20 40.12 20 0 20 C0 13.4 0 6.8 0 0 Z " fill="#D0D2D4" transform="translate(69,23)"/>
<path d="M0 0 C4.766505 4.10141128 8.47646629 8.01512469 9.6875 14.3125 C9.77089037 20.69186308 8.95659838 25.35111539 4.6875 30.3125 C0.39040501 34.42276477 -3.33522174 37.25422486 -9.4453125 37.34375 C-16.33088156 36.87693176 -21.43416859 34.64801536 -26.125 29.4375 C-30.08524249 23.78001073 -30.72579205 19.43940573 -29.84765625 12.70703125 C-28.47558502 6.56776361 -24.25035782 2.86775763 -19.3125 -0.6875 C-13.02385988 -3.83182006 -6.14530497 -3.13062706 0 0 Z " fill="#FFD239" transform="translate(69.3125,156.6875)"/>
<path d="M0 0 C1.12138618 0.03541649 1.12138618 0.03541649 2.26542664 0.07154846 C4.63940449 0.14776195 7.01302068 0.2319664 9.38671875 0.31640625 C11.00193577 0.3696694 12.61717014 0.42240947 14.23242188 0.47460938 C18.17991397 0.60331929 22.12710137 0.73919369 26.07421875 0.87890625 C26.07421875 5.49890625 26.07421875 10.11890625 26.07421875 14.87890625 C34.65421875 14.87890625 43.23421875 14.87890625 52.07421875 14.87890625 C52.07421875 19.16890625 52.07421875 23.45890625 52.07421875 27.87890625 C39.20421875 27.87890625 26.33421875 27.87890625 13.07421875 27.87890625 C13.07421875 23.58890625 13.07421875 19.29890625 13.07421875 14.87890625 C4.49421875 14.87890625 -4.08578125 14.87890625 -12.92578125 14.87890625 C-12.92578125 10.25890625 -12.92578125 5.63890625 -12.92578125 0.87890625 C-8.42283016 -0.02168397 -4.52810374 -0.17052128 0 0 Z " fill="#FED23B" transform="translate(42.92578125,120.12109375)"/>
<path d="M0 0 C1.15015451 0.8273591 2.29475698 1.66243397 3.4375 2.5 C4.18773438 3.04398437 4.93796875 3.58796875 5.7109375 4.1484375 C8 6 8 6 9.7265625 8.0390625 C17.29149082 16.63410872 29.25216356 16.6883454 40 18 C39.36136156 25.5896162 36.42980253 28.95371512 31 34 C25.9288709 37.60613625 20.11946967 38.24943491 14 38 C6.28365321 36.40738191 1.34354683 32.47099834 -3 26 C-5.68580417 20.74516576 -5.69440154 14.78395632 -5 9 C-3.85370176 5.74264572 -2.48295401 2.48295401 0 0 Z " fill="#3EC285" transform="translate(84,64)"/>
<path d="M0 0 C7.81863551 4.75250394 13.1638359 10.00508311 15.765625 18.91796875 C17.35569221 26.5296794 15.96513945 33.18692536 12.1875 39.9375 C8.10279716 45.48253702 2.87449086 49.21149154 -3.8125 50.9375 C-11.42519331 51.72159749 -18.91349779 51.71728785 -25.31640625 47.15234375 C-32.04517031 41.59890965 -35.76587259 36.33974212 -37.1796875 27.69140625 C-37.6066063 20.64724608 -35.39101412 13.55142783 -31.3046875 7.82421875 C-22.91241692 -1.29017743 -11.77991963 -3.28292842 0 0 Z M-22.8125 9.9375 C-23.72 10.72125 -24.6275 11.505 -25.5625 12.3125 C-29.53253679 16.94420959 -30.28520456 21.68521833 -30.125 27.6328125 C-29.40180753 32.96635694 -26.91521893 37.23255296 -22.9375 40.8125 C-16.98836743 44.85791015 -12.4589229 45.29634311 -5.43359375 44.4765625 C0.43608809 43.26938501 3.85517234 39.69796808 7.1875 34.9375 C10.02907956 30.15383369 9.79395322 25.35065653 9.1875 19.9375 C7.27956307 13.71865692 3.94128491 10.23982141 -1.5703125 6.859375 C-8.53173057 3.99718917 -17.29950332 4.83797807 -22.8125 9.9375 Z " fill="#FEB837" transform="translate(52.8125,70.0625)"/>
<path d="M0 0 C0.88494141 -0.01224609 1.76988281 -0.02449219 2.68164062 -0.03710938 C3.52791016 -0.03904297 4.37417969 -0.04097656 5.24609375 -0.04296875 C6.02525146 -0.04707764 6.80440918 -0.05118652 7.60717773 -0.05541992 C9.5625 0.1875 9.5625 0.1875 11.5625 2.1875 C11.78955078 4.25048828 11.78955078 4.25048828 11.7578125 6.7578125 C11.75136719 7.65371094 11.74492187 8.54960938 11.73828125 9.47265625 C11.71314453 10.87837891 11.71314453 10.87837891 11.6875 12.3125 C11.67847656 13.25738281 11.66945313 14.20226562 11.66015625 15.17578125 C11.63654522 17.51327292 11.60361516 19.85026123 11.5625 22.1875 C9.1875 22.8125 9.1875 22.8125 6.5625 23.1875 C3.55632731 20.18132731 3.96664684 17.36368402 3.5625 13.1875 C3.15 13.57494385 2.7375 13.9623877 2.3125 14.36157227 C-12.7442221 28.49195306 -12.7442221 28.49195306 -17.56640625 32.515625 C-19.57376689 34.2534805 -19.57376689 34.2534805 -21.71484375 36.671875 C-24.19491752 39.25773391 -26.3441733 41.36921652 -29.4375 43.1875 C-32.28515625 42.92578125 -32.28515625 42.92578125 -35.25 42.0625 C-39.26076137 40.90583917 -39.26076137 40.90583917 -43.09277344 42.10058594 C-45.47154678 43.93753525 -47.62411249 45.9563689 -49.79003906 48.03686523 C-54.7773463 52.78200466 -54.7773463 52.78200466 -59 53.125 C-65.2070654 53.7364767 -68.95577177 59.30726734 -72.93359375 63.6328125 C-74.17302734 64.89738281 -74.17302734 64.89738281 -75.4375 66.1875 C-76.0975 66.1875 -76.7575 66.1875 -77.4375 66.1875 C-78.09099389 59.34809234 -78.09099389 59.34809234 -76.44140625 56.41845703 C-75.02890588 54.73932163 -73.54088239 53.24738956 -71.9375 51.75 C-71.4321875 51.22212891 -70.926875 50.69425781 -70.40625 50.15039062 C-66.78169839 46.62098349 -64.37331331 45.86335254 -59.40527344 45.55834961 C-55.72717515 44.86516955 -53.41922329 42.22394399 -50.8125 39.6875 C-44.09482653 33.24567302 -44.09482653 33.24567302 -38.4375 33.1875 C-37.32246094 33.63996094 -36.20742187 34.09242188 -35.05859375 34.55859375 C-31.60031246 35.56002631 -31.60031246 35.56002631 -29.51220703 34.06298828 C-27.3879622 32.21994751 -25.44122183 30.28481979 -23.5 28.25 C-22.15885353 26.90625189 -20.81640688 25.56380019 -19.47265625 24.22265625 C-18.81217285 23.55258545 -18.15168945 22.88251465 -17.47119141 22.19213867 C-12.4160383 17.20920204 -6.90951099 12.70190907 -1.4375 8.1875 C-3.355625 8.001875 -3.355625 8.001875 -5.3125 7.8125 C-9.1875 7.4375 -9.1875 7.4375 -11.4375 5.1875 C-10.40771681 -1.60906904 -5.8184261 0.00421931 0 0 Z " fill="#41C287" transform="translate(175.4375,117.8125)"/>
<path d="M0 0 C6.24768569 4.01921181 9.13884343 8.83736716 11 16 C11.26589622 18.45409137 11.21499725 20.52753165 11 23 C8.42042325 22.80355929 5.84772042 22.57840256 3.2734375 22.3203125 C1.09479338 22.10712775 -1.0882741 21.93506718 -3.2734375 21.8046875 C-12.47077405 20.9526777 -16.73608036 17.53769235 -23 11 C-24.35937995 9.79465051 -25.73249275 8.60442108 -27.125 7.4375 C-28.548125 6.2309375 -28.548125 6.2309375 -30 5 C-21.99956032 -3.97018994 -10.6406602 -6.13884243 0 0 Z " fill="#FCD23C" transform="translate(114,59)"/>
<path d="M0 0 C1.0144519 -0.00637985 2.02890381 -0.0127597 3.07409668 -0.01933289 C4.17306274 -0.02044571 5.27202881 -0.02155853 6.40429688 -0.02270508 C7.52872192 -0.02603348 8.65314697 -0.02936188 9.81164551 -0.03279114 C12.19229726 -0.03786044 14.57295614 -0.04019946 16.95361328 -0.04003906 C20.60786551 -0.04222724 24.26181679 -0.06038779 27.91601562 -0.0793457 C30.22460834 -0.0822792 32.53320249 -0.08426429 34.84179688 -0.08520508 C36.49024597 -0.09598335 36.49024597 -0.09598335 38.17199707 -0.10697937 C39.18644897 -0.10390274 40.20090088 -0.10082611 41.24609375 -0.09765625 C42.58939758 -0.09979378 42.58939758 -0.09979378 43.95983887 -0.10197449 C46.12304688 0.14526367 46.12304688 0.14526367 48.12304688 2.14526367 C47.74804688 4.77026367 47.74804688 4.77026367 47.12304688 7.14526367 C39.59335035 7.17053015 32.06366468 7.18809509 24.53393555 7.20019531 C21.97012931 7.20523737 19.40632596 7.21207081 16.8425293 7.22070312 C13.16649666 7.23277432 9.4905019 7.23849309 5.81445312 7.24291992 C4.66030411 7.24808121 3.50615509 7.25324249 2.31703186 7.25856018 C1.25600754 7.25863571 0.19498322 7.25871124 -0.89819336 7.25878906 C-2.3071714 7.26211998 -2.3071714 7.26211998 -3.74461365 7.26551819 C-5.87695312 7.14526367 -5.87695312 7.14526367 -6.87695312 6.14526367 C-6.91759145 4.47909252 -6.91967413 2.81138272 -6.87695312 1.14526367 C-4.40757862 -0.08942358 -2.76168154 0.01175494 0 0 Z " fill="#D1D3D5" transform="translate(141.876953125,97.854736328125)"/>
<path d="M0 0 C1.52167786 -0.00472824 1.52167786 -0.00472824 3.07409668 -0.009552 C4.72254578 -0.00651566 4.72254578 -0.00651566 6.40429688 -0.00341797 C7.52872192 -0.00437469 8.65314697 -0.00533142 9.81164551 -0.00631714 C12.192302 -0.00699855 14.57296034 -0.00514696 16.95361328 -0.00097656 C20.60778965 0.0043722 24.2618431 -0.00092289 27.91601562 -0.00732422 C30.22460965 -0.00666343 32.53320359 -0.00538225 34.84179688 -0.00341797 C36.49024597 -0.00645432 36.49024597 -0.00645432 38.17199707 -0.009552 C39.18644897 -0.00639984 40.20090088 -0.00324768 41.24609375 0 C42.58939758 0.00119339 42.58939758 0.00119339 43.95983887 0.00241089 C46.12304688 0.12939453 46.12304688 0.12939453 48.12304688 1.12939453 C48.12304688 2.77939453 48.12304688 4.42939453 48.12304688 6.12939453 C45.62451774 7.3786591 43.93377015 7.256362 41.13842773 7.25878906 C39.58187721 7.2635173 39.58187721 7.2635173 37.99388123 7.26834106 C36.30791588 7.26530472 36.30791588 7.26530472 34.58789062 7.26220703 C33.43889786 7.26316376 32.28990509 7.26412048 31.10609436 7.2651062 C28.67416326 7.26578758 26.24223035 7.2639362 23.81030273 7.25976562 C20.07271269 7.25441196 16.33524256 7.25971457 12.59765625 7.26611328 C10.24023411 7.26545259 7.88281204 7.26417161 5.52539062 7.26220703 C4.3993895 7.26423126 3.27338837 7.26625549 2.11326599 7.26834106 C1.0787178 7.2651889 0.04416962 7.26203674 -1.02172852 7.25878906 C-1.93724991 7.25799347 -2.8527713 7.25719788 -3.79603577 7.25637817 C-5.87695312 7.12939453 -5.87695312 7.12939453 -6.87695312 6.12939453 C-6.91759145 4.46322338 -6.91967413 2.79551358 -6.87695312 1.12939453 C-4.40425288 -0.10695559 -2.76528741 0.00245668 0 0 Z " fill="#D0D2D4" transform="translate(141.876953125,84.87060546875)"/>
<path d="M0 0 C1.40897804 0.00333092 1.40897804 0.00333092 2.84642029 0.00672913 C3.90744461 0.00680466 4.96846893 0.00688019 6.06164551 0.00695801 C7.21579453 0.01211929 8.36994354 0.01728058 9.55906677 0.02259827 C10.73404221 0.02401321 11.90901764 0.02542816 13.11959839 0.02688599 C16.88981116 0.0325046 20.65996556 0.04506026 24.43016052 0.05775452 C26.97898779 0.06276712 29.52781599 0.06733044 32.0766449 0.07142639 C38.34033685 0.08248007 44.60399452 0.0992363 50.86766052 0.12025452 C51.49266052 2.49525452 51.49266052 2.49525452 51.86766052 5.12025452 C49.86766052 7.12025452 49.86766052 7.12025452 47.70445251 7.36749268 C46.80891663 7.36606766 45.91338074 7.36464264 44.9907074 7.36317444 C43.97625549 7.36625107 42.96180359 7.3693277 41.91661072 7.37249756 C40.81764465 7.36531204 39.71867859 7.35812653 38.58641052 7.35072327 C36.89977295 7.35003593 36.89977295 7.35003593 35.17906189 7.34933472 C32.79839525 7.34630964 30.41773064 7.33841576 28.03709412 7.32606506 C24.38288906 7.30783051 20.72893753 7.30555518 17.07469177 7.30580139 C14.76609582 7.30088552 12.45750159 7.2950569 10.14891052 7.28822327 C8.50046143 7.28655403 8.50046143 7.28655403 6.81871033 7.28485107 C5.80425842 7.27847122 4.78980652 7.27209137 3.74461365 7.26551819 C2.84907776 7.26170639 1.95354187 7.25789459 1.03086853 7.25396729 C-1.13233948 7.12025452 -1.13233948 7.12025452 -3.13233948 6.12025452 C-3.17506048 4.45413547 -3.1729778 2.78642567 -3.13233948 1.12025452 C-2.13233948 0.12025452 -2.13233948 0.12025452 0 0 Z " fill="#D0D2D4" transform="translate(138.13233947753906,58.87974548339844)"/>
<path d="M0 0 C1.52167786 -0.00472824 1.52167786 -0.00472824 3.07409668 -0.009552 C4.72254578 -0.00651566 4.72254578 -0.00651566 6.40429688 -0.00341797 C7.52872192 -0.00437469 8.65314697 -0.00533142 9.81164551 -0.00631714 C12.192302 -0.00699855 14.57296034 -0.00514696 16.95361328 -0.00097656 C20.60778965 0.0043722 24.2618431 -0.00092289 27.91601562 -0.00732422 C30.22460965 -0.00666343 32.53320359 -0.00538225 34.84179688 -0.00341797 C36.49024597 -0.00645432 36.49024597 -0.00645432 38.17199707 -0.009552 C39.18644897 -0.00639984 40.20090088 -0.00324768 41.24609375 0 C42.58939758 0.00119339 42.58939758 0.00119339 43.95983887 0.00241089 C46.12304688 0.12939453 46.12304688 0.12939453 48.12304688 1.12939453 C48.12304688 2.77939453 48.12304688 4.42939453 48.12304688 6.12939453 C45.65034663 7.36574465 44.01138116 7.25633238 41.24609375 7.25878906 C39.72441589 7.2635173 39.72441589 7.2635173 38.17199707 7.26834106 C37.07303101 7.26631683 35.97406494 7.2642926 34.84179688 7.26220703 C33.71737183 7.26316376 32.59294678 7.26412048 31.43444824 7.2651062 C29.05379175 7.26578762 26.67313341 7.26393602 24.29248047 7.25976562 C20.6383041 7.25441686 16.98425065 7.25971195 13.33007812 7.26611328 C11.0214841 7.26545249 8.71289016 7.26417132 6.40429688 7.26220703 C5.30533081 7.26423126 4.20636475 7.26625549 3.07409668 7.26834106 C2.05964478 7.2651889 1.04519287 7.26203674 0 7.25878906 C-0.89553589 7.25799347 -1.79107178 7.25719788 -2.71374512 7.25637817 C-4.87695312 7.12939453 -4.87695312 7.12939453 -6.87695312 6.12939453 C-6.87695312 4.47939453 -6.87695312 2.82939453 -6.87695312 1.12939453 C-4.40425288 -0.10695559 -2.76528741 0.00245668 0 0 Z " fill="#D0D2D4" transform="translate(141.876953125,71.87060546875)"/>
<path d="M0 0 C4.98046875 0.09765625 4.98046875 0.09765625 9.9609375 0.1953125 C9.9609375 4.4853125 9.9609375 8.7753125 9.9609375 13.1953125 C0.0609375 13.1953125 -9.8390625 13.1953125 -20.0390625 13.1953125 C-17.0390625 11.1953125 -17.0390625 11.1953125 -13.6640625 9.3828125 C-10.23778634 7.44874118 -7.71237127 5.09776202 -5.0390625 2.1953125 C-3.0390625 0.1953125 -3.0390625 0.1953125 0 0 Z " fill="#FFD239" transform="translate(85.0390625,186.8046875)"/>
<path d="M0 0 C9.57 0 19.14 0 29 0 C27.3054832 1.12967787 25.60357838 2.24894986 23.87890625 3.33203125 C23.11449219 3.82058594 22.35007812 4.30914062 21.5625 4.8125 C20.80066406 5.29332031 20.03882812 5.77414063 19.25390625 6.26953125 C16.83890214 7.94243038 16.83890214 7.94243038 15.13671875 10.6796875 C13 13 13 13 9.765625 13.48828125 C6.51041667 13.32552083 3.25520833 13.16276042 0 13 C0 8.71 0 4.42 0 0 Z " fill="#FFD239" transform="translate(23,148)"/>
<path d="M0 0 C3.78388518 0.78698452 5.54644327 1.93305409 8 5 C8 6.32 8 7.64 8 9 C7.34 9.66 6.68 10.32 6 11 C6.66 11.66 7.32 12.32 8 13 C8.77233468 18.53506523 6.88941312 21.485292 4 26 C0.84526281 25.64947365 -0.8233534 25.13480924 -3.375 23.1875 C-5 21 -5 21 -4.75 18.9375 C-4.5025 18.298125 -4.255 17.65875 -4 17 C-3.85530525 14.0106666 -3.85530525 14.0106666 -4.8125 11.3125 C-5.08453386 6.50656844 -2.76889014 3.77488829 0 0 Z " fill="#FFB632" transform="translate(41,82)"/>
<path d="M0 0 C1.65 0.33 3.3 0.66 5 1 C5 1.66 5 2.32 5 3 C6.32 3.66 7.64 4.32 9 5 C8.625 6.9375 8.625 6.9375 8 9 C7.01 9.495 7.01 9.495 6 10 C6.515625 10.721875 7.03125 11.44375 7.5625 12.1875 C9 15 9 15 8.9375 17.4375 C7.75564653 20.66789949 6.00497712 23.21890271 4 26 C1.3364031 25.64005447 -0.58183452 25.28838998 -2.8125 23.75 C-4.42982809 21.36656913 -4.36169769 19.82124201 -4 17 C-3.34 16.34 -2.68 15.68 -2 15 C-2.66 14.34 -3.32 13.68 -4 13 C-4.65664119 7.30910967 -3.49195273 4.47406443 0 0 Z " fill="#FFB632" transform="translate(57,161)"/>
<path d="M0 0 C0 7.59 0 15.18 0 23 C-4.78268465 19.41298652 -9.15237552 16.11032244 -13.5 12.125 C-14.3559375 11.34382813 -15.211875 10.56265625 -16.09375 9.7578125 C-16.7228125 9.17773438 -17.351875 8.59765625 -18 8 C-12.56050177 1.90116865 -8.19050958 0 0 0 Z " fill="#FCB633" transform="translate(102,56)"/>
<path d="M0 0 C4.29 0 8.58 0 13 0 C13.48828125 2.21354167 13.9765625 4.42708333 14.46484375 6.640625 C14.9472157 8.76728673 15.47110699 10.88442798 16 13 C10.72 13 5.44 13 0 13 C0 8.71 0 4.42 0 0 Z " fill="#FFD239" transform="translate(20,174)"/>
<path d="M0 0 C4.29 0 8.58 0 13 0 C13 4.29 13 8.58 13 13 C9.7 13 6.4 13 3 13 C2.51171875 10.49348958 2.0234375 7.98697917 1.53515625 5.48046875 C1.02258847 2.88602829 1.02258847 2.88602829 0 0 Z " fill="#FFD239" transform="translate(82,161)"/>
</svg>
