<?xml version="1.0" encoding="UTF-8"?>
<svg id="Camada_2" data-name="Camada 2" xmlns="http://www.w3.org/2000/svg" viewBox="0 0 1521.18 595.28">
  <defs>
    <style>
      .cls-1 {
        fill: #d3bef6;
      }

      .cls-1, .cls-2, .cls-3, .cls-4, .cls-5 {
        opacity: .53;
        stroke-width: 0px;
      }

      .cls-2 {
        fill: #eadffa;
      }

      .cls-3 {
        fill: #e1d2f9;
      }

      .cls-4 {
        fill: #d2bdf5;
      }

      .cls-5 {
        fill: #cab0f4;
      }
    </style>
  </defs>
  <rect class="cls-4" x="197.46" y="470.44" width="97.84" height="97.84" rx="11.08" ry="11.08" transform="translate(-199.67 156.76) rotate(-25.51)"/>
  <rect class="cls-2" x="71.24" y="74.84" width="115.9" height="115.9" rx="8.95" ry="8.95" transform="translate(-34.24 45.53) rotate(-17.69)"/>
  <circle class="cls-5" cx="92.04" cy="349.6" r="84.76"/>
  <circle class="cls-1" cx="416.77" cy="294.26" r="67.39"/>
  <circle class="cls-3" cx="404.48" cy="66.33" r="39.03"/>
  <circle class="cls-3" cx="428.02" cy="483.08" r="38.71"/>
  <rect class="cls-2" x="529.66" y="365.79" width="144.78" height="144.78" rx="12.55" ry="12.55" transform="translate(274.94 -230.75) rotate(27.89)"/>
  <rect class="cls-4" x="1215.14" y="304.22" width="97.84" height="97.84" rx="11.08" ry="11.08" transform="translate(-43.22 469.68) rotate(-20.7)"/>
  <rect class="cls-2" x="1339.87" y="426.81" width="117.26" height="117.26" rx="8.95" ry="8.95" transform="translate(-74.78 340.87) rotate(-13.54)"/>
  <circle class="cls-5" cx="1424.74" cy="210.49" r="84.76"/>
  <circle class="cls-1" cx="1171.9" cy="518.75" r="67.39"/>
  <circle class="cls-3" cx="1383.63" cy="43.96" r="39.03"/>
  <circle class="cls-3" cx="890.01" cy="463.54" r="38.71"/>
  <rect class="cls-2" x="983.67" y="270.91" width="144.78" height="144.78" rx="12.55" ry="12.55" transform="translate(313.13 -482.04) rotate(30)"/>
</svg>