<?xml version="1.0" encoding="UTF-8"?>
<svg id="Camada_2" data-name="Camada 2" xmlns="http://www.w3.org/2000/svg" viewBox="0 0 992.61 597.46">
  <defs>
    <style>
      .cls-1 {
        fill: #d3bef6;
      }

      .cls-1, .cls-2, .cls-3, .cls-4, .cls-5 {
        opacity: .53;
        stroke-width: 0px;
      }

      .cls-2 {
        fill: #eadffa;
      }

      .cls-3 {
        fill: #e1d2f9;
      }

      .cls-4 {
        fill: #d2bdf5;
      }

      .cls-5 {
        fill: #cab0f4;
      }
    </style>
  </defs>
  <rect class="cls-2" x="218.36" y="394.05" width="88.85" height="88.85" rx="7.36" ry="7.36" transform="translate(-124.4 104.7) rotate(-18.3)"/>
  <rect class="cls-2" x="98.26" y="12.88" width="73.91" height="73.91" rx="8.95" ry="8.95" transform="translate(39.18 -57.61) rotate(27.98)"/>
  <circle class="cls-5" cx="75.89" cy="172.58" r="53.71"/>
  <circle class="cls-1" cx="244.43" cy="292.63" r="42.49"/>
  <circle class="cls-3" cx="301.76" cy="189.71" r="24.17"/>
  <rect class="cls-4" x="94.47" y="264.58" width="60.73" height="60.73" rx="5.35" ry="5.35" transform="translate(110.68 -25.02) rotate(20.41)"/>
  <circle class="cls-3" cx="151.31" cy="393.05" r="24.17"/>
  <rect class="cls-2" x="661.58" y="387.98" width="90.17" height="90.17" rx="7.36" ry="7.36" transform="translate(-120.83 386.51) rotate(-28.28)"/>
  <rect class="cls-2" x="910.05" y="368.25" width="73.91" height="73.91" rx="8.95" ry="8.95" transform="translate(141.42 -236.7) rotate(15.38)"/>
  <circle class="cls-5" cx="806.14" cy="304.67" r="53.71"/>
  <circle class="cls-1" cx="894.12" cy="537.83" r="42.49"/>
  <circle class="cls-3" cx="916.75" cy="232.11" r="24.17"/>
  <rect class="cls-4" x="803.41" y="406.06" width="60.73" height="60.73" rx="5.35" ry="5.35" transform="translate(79.69 -126.6) rotate(9.12)"/>
  <circle class="cls-3" cx="703.24" cy="272.9" r="24.17"/>
</svg>