<?xml version="1.0" encoding="UTF-8"?>
<svg version="1.1" xmlns="http://www.w3.org/2000/svg" width="210" height="210">
<path d="M0 0 C69.3 0 138.6 0 210 0 C210 69.3 210 138.6 210 210 C140.7 210 71.4 210 0 210 C0 140.7 0 71.4 0 0 Z " fill="#C6EDFD" transform="translate(0,0)"/>
<path d="M0 0 C34.65 0 69.3 0 105 0 C105 60.72 105 121.44 105 184 C70.35 184 35.7 184 0 184 C0 175.75 0 167.5 0 159 C2.32208496 158.98018066 4.64416992 158.96036133 7.03662109 158.93994141 C14.69619158 158.87312938 22.35562446 158.79548881 30.01503563 158.71247292 C34.66038381 158.66245931 39.30570869 158.61612991 43.95117188 158.578125 C48.43164384 158.54133592 52.91192316 158.49499376 57.39223099 158.44193649 C59.104271 158.42335851 60.81635236 158.40826322 62.52845383 158.39665604 C64.92070122 158.37985148 67.31250412 158.35083148 69.70458984 158.31884766 C70.41740616 158.31668747 71.13022247 158.31452728 71.86463928 158.31230164 C75.87885915 158.34886778 75.87885915 158.34886778 79 156 C79.29296143 153.4916408 79.29296143 153.4916408 79.22705078 150.54052734 C79.22689972 149.39949554 79.22674866 148.25846375 79.22659302 147.08285522 C79.21627045 145.84637238 79.20594788 144.60988953 79.1953125 143.3359375 C79.1924826 142.07359283 79.18965271 140.81124817 79.18673706 139.51065063 C79.17742131 136.15353056 79.15944835 132.79668088 79.1373291 129.43963623 C79.1168755 126.01446878 79.1077364 122.58927341 79.09765625 119.1640625 C79.07556458 112.44263329 79.04206377 105.72133227 79 99 C75.25663193 97.81682857 71.54758219 97.82726226 67.66113281 97.79467773 C66.91723675 97.78464501 66.17334068 97.77461229 65.40690231 97.76427555 C63.00567459 97.73296416 60.60443031 97.70814986 58.203125 97.68359375 C56.71793081 97.66518351 55.23274186 97.64634646 53.74755859 97.6270752 C48.24843426 97.55871122 42.74920978 97.49860487 37.25 97.4375 C24.9575 97.293125 12.665 97.14875 0 97 C0 64.99 0 32.98 0 0 Z " fill="#9ED9FD" transform="translate(105,26)"/>
<path d="M0 0 C1.94335236 -0.01268921 1.94335236 -0.01268921 3.92596436 -0.02563477 C5.36486942 -0.01980164 6.80377324 -0.01365712 8.24267578 -0.00723267 C9.75547668 -0.01129699 11.26827461 -0.01663809 12.78106689 -0.02316284 C16.8926036 -0.03685887 21.0039149 -0.03152844 25.11545563 -0.02202559 C29.41421627 -0.01444079 33.71295736 -0.02147131 38.01171875 -0.02618408 C45.23131787 -0.03164509 52.45082499 -0.024441 59.67041016 -0.01016235 C68.02233948 0.00616485 76.37404913 0.00087658 84.72597313 -0.01564157 C91.89122081 -0.02924664 99.05640228 -0.0311809 106.22165871 -0.02332556 C110.50358304 -0.01864364 114.78540404 -0.01803838 119.06732178 -0.02793503 C123.09256038 -0.03658823 127.1175152 -0.03061318 131.14272308 -0.01325226 C132.62178831 -0.00927856 134.10087734 -0.01043652 135.57993317 -0.01704025 C137.59527241 -0.02521016 139.61066372 -0.01315908 141.62597656 0 C142.75496368 0.00113108 143.88395081 0.00226215 145.04714966 0.00342751 C147.81298828 0.38095093 147.81298828 0.38095093 149.67586708 1.75297356 C151.31508458 4.09978496 151.19410843 5.87770123 151.20117188 8.7227478 C151.21062836 9.81397949 151.22008484 10.90521118 151.22982788 12.0295105 C151.22071884 13.79675476 151.22071884 13.79675476 151.21142578 15.59970093 C151.21573105 17.41383484 151.21573105 17.41383484 151.22012329 19.26461792 C151.22216614 21.82341988 151.21662096 24.38223737 151.20410156 26.94100952 C151.18805207 30.86535447 151.2039439 34.78866939 151.22314453 38.71298218 C151.22116214 41.19605738 151.21731855 43.67913193 151.21142578 46.16220093 C151.21749847 47.34036377 151.22357117 48.51852661 151.22982788 49.73239136 C151.21564316 51.36923889 151.21564316 51.36923889 151.20117188 53.03915405 C151.1987851 54.0005127 151.19639832 54.96187134 151.19393921 55.95236206 C150.72781237 58.92395331 150.21697536 59.61039846 147.81298828 61.38095093 C145.04714966 61.75847435 145.04714966 61.75847435 141.62597656 61.76190186 C140.33040833 61.77036133 139.03484009 61.7788208 137.70001221 61.78753662 C136.26110715 61.7817035 134.82220332 61.77555897 133.38330078 61.76913452 C131.87049988 61.77319885 130.35770195 61.77853995 128.84490967 61.7850647 C124.73337296 61.79876072 120.62206167 61.7934303 116.51052094 61.78392744 C112.21176029 61.77634265 107.9130192 61.78337316 103.61425781 61.78808594 C96.39465869 61.79354694 89.17515157 61.78634286 81.95556641 61.77206421 C73.60363708 61.75573701 65.25192744 61.76102527 56.90000343 61.77754343 C49.73475575 61.7911485 42.56957428 61.79308276 35.40431786 61.78522742 C31.12239352 61.7805455 26.84057252 61.77994024 22.55865479 61.78983688 C18.53341618 61.79849008 14.50846136 61.79251504 10.48325348 61.77515411 C9.00418825 61.77118042 7.52509922 61.77233838 6.0460434 61.77894211 C4.03070415 61.78711202 2.01531284 61.77506093 0 61.76190186 C-1.12898712 61.76077078 -2.25797424 61.7596397 -3.4211731 61.75847435 C-6.18701172 61.38095093 -6.18701172 61.38095093 -8.04989052 60.0089283 C-9.68910802 57.66211689 -9.56813187 55.88420063 -9.57519531 53.03915405 C-9.58465179 51.94792236 -9.59410828 50.85669067 -9.60385132 49.73239136 C-9.59777863 48.55422852 -9.59170593 47.37606567 -9.58544922 46.16220093 C-9.58975449 44.34806702 -9.58975449 44.34806702 -9.59414673 42.49728394 C-9.59618958 39.93848198 -9.5906444 37.37966448 -9.578125 34.82089233 C-9.5620755 30.89654739 -9.57796734 26.97323246 -9.59716797 23.04891968 C-9.59518558 20.56584448 -9.59134199 18.08276992 -9.58544922 15.59970093 C-9.59455826 13.83245667 -9.59455826 13.83245667 -9.60385132 12.0295105 C-9.59439484 10.93827881 -9.58493835 9.84704712 -9.57519531 8.7227478 C-9.57280853 7.76138916 -9.57042175 6.80003052 -9.56796265 5.80953979 C-8.68330037 0.16975578 -5.09351702 0.00510294 0 0 Z " fill="#DEDEF2" transform="translate(34.18701171875,123.61904907226563)"/>
<path d="M0 0 C0.75146301 -0.00043808 1.50292603 -0.00087616 2.27716064 -0.00132751 C4.76096582 0.0007625 7.24409595 0.02410292 9.7277832 0.04760742 C11.44985078 0.05320264 13.17192313 0.05747309 14.89399719 0.06047058 C19.42657657 0.07192526 23.95886757 0.10139772 28.49133301 0.13458252 C33.929487 0.1706654 39.36773742 0.1844416 44.80597687 0.20194244 C53.0678733 0.23103481 61.32913698 0.28851735 69.59106445 0.34057617 C69.59106445 20.47057617 69.59106445 40.60057617 69.59106445 61.34057617 C50.49481468 61.4609026 50.49481468 61.4609026 42.36645508 61.48706055 C36.81599343 61.50500703 31.26567997 61.52625723 25.71533203 61.56689453 C21.24144172 61.59944617 16.76771029 61.61742032 12.29371071 61.6252079 C10.58522858 61.63075897 8.87675533 61.64159867 7.16834068 61.65776634 C4.77870133 61.67948521 2.38972187 61.68254548 0 61.68115234 C-0.70922104 61.69193817 -1.41844208 61.702724 -2.14915466 61.71383667 C-4.924859 61.69628032 -6.94946753 61.62197914 -9.34773254 60.15315247 C-10.7999198 57.67275975 -10.78999157 55.86965479 -10.79711914 52.9987793 C-10.80657562 51.90754761 -10.8160321 50.81631592 -10.82577515 49.6920166 C-10.81970245 48.51385376 -10.81362976 47.33569092 -10.80737305 46.12182617 C-10.81167831 44.30769226 -10.81167831 44.30769226 -10.81607056 42.45690918 C-10.81811341 39.89810722 -10.81256823 37.33928973 -10.80004883 34.78051758 C-10.78399933 30.85617263 -10.79989117 26.93285771 -10.8190918 23.00854492 C-10.81710941 20.52546972 -10.81326582 18.04239517 -10.80737305 15.55932617 C-10.81648209 13.79208191 -10.81648209 13.79208191 -10.82577515 11.98913574 C-10.81631866 10.89790405 -10.80686218 9.80667236 -10.79711914 8.68237305 C-10.79473236 7.7210144 -10.79234558 6.75965576 -10.78988647 5.76916504 C-10.40893555 3.34057617 -10.40893555 3.34057617 -9.34773254 1.52799988 C-6.37130901 -0.29492221 -3.38368402 -0.05145904 0 0 Z " fill="#F4F4FC" transform="translate(35.408935546875,123.659423828125)"/>
<path d="M0 0 C34.65 0 69.3 0 105 0 C105 8.58 105 17.16 105 26 C70.35 26 35.7 26 0 26 C0 17.42 0 8.84 0 0 Z " fill="#DFDFF2" transform="translate(105,0)"/>
<path d="M0 0 C34.65 0 69.3 0 105 0 C105 8.58 105 17.16 105 26 C70.35 26 35.7 26 0 26 C0 17.42 0 8.84 0 0 Z " fill="#F4F4FB" transform="translate(0,0)"/>
<path d="M0 0 C2.29013653 3.4352048 2.17842973 4.985331 2 9 C2.61520508 8.97905273 3.23041016 8.95810547 3.86425781 8.93652344 C6.65933809 8.85322983 9.45415715 8.80129987 12.25 8.75 C13.70212891 8.69972656 13.70212891 8.69972656 15.18359375 8.6484375 C22.3610725 8.54943779 22.3610725 8.54943779 25.63671875 10.859375 C27 13 27 13 27.5625 15.5 C27 18 27 18 25 20.3125 C20.99741418 22.56395452 18.53996635 22.30779433 14 22 C13.9175 23.27875 13.835 24.5575 13.75 25.875 C12.99611402 32.79108441 10.13409661 38.85829498 7 45 C12.34553249 46.8955789 17.55383348 48.42710408 23.15234375 49.375 C25 50 25 50 27 53 C26.8125 56.0625 26.8125 56.0625 26 59 C21.97377938 61.68414708 18.65414035 61.55532356 14 61 C8.35611418 59.61515765 2.86193438 58.24128959 -2 55 C-5.71158685 55.3959026 -9.02784356 56.67355822 -12.5 58 C-18.78167346 60.39974042 -24.28873956 61.53263972 -31 61 C-33.5625 59.375 -33.5625 59.375 -35 57 C-34.9375 53.875 -34.9375 53.875 -34 51 C-30.57240444 48.71493629 -27.96336932 48.23268205 -23.9375 47.4375 C-19.33241145 46.62213292 -19.33241145 46.62213292 -15 45 C-15.98195208 42.52090125 -16.97701708 40.05316426 -18.03515625 37.60546875 C-20.28143442 32.31860111 -21.57544317 27.73151717 -22 22 C-23.216875 22.103125 -24.43375 22.20625 -25.6875 22.3125 C-29.27437148 22.3125 -29.95411164 22.0327774 -33.0625 19.8125 C-35 17 -35 17 -35 14.375 C-33.92836971 11.82987807 -33.15722269 10.69550028 -31 9 C-28.73168945 8.65942383 -28.73168945 8.65942383 -26.11328125 8.70703125 C-24.7065918 8.7215332 -24.7065918 8.7215332 -23.27148438 8.73632812 C-22.29501953 8.76146484 -21.31855469 8.78660156 -20.3125 8.8125 C-18.83040039 8.83280273 -18.83040039 8.83280273 -17.31835938 8.85351562 C-14.87835769 8.88887797 -12.43945281 8.93822967 -10 9 C-10.02191406 8.04867187 -10.04382813 7.09734375 -10.06640625 6.1171875 C-10 3 -10 3 -8.9375 1.125 C-5.90185629 -0.63763183 -3.42201828 -0.37331109 0 0 Z " fill="#252D35" transform="translate(146,50)"/>
<path d="M0 0 C1.71531677 2.17425537 1.71531677 2.17425537 3.08374023 4.90527344 C3.60705429 5.92683533 4.13036835 6.94839722 4.66954041 8.00091553 C5.21042801 9.10920715 5.75131561 10.21749878 6.30859375 11.359375 C7.16506248 13.0650766 7.16506248 13.0650766 8.03883362 14.80523682 C9.24121338 17.21195524 10.43492394 19.62101999 11.6159668 22.03808594 C13.12707186 25.12843258 14.66969848 28.20168324 16.22306728 31.27096176 C17.70526662 34.20908141 19.16223783 37.15961241 20.62109375 40.109375 C21.17615097 41.2095697 21.73120819 42.3097644 22.30308533 43.44329834 C22.80433426 44.47746887 23.30558319 45.5116394 23.82202148 46.57714844 C24.26803207 47.48156677 24.71404266 48.38598511 25.17356873 49.31781006 C26.19682667 52.63880267 25.98045998 54.68339798 25 58 C22 60 22 60 18.625 60.25 C15 59 15 59 10 49 C0.1 49 -9.8 49 -20 49 C-22.475 53.455 -22.475 53.455 -25 58 C-25.66 58.66 -26.32 59.32 -27 60 C-30.5 59.8125 -30.5 59.8125 -34 59 C-36 56 -36 56 -35.77156067 53.13995361 C-35.01913924 50.07788932 -34.05039427 47.58138577 -32.6550293 44.76074219 C-32.1674968 43.76661316 -31.67996429 42.77248413 -31.17765808 41.74822998 C-30.6485231 40.69178284 -30.11938812 39.63533569 -29.57421875 38.546875 C-29.03021927 37.45030579 -28.48621979 36.35373657 -27.92573547 35.22393799 C-26.7756153 32.91223154 -25.62131738 30.60259953 -24.46313477 28.29492188 C-22.69043217 24.75585387 -20.93933933 21.20664403 -19.18945312 17.65625 C-18.06900555 15.41081057 -16.94730334 13.16599666 -15.82421875 10.921875 C-15.30115646 9.85733093 -14.77809418 8.79278687 -14.23918152 7.69598389 C-13.74219254 6.7144635 -13.24520355 5.73294312 -12.7331543 4.72167969 C-12.0848188 3.42312042 -12.0848188 3.42312042 -11.42338562 2.09832764 C-8.14988281 -2.72740709 -5.03565471 -2.44974268 0 0 Z " fill="#374352" transform="translate(73,51)"/>
<path d="M0 0 C8.58 0 17.16 0 26 0 C26 8.58 26 17.16 26 26 C17.42 26 8.84 26 0 26 C0 17.42 0 8.84 0 0 Z " fill="#CA1468" transform="translate(184,0)"/>
<path d="M0 0 C0.66 0 1.32 0 2 0 C3.17407021 2.26727333 4.33939739 4.53834624 5.5 6.8125 C5.83386719 7.45509766 6.16773437 8.09769531 6.51171875 8.75976562 C8.00239084 11.69547699 9 13.66126517 9 17 C3.39 17 -2.22 17 -8 17 C-5.36 11.39 -2.72 5.78 0 0 Z " fill="#BADFEF" transform="translate(67,70)"/>
<path d="M0 0 C3.63 0 7.26 0 11 0 C9.14285714 9.57142857 9.14285714 9.57142857 6 14 C3 13 3 13 1.3125 9.8125 C-0.01535157 6.4652075 -0.26451861 3.61508773 0 0 Z " fill="#9CD6F9" transform="translate(137,72)"/>
</svg>
