<?xml version="1.0" encoding="UTF-8"?>
<svg id="Camada_2" data-name="Camada 2" xmlns="http://www.w3.org/2000/svg" viewBox="0 0 394.23 623.72">
  <defs>
    <style>
      .cls-1 {
        fill: #583a8f;
        stroke-width: 0px;
      }
    </style>
  </defs>
  <path class="cls-1" d="M192.25,371.7c-23.24-.58-36.74,9.35-40.94,26.41-.03.11.08.23.2.23h82.29c.13,0,.23-.11.2-.23-4.21-17.06-17.71-26.99-40.94-26.41h-.81Z"/>
  <path class="cls-1" d="M347.43,530.28l-21.02-13.78c-.45-.3-1.06-.15-1.34.32-10.79,18.08-23.01,27.55-36.56,29.1-.63.07-1.03.7-.8,1.29l12.6,33.05c.34.9,1.28,1.41,2.23,1.22,10.88-2.19,25.42-8.29,44.31-19.06.6-.34.98-.98.99-1.67l.48-28.79c.01-.67-.32-1.3-.88-1.67h-.01Z"/>
  <path class="cls-1" d="M282.14,549.67c-.45-1.16-1.57-1.91-2.81-1.93-19.28-.22-31.91-4.69-38.57-12.98-9.42-12.37-11.32-25.27-2.12-38.94.55-.81,1.8-.59,2.04.36,2.55,9.78,7.21,15.02,14.47,14.67,5.14-.46,8.57-3.4,9.75-12.58,1.13-8.75-14.29-26.24-30.64-34.84-1.2-.63-2.67.04-3.01,1.36-8.22,32.35-22.23,51.22-38.61,51.57-16.6.35-33.01-20.67-41.06-57.37-.15-.68-.93-1.01-1.51-.63-37.95,21.27-75.67,45.81-113.21,72.88-.74.53-1.2,1.37-1.25,2.27l-1.67,26.79c-.08,1.27.65,2.46,1.81,2.96l43.36,18.83c1.57.68,3.39-.07,4.02-1.66l14.54-36.67c.49-1.24.48-2.62-.03-3.86l-4.23-9.44c-.31-.75.47-1.58,1.19-1.2,2.87,1.52,5.24,4.59,7.77,8.28.96,1.41,1.28,3.87.68,5.47l-14.74,39.77c-.44,1.18.31,2.46,1.55,2.67,0,0,55.75,18.89,102.06,17.09,44.03-1.71,68.15-9.09,100.36-17.58,1.75-.46,2.72-2.35,2.06-4.04l-12.19-31.25h-.01Z"/>
  <path class="cls-1" d="M203.15,502.71l-8.36-31.7c-.07-.28.12-.56.41-.58l3.73-.32c.59-.05,1.09-.48,1.19-1.06.75-3.97.43-7.66-1.06-11.05-.21-.47-.69-.77-1.21-.77h-5.7s-5.71,0-5.71,0c-.52,0-1,.3-1.21.77-1.49,3.39-1.81,7.08-1.06,11.05.11.58.61,1.01,1.19,1.06l3.73.32c.29.02.48.3.41.58l-8.36,31.7h0c-.34,1.27-.2,2.64.46,3.78,2.48,4.3,5.98,6.46,10.54,6.41h0s0,0,0,0,0,0,0,0h0c4.55.05,8.05-2.11,10.54-6.41h0c.66-1.14.79-2.51.46-3.78Z"/>
  <path class="cls-1" d="M355.58,220.57c-1.51-23.69-5.23-47.46-13.08-69.92-6.71-19.21-16.6-37.42-30.4-52.48-13.57-14.8-30.57-26-49.21-33.36-22.28-8.78-46.35-12.26-70.18-12.82h-1.13c-23.83.56-47.9,4.04-70.17,12.82-18.65,7.36-35.64,18.55-49.21,33.36-13.8,15.06-23.39,33.37-30.4,52.48-7.73,21.03-10.97,39.04-12.66,63.08-.29,4.12-.42,8.26-.38,12.39.87,89.73,5.46,155.49,20.88,199.21,11.28,39.97,47.89,45.6,66.54,43.64,2.05-.22,4.05-.81,5.9-1.72l49.45-24c.36-.17.59-.54.59-.94l.05-10.25c0-.32.3-.56.61-.48,2.35.6,11.11,2.64,19.93,2.36,10.34-.33,12.13-.39,18.22-2.25.31-.09.63.12.65.45l.55,10.21c0,.25.11.48.28.67,14.83,15.89,53.16,27.39,55.8,54.75.34,13.18-8.91,18.09-15,18.3-7.34-.04-14.52-7.23-14.12-14.9,0-.08-.11-.09-.13-.01-1.21,5.17-2.21,8.94-1.7,14.26,2.08,21.94,28.16,28.94,46.86,25.67,11.59-2.02,21.37-8.47,28.59-17.67,9.73-12.42,15.07-28,19.14-43.05,6.37-23.53,11.93-45.52,14.7-69.7,3.89-34.01,7.71-57.09,9.85-97.71,1.5-28.48,1-63.88-.81-92.37v-.02ZM290.66,427.83c-.7,1.1-2.39.28-1.98-.96,4.47-13.41,7.42-30.42,3.3-46.5-.17-.67-.99-.93-1.53-.51-35.07,27.01-64.02,46.14-97.02,50.13-.11.01-.22.02-.33.02h-.88c-.12,0-.24,0-.37-.02-32.99-3.99-61.95-23.12-97-50.12-.55-.42-1.36-.16-1.53.51-4.12,16.07-1.16,33.09,3.3,46.5.41,1.24-1.27,2.06-1.98.96-6.48-10.11-8.54-29.65-5.06-49.89,4.11-23.91,18.77-50.6,54.77-96.69,13.84-17.69,44.49-61.97,47.63-107.49.45-2.12.89-2.12,1.34,0,3.14,45.51,33.79,89.79,47.63,107.49,36,46.09,50.66,72.77,54.77,96.69,3.48,20.24,1.42,39.77-5.06,49.89h0Z"/>
</svg>