<?xml version="1.0" encoding="UTF-8"?>
<svg version="1.1" xmlns="http://www.w3.org/2000/svg" width="210" height="210">
<path d="M0 0 C1.19570114 -0.0098568 1.19570114 -0.0098568 2.41555786 -0.01991272 C5.05544125 -0.0396331 7.69526772 -0.05130685 10.33520508 -0.0612793 C11.23817133 -0.06535482 12.14113758 -0.06943035 13.07146645 -0.07362938 C17.85281775 -0.09448692 22.63414039 -0.10878878 27.41552734 -0.11816406 C32.34390701 -0.1292147 37.27183347 -0.1635999 42.20005322 -0.20333576 C45.99801955 -0.22953797 49.79587862 -0.2378592 53.59392738 -0.24144554 C55.409926 -0.24630389 57.22592007 -0.2578964 59.04183006 -0.27648354 C61.59074687 -0.30094724 64.13850066 -0.29989685 66.6875 -0.29296875 C67.43013596 -0.30577881 68.17277191 -0.31858887 68.93791199 -0.33178711 C75.29464867 -0.26918041 80.65912643 1.69744739 85.22583008 6.2121582 C85.68086914 6.88118164 86.1359082 7.55020508 86.60473633 8.23950195 C87.07782227 8.91110352 87.5509082 9.58270508 88.03833008 10.2746582 C90.50136714 14.42517394 90.32776721 18.43321675 90.34423828 23.1015625 C90.35080948 23.90845016 90.35738068 24.71533783 90.364151 25.54667664 C90.38387243 28.21902563 90.39554533 30.89131839 90.40551758 33.5637207 C90.40959311 34.47771952 90.41366863 35.39171833 90.41786766 36.33341408 C90.43872559 41.1731201 90.45302732 46.01279782 90.46240234 50.85253906 C90.47345344 55.84145039 90.5078391 60.82991406 90.54757404 65.81866741 C90.57377419 69.6629568 90.5820973 73.50714019 90.58568382 77.351511 C90.59054265 79.18983794 90.60213653 81.02816036 90.62072182 82.86639977 C90.64518119 85.44644535 90.64413588 88.02534169 90.63720703 90.60546875 C90.65642212 91.73344879 90.65642212 91.73344879 90.67602539 92.88421631 C90.61396039 99.26115854 88.58849057 104.43291381 84.35083008 109.2355957 C83.77461914 109.69063477 83.1984082 110.14567383 82.60473633 110.61450195 C82.02594727 111.08758789 81.4471582 111.56067383 80.85083008 112.0480957 C78.03094275 113.93892502 76.17398449 114.17735301 72.78833008 114.0012207 C59.73799183 113.40234939 52.64419023 118.88704037 43.23095703 127.45361328 C40.70097796 129.56636879 37.90978945 131.3486332 35.16723633 133.17700195 C35.16723633 127.23700195 35.16723633 121.29700195 35.16723633 115.17700195 C33.90129639 115.1927124 32.63535645 115.20842285 31.33105469 115.22460938 C26.6141603 115.2790936 21.89729351 115.31341925 17.18017578 115.34179688 C15.14236771 115.35684142 13.10459178 115.37728207 11.06689453 115.40332031 C8.13020877 115.43989442 5.19395282 115.45677194 2.25708008 115.4699707 C1.35263657 115.48545456 0.44819305 115.50093842 -0.48365784 115.51689148 C-1.34402145 115.51711807 -2.20438507 115.51734467 -3.09082031 115.51757812 C-3.83916641 115.52423996 -4.58751251 115.53090179 -5.35853577 115.5377655 C-7.83276367 115.17700195 -7.83276367 115.17700195 -14.83276367 112.17700195 C-15.16276367 119.76700195 -15.49276367 127.35700195 -15.83276367 135.17700195 C-13.43639648 135.14219727 -11.0400293 135.10739258 -8.57104492 135.0715332 C-6.24106029 135.04811334 -3.91108894 135.02991067 -1.58105469 135.01220703 C0.03391422 134.9971532 1.64884246 134.97670547 3.26367188 134.95068359 C5.58970188 134.91414909 7.91518974 134.89724181 10.24145508 134.8840332 C11.31830818 134.86080742 11.31830818 134.86080742 12.41691589 134.83711243 C18.31623723 134.83514757 21.13026998 136.38089679 25.44873047 140.1887207 C28.0407837 144.69599894 27.72028166 148.87708243 27.66333008 153.98950195 C27.66478531 155.035979 27.66624054 156.08245605 27.66773987 157.16064453 C27.66608247 159.36957589 27.65453911 161.57851899 27.63378906 163.78735352 C27.60483807 167.16513204 27.61318356 170.54134023 27.6262207 173.91918945 C27.61998291 176.06763457 27.61159165 178.21607474 27.60083008 180.36450195 C27.60376572 181.37295166 27.60670135 182.38140137 27.60972595 183.42041016 C27.49275273 192.13038753 27.49275273 192.13038753 24.16723633 196.17700195 C22.05297112 198.18295439 20.93541256 199.11994539 18.01098633 199.3371582 C17.23754883 199.30493164 16.46411133 199.27270508 15.66723633 199.23950195 C9.11125613 199.63032044 5.14187 203.80550778 0.53833008 208.0246582 C-1.83276367 210.17700195 -1.83276367 210.17700195 -2.83276367 210.17700195 C-2.83276367 206.54700195 -2.83276367 202.91700195 -2.83276367 199.17700195 C-4.01249756 199.21627808 -4.01249756 199.21627808 -5.21606445 199.25634766 C-8.79642584 199.36059672 -12.37646748 199.42541945 -15.95776367 199.48950195 C-17.81401367 199.55234375 -17.81401367 199.55234375 -19.70776367 199.61645508 C-29.98533001 199.75459441 -29.98533001 199.75459441 -33.63745117 196.7824707 C-36.4292815 193.46903506 -36.95806066 192.03332499 -36.94628906 187.8190918 C-36.94617577 186.46791763 -36.94617577 186.46791763 -36.94606018 185.08944702 C-36.9408989 184.11544952 -36.93573761 183.14145203 -36.93041992 182.13793945 C-36.92900497 181.14194733 -36.92759003 180.1459552 -36.9261322 179.11978149 C-36.92052303 175.93049143 -36.90796897 172.7412709 -36.89526367 169.55200195 C-36.89024985 167.3931488 -36.88568674 165.23429455 -36.8815918 163.07543945 C-36.87055062 157.77593646 -36.85380355 152.47647417 -36.83276367 147.17700195 C-39.80895772 148.91579454 -42.62320504 150.68571811 -45.31323242 152.84106445 C-46.22298828 153.56422852 -46.22298828 153.56422852 -47.15112305 154.30200195 C-48.07634766 155.04450195 -48.07634766 155.04450195 -49.02026367 155.80200195 C-55.58276367 161.05200195 -55.58276367 161.05200195 -57.83276367 162.17700195 C-57.83276367 157.22700195 -57.83276367 152.27700195 -57.83276367 147.17700195 C-59.47474731 147.20056763 -59.47474731 147.20056763 -61.14990234 147.22460938 C-65.22192998 147.27902305 -69.29392564 147.31339351 -73.36621094 147.34179688 C-75.12668263 147.35685748 -76.88711697 147.37731021 -78.64746094 147.40332031 C-81.1819787 147.43982424 -83.71599919 147.4567555 -86.25073242 147.4699707 C-87.03425583 147.48545456 -87.81777924 147.50093842 -88.62504578 147.51689148 C-95.00872046 147.51884517 -97.96995941 145.87046037 -102.58276367 141.67700195 C-106.08102955 137.79003986 -105.9677167 134.74364747 -106.00976562 129.68945312 C-106.01633682 129.03541 -106.02290802 128.38136688 -106.02967834 127.70750427 C-106.04937382 125.54499185 -106.06106549 123.38254875 -106.07104492 121.2199707 C-106.07512045 120.47999659 -106.07919598 119.74002247 -106.083395 118.97762489 C-106.10423977 115.06093247 -106.11854834 111.14427492 -106.12792969 107.22753906 C-106.13899086 103.18899423 -106.17339126 99.15100087 -106.21310139 95.11265087 C-106.23928655 92.00103249 -106.24762316 88.88954517 -106.25121117 85.77782631 C-106.25607227 84.28951607 -106.2676728 82.8012115 -106.28624916 81.31300926 C-106.31068307 79.22581022 -106.30966903 77.14003361 -106.30273438 75.05273438 C-106.30860062 73.86709396 -106.31446686 72.68145355 -106.32051086 71.45988464 C-105.56024003 66.34272562 -103.04367026 63.26977131 -99.27026367 59.86450195 C-95.28720902 57.10700258 -92.21325629 57.05086199 -87.48120117 57.04760742 C-86.16974121 57.04445526 -84.85828125 57.0413031 -83.50708008 57.03805542 C-82.07397427 57.03984531 -80.64086876 57.04189629 -79.20776367 57.04418945 C-77.73950179 57.04351585 -76.27124002 57.04254535 -74.80297852 57.04129028 C-71.72630755 57.03981597 -68.64966563 57.04195931 -65.57299805 57.04663086 C-61.62854704 57.05232799 -57.68416408 57.04904756 -53.73971558 57.0430584 C-50.70800259 57.0394456 -47.67630575 57.04059469 -44.64459229 57.04318619 C-43.19012443 57.04385346 -41.73565511 57.04303398 -40.28118896 57.04070663 C-38.24890165 57.03816839 -36.2166092 57.04272273 -34.18432617 57.04760742 C-33.02755371 57.04840302 -31.87078125 57.04919861 -30.67895508 57.05001831 C-27.83276367 57.17700195 -27.83276367 57.17700195 -24.83276367 58.17700195 C-24.82865479 56.88600586 -24.8245459 55.59500977 -24.8203125 54.26489258 C-24.79844616 49.44873812 -24.74407844 44.63339193 -24.68017578 39.81762695 C-24.65706114 37.73827901 -24.64261549 35.65881508 -24.63720703 33.5793457 C-24.62786973 30.57991801 -24.58677431 27.58229834 -24.53979492 24.58325195 C-24.54372757 23.66209595 -24.54766022 22.74093994 -24.55171204 21.79187012 C-24.40897662 15.39515716 -22.89929308 11.15623039 -18.83276367 6.17700195 C-16.69995117 4.3371582 -16.69995117 4.3371582 -14.70776367 3.23950195 C-14.04518555 2.85922852 -13.38260742 2.47895508 -12.69995117 2.0871582 C-8.46336539 0.02204422 -4.60510196 0.01644976 0 0 Z " fill="#F6F2F0" transform="translate(112.832763671875,-0.177001953125)"/>
<path d="M0 0 C1.30177689 -0.00960754 2.60355377 -0.01921509 3.94477844 -0.02911377 C5.3683759 -0.03396215 6.7919754 -0.03824088 8.21557617 -0.04199219 C9.67665101 -0.04774641 11.13772584 -0.05350411 12.59880066 -0.05926514 C15.66287589 -0.06976794 18.72692493 -0.07561512 21.79101562 -0.07910156 C25.70839593 -0.08458084 29.62542771 -0.10859945 33.54269886 -0.13707352 C36.56167089 -0.1557416 39.58055972 -0.16090773 42.59958458 -0.16243744 C44.04321889 -0.16545576 45.48685203 -0.17345654 46.93042946 -0.18662262 C48.95485121 -0.20376635 50.97941722 -0.19994607 53.00390625 -0.1953125 C54.15401688 -0.19895813 55.3041275 -0.20260376 56.48908997 -0.20635986 C60.77627846 0.28491937 64.14031974 1.74213407 67.34057617 4.66113281 C71.11088641 9.50327038 71.82109351 12.51062337 71.80957031 18.56030273 C71.80971634 19.20447647 71.80986237 19.84865021 71.81001282 20.51234436 C71.80931687 22.63879784 71.8015394 24.76516341 71.79370117 26.89160156 C71.79183586 28.36704968 71.79041249 29.84249843 71.78941345 31.31794739 C71.78559718 35.19938876 71.77577448 39.08079266 71.76470947 42.96221924 C71.75447623 46.9237009 71.74991173 50.88518862 71.74487305 54.84667969 C71.73415142 62.61818114 71.71708568 70.38965172 71.69604492 78.16113281 C72.69982178 78.14542236 73.70359863 78.12971191 74.73779297 78.11352539 C78.47436447 78.05908168 82.21090113 78.02473055 85.94775391 77.99633789 C87.56272281 77.98128406 89.17765105 77.96083633 90.79248047 77.93481445 C93.11851047 77.89827995 95.44399833 77.88137267 97.77026367 77.86816406 C98.84711678 77.84493828 98.84711678 77.84493828 99.94572449 77.82124329 C105.84504582 77.81927843 108.65907857 79.36502765 112.97753906 83.17285156 C115.56959229 87.6801298 115.24909026 91.86121329 115.19213867 96.97363281 C115.1935939 98.02010986 115.19504913 99.06658691 115.19654846 100.14477539 C115.19489106 102.35370675 115.1833477 104.56264985 115.16259766 106.77148438 C115.13364666 110.1492629 115.14199216 113.52547109 115.1550293 116.90332031 C115.1487915 119.05176543 115.14040024 121.20020559 115.12963867 123.34863281 C115.13257431 124.35708252 115.13550995 125.36553223 115.13853455 126.40454102 C115.02156133 135.11451839 115.02156133 135.11451839 111.69604492 139.16113281 C109.58177972 141.16708525 108.46422115 142.10407624 105.53979492 142.32128906 C104.76635742 142.2890625 103.99291992 142.25683594 103.19604492 142.22363281 C96.64006473 142.6144513 92.67067859 146.78963864 88.06713867 151.00878906 C85.69604492 153.16113281 85.69604492 153.16113281 84.69604492 153.16113281 C84.69604492 149.53113281 84.69604492 145.90113281 84.69604492 142.16113281 C83.51631104 142.20040894 83.51631104 142.20040894 82.31274414 142.24047852 C78.73238276 142.34472758 75.15234111 142.40955031 71.57104492 142.47363281 C69.71479492 142.53647461 69.71479492 142.53647461 67.82104492 142.60058594 C57.54347858 142.73872527 57.54347858 142.73872527 53.89135742 139.76660156 C51.09952709 136.45316592 50.57074793 135.01745585 50.58251953 130.80322266 C50.58263283 129.45204849 50.58263283 129.45204849 50.58274841 128.07357788 C50.5879097 127.09958038 50.59307098 126.12558289 50.59838867 125.12207031 C50.59980362 124.12607819 50.60121857 123.13008606 50.60267639 122.10391235 C50.60828556 118.91462229 50.62083963 115.72540176 50.63354492 112.53613281 C50.63855874 110.37727966 50.64312185 108.21842541 50.6472168 106.05957031 C50.65825797 100.76006731 50.67500505 95.46060503 50.69604492 90.16113281 C47.71985087 91.8999254 44.90560355 93.66984896 42.21557617 95.82519531 C41.60907227 96.30730469 41.00256836 96.78941406 40.37768555 97.28613281 C39.76086914 97.78113281 39.14405273 98.27613281 38.50854492 98.78613281 C31.94604492 104.03613281 31.94604492 104.03613281 29.69604492 105.16113281 C29.69604492 100.21113281 29.69604492 95.26113281 29.69604492 90.16113281 C28.60138916 90.17684326 27.5067334 90.19255371 26.37890625 90.20874023 C22.30687861 90.26315391 18.23488295 90.29752437 14.16259766 90.32592773 C12.40212596 90.34098834 10.64169162 90.36144107 8.88134766 90.38745117 C6.34682989 90.4239551 3.8128094 90.44088636 1.27807617 90.45410156 C0.49455276 90.46958542 -0.28897064 90.48506927 -1.09623718 90.50102234 C-7.47991186 90.50297603 -10.44115082 88.85459123 -15.05395508 84.66113281 C-18.55222096 80.77417072 -18.43890811 77.72777833 -18.48095703 72.67358398 C-18.48752823 72.01954086 -18.49409943 71.36549774 -18.50086975 70.69163513 C-18.52056523 68.52912271 -18.53225689 66.36667961 -18.54223633 64.20410156 C-18.54631186 63.46412745 -18.55038738 62.72415333 -18.55458641 61.96175575 C-18.57543118 58.04506333 -18.58973974 54.12840578 -18.59912109 50.21166992 C-18.61018226 46.17312509 -18.64458267 42.13513173 -18.68429279 38.09678173 C-18.71047796 34.98516335 -18.71881457 31.87367603 -18.72240257 28.76195717 C-18.72726367 27.27364693 -18.73886421 25.78534236 -18.75744057 24.29714012 C-18.78187447 22.20994108 -18.78086044 20.12416447 -18.77392578 18.03686523 C-18.77979202 16.85122482 -18.78565826 15.66558441 -18.79170227 14.4440155 C-18.03143144 9.32685648 -15.51486166 6.25390217 -11.74145508 2.84863281 C-7.78145827 0.10709656 -4.70535284 0.02799294 0 0 Z " fill="#72D1FA" transform="translate(25.303955078125,56.8388671875)"/>
<path d="M0 0 C1.35677101 -0.01429802 1.35677101 -0.01429802 2.74095154 -0.02888489 C3.71081497 -0.02797348 4.68067841 -0.02706207 5.67993164 -0.02612305 C6.68343155 -0.03040817 7.68693146 -0.0346933 8.72084045 -0.03910828 C10.84155524 -0.04484715 12.9622897 -0.0453551 15.08300781 -0.04101562 C18.32464234 -0.03785685 21.56536312 -0.06131669 24.80688477 -0.08666992 C26.86873257 -0.08894309 28.93058283 -0.08964633 30.99243164 -0.08862305 C31.96027084 -0.09783279 32.92811005 -0.10704254 33.92527771 -0.11653137 C40.47901776 -0.07155683 43.71165922 0.90191853 48.68408203 5.28637695 C51.27613526 9.79365519 50.95563323 13.97473868 50.89868164 19.0871582 C50.90013687 20.13363525 50.9015921 21.1801123 50.90309143 22.25830078 C50.90143403 24.46723214 50.88989067 26.67617524 50.86914062 28.88500977 C50.84018963 32.26278829 50.84853513 35.63899648 50.86157227 39.0168457 C50.85533447 41.16529082 50.84694321 43.31373099 50.83618164 45.4621582 C50.83911728 46.47060791 50.84205292 47.47905762 50.84507751 48.51806641 C50.72810429 57.22804378 50.72810429 57.22804378 47.40258789 61.2746582 C45.28832269 63.28061064 44.17076412 64.21760164 41.24633789 64.43481445 C40.47290039 64.40258789 39.69946289 64.37036133 38.90258789 64.3371582 C32.3466077 64.72797669 28.37722156 68.90316403 23.77368164 73.12231445 C21.40258789 75.2746582 21.40258789 75.2746582 20.40258789 75.2746582 C20.40258789 71.6446582 20.40258789 68.0146582 20.40258789 64.2746582 C19.222854 64.31393433 19.222854 64.31393433 18.01928711 64.35400391 C14.43892573 64.45825297 10.85888408 64.5230757 7.27758789 64.5871582 C6.04008789 64.62905273 4.80258789 64.67094727 3.52758789 64.71411133 C-6.74997845 64.85225066 -6.74997845 64.85225066 -10.40209961 61.88012695 C-13.25637378 58.49258092 -13.72476448 56.96470155 -13.7902832 52.64477539 C-13.80634613 51.68327576 -13.82240906 50.72177612 -13.83895874 49.73114014 C-13.88341237 45.32687052 -13.92448245 40.92275212 -13.94750977 36.51831055 C-13.96406101 34.19626843 -13.99133977 31.87427709 -14.02954102 29.55249023 C-14.08434957 26.20440234 -14.10619167 22.85750952 -14.12084961 19.5090332 C-14.14351898 18.47445984 -14.16618835 17.43988647 -14.18954468 16.3739624 C-14.16597249 8.3172709 -14.16597249 8.3172709 -11.31469727 4.69750977 C-7.57317911 1.36140679 -5.01671953 0.02913939 0 0 Z " fill="#F99084" transform="translate(89.597412109375,134.725341796875)"/>
<path d="M0 0 C1.9375 0 1.9375 0 4 1 C7.2487687 5.40904324 7.37783501 9.65144164 7.49609375 14.92578125 C6.78890485 19.30812506 4.93008835 23.02854585 3 27 C3.68626465 26.98952637 4.3725293 26.97905273 5.07958984 26.96826172 C8.17802289 26.92678126 11.27639761 26.90069931 14.375 26.875 C15.45523438 26.85824219 16.53546875 26.84148438 17.6484375 26.82421875 C18.6796875 26.81777344 19.7109375 26.81132813 20.7734375 26.8046875 C22.20308838 26.78897705 22.20308838 26.78897705 23.66162109 26.77294922 C26 27 26 27 28 29 C28.19973733 31.70135323 28.27981573 34.29797211 28.265625 37 C28.26849518 38.18722656 28.26849518 38.18722656 28.27142334 39.3984375 C28.27278518 41.0729199 28.26908882 42.74741285 28.26074219 44.421875 C28.2500424 46.98982381 28.26063725 49.55707303 28.2734375 52.125 C28.2721159 53.75000155 28.26955351 55.37500266 28.265625 57 C28.26967346 57.77085938 28.27372192 58.54171875 28.27789307 59.3359375 C28.22992132 64.77007868 28.22992132 64.77007868 26 67 C23.20106763 67.21235493 20.50370446 67.30396365 17.703125 67.30078125 C16.87673523 67.30506638 16.05034546 67.3093515 15.19891357 67.31376648 C13.44707149 67.31951621 11.69520554 67.32000532 9.94335938 67.31567383 C7.27431871 67.31252866 4.60640231 67.33591236 1.9375 67.36132812 C0.23437639 67.36360267 -1.46875018 67.36430389 -3.171875 67.36328125 C-3.96583679 67.372491 -4.75979858 67.38170074 -5.57781982 67.39118958 C-11.86199932 67.33926774 -15.75680324 65.49546451 -21 62 C-22.92143001 52.34956258 -24.02592927 36.73619162 -18.4921875 28.24609375 C-15.66396228 24.7862839 -12.37202723 21.91919959 -9 19 C-5.18320652 14.26750023 -3.40675533 9.87337976 -2.45703125 3.8828125 C-2 2 -2 2 0 0 Z " fill="#FED36C" transform="translate(151,23)"/>
<path d="M0 0 C2.83439137 -0.10901505 5.66450203 -0.18777904 8.5 -0.25 C9.29148438 -0.28351562 10.08296875 -0.31703125 10.8984375 -0.3515625 C16.79351795 -0.44820316 21.09829524 0.65603431 26 4 C28.05859375 6.03515625 28.05859375 6.03515625 29.4375 8.0625 C29.91058594 8.73410156 30.38367188 9.40570313 30.87109375 10.09765625 C33.33413081 14.24817199 33.16053088 18.2562148 33.17700195 22.92456055 C33.18685875 24.13489204 33.18685875 24.13489204 33.19691467 25.36967468 C33.2166361 28.04202367 33.228309 30.71431643 33.23828125 33.38671875 C33.24235678 34.30071756 33.2464323 35.21471638 33.25063133 36.15641212 C33.27148926 40.99611815 33.28579099 45.83579586 33.29516602 50.67553711 C33.30621711 55.66444844 33.34060277 60.65291211 33.38033772 65.64166546 C33.40653786 69.48595485 33.41486097 73.33013824 33.41844749 77.17450905 C33.42330632 79.01283598 33.4349002 80.85115841 33.45348549 82.68939781 C33.47794487 85.2694434 33.47689955 87.84833974 33.4699707 90.4284668 C33.48278076 91.18045349 33.49559082 91.93244019 33.50878906 92.70721436 C33.44672406 99.08415659 31.42125424 104.25591186 27.18359375 109.05859375 C26.60738281 109.51363281 26.03117187 109.96867187 25.4375 110.4375 C24.85871094 110.91058594 24.27992188 111.38367188 23.68359375 111.87109375 C20.86370642 113.76192307 19.00674816 114.00035106 15.62109375 113.82421875 C2.43548411 113.21913992 -4.51345065 118.86683925 -14.09130859 127.37353516 C-16.59513712 129.50713783 -19.21324146 131.25772734 -22 133 C-22.16271111 130.77326829 -22.27871548 128.54309147 -22.375 126.3125 C-22.44460937 125.07113281 -22.51421875 123.82976562 -22.5859375 122.55078125 C-21.95327984 118.71687581 -21.02349018 117.16878155 -17.85400391 114.89624023 C-14.49264411 113.27133217 -11.17511955 113.33624654 -7.5 113.375 C-1.79271834 113.375 1.91960985 112.94363782 7 110 C8.485 109.505 8.485 109.505 10 109 C11.14915975 107.1560511 11.14915975 107.1560511 12 105 C12.79204834 103.19511108 12.79204834 103.19511108 13.60009766 101.35375977 C15.98865554 93.95945438 15.43046031 86.02592055 15.3984375 78.33984375 C15.40046188 76.6230914 15.40337634 74.90633989 15.40713501 73.18959045 C15.41154006 69.60474398 15.40518548 66.02012286 15.39111328 62.43530273 C15.37400945 57.85687064 15.38388162 53.2789658 15.40183067 48.70055294 C15.41270682 45.15991797 15.40920488 41.61940661 15.4014473 38.07876778 C15.39945654 36.39118956 15.40186474 34.70359986 15.40888596 33.01603508 C15.41656546 30.65223618 15.40480731 28.2892742 15.38818359 25.92553711 C15.39425629 25.23908112 15.40032898 24.55262512 15.40658569 23.84536743 C15.30363896 15.88298908 12.65245567 9.52399077 7 4 C4.69276647 2.72886302 2.49887328 1.88195527 0 1 C0 0.67 0 0.34 0 0 Z " fill="#EFE7E3" transform="translate(170,0)"/>
<path d="M0 0 C3.70818297 -0.08756305 7.41609763 -0.14058015 11.125 -0.1875 C12.17171875 -0.21263672 13.2184375 -0.23777344 14.296875 -0.26367188 C20.8069892 -0.32547676 25.6140304 -0.08839033 30.64453125 4.5 C34.41484149 9.34213756 35.12504859 12.34949056 35.11352539 18.39916992 C35.11367142 19.04334366 35.11381744 19.6875174 35.1139679 20.35121155 C35.11327195 22.47766502 35.10549448 24.6040306 35.09765625 26.73046875 C35.09579094 28.20591687 35.09436757 29.68136561 35.09336853 31.15681458 C35.08955226 35.03825595 35.07972956 38.91965985 35.06866455 42.80108643 C35.05843131 46.76256808 35.05386681 50.72405581 35.04882812 54.68554688 C35.0381065 62.45704833 35.02104075 70.22851891 35 78 C34.17508057 78.05333496 33.35016113 78.10666992 32.50024414 78.16162109 C31.41864014 78.23977051 30.33703613 78.31791992 29.22265625 78.3984375 C28.15023682 78.47239746 27.07781738 78.54635742 25.97290039 78.62255859 C21.99582842 79.12749029 19.86957896 80.20399999 17 83 C15.70517616 85.31183107 14.87346116 87.47666777 14 90 C13.34 90 12.68 90 12 90 C11.97521577 85.24943417 11.95710011 80.49890629 11.94506836 75.74829102 C11.94005058 74.13337549 11.93323489 72.51846448 11.92456055 70.90356445 C11.91238286 68.57762535 11.90674605 66.2517465 11.90234375 63.92578125 C11.89718246 63.20787918 11.89202118 62.48997711 11.88670349 61.75032043 C11.88628053 57.94059953 12.24348072 54.78259638 13 51 C8.71 50.67 4.42 50.34 0 50 C-0.04241723 47.66705225 -0.04092937 45.33297433 0 43 C1.81115956 41.18884044 4.61278227 41.61800552 7.0625 41.4375 C8.16722656 41.35371094 9.27195312 41.26992187 10.41015625 41.18359375 C11.26480469 41.12300781 12.11945313 41.06242187 13 41 C12.83935059 40.28900146 12.67870117 39.57800293 12.51318359 38.84545898 C12.0005049 36.00279954 11.84291525 33.35822518 11.7890625 30.47265625 C11.76070312 29.43302734 11.73234375 28.39339844 11.703125 27.32226562 C11.65113939 25.15316596 11.60683903 22.98386818 11.5703125 20.81445312 C11.40322644 15.19270337 11.2558772 10.80517143 8 6 C5.45269027 3.70742124 2.85081838 1.90054559 0 0 Z " fill="#62A6FC" transform="translate(62,57)"/>
<path d="M0 0 C2.89640118 -0.08120751 5.79050912 -0.14059421 8.6875 -0.1875 C9.50412109 -0.21263672 10.32074219 -0.23777344 11.16210938 -0.26367188 C17.3446911 -0.33876396 20.4811278 0.68187782 25.10449219 4.93676758 C27.91221083 9.47417688 27.55442371 13.57634714 27.49609375 18.8125 C27.49754898 19.85897705 27.49900421 20.9054541 27.50050354 21.98364258 C27.49884614 24.19257394 27.48730278 26.40151704 27.46655273 28.61035156 C27.43760174 31.98813008 27.44594723 35.36433828 27.45898438 38.7421875 C27.45274658 40.89063262 27.44435532 43.03907278 27.43359375 45.1875 C27.43652939 46.19594971 27.43946503 47.20439941 27.44248962 48.2434082 C27.3255164 56.95338558 27.3255164 56.95338558 24 61 C21.8857348 63.00595244 20.76817623 63.94294343 17.84375 64.16015625 C17.0703125 64.12792969 16.296875 64.09570312 15.5 64.0625 C8.9440198 64.45331849 4.97463367 68.62850583 0.37109375 72.84765625 C-2 75 -2 75 -3 75 C-3 71.37 -3 67.74 -3 64 C-1.39125 63.6596875 -1.39125 63.6596875 0.25 63.3125 C4.6299936 61.77950224 5.68769414 60.9755434 8 57 C8.47726773 53.54645822 8.37780317 50.16522083 8.25 46.6875 C8.22292969 45.29047852 8.22292969 45.29047852 8.1953125 43.86523438 C8.14834888 41.57575803 8.08269475 39.28841816 8 37 C7.45730469 37.48210937 6.91460937 37.96421875 6.35546875 38.4609375 C5.64003906 39.09257812 4.92460938 39.72421875 4.1875 40.375 C3.47980469 41.00148437 2.77210937 41.62796875 2.04296875 42.2734375 C-2.4045977 46.03218391 -2.4045977 46.03218391 -5.3125 45.875 C-10.94283714 44.04186698 -15.0941404 40.35224355 -19 36 C-20.21260877 32.36217368 -20.39544552 29.82264001 -20 26 C-17.9375 23.0625 -17.9375 23.0625 -15 21 C-10.72394153 20.47487001 -7.66244303 20.65603646 -4 23 C-3.34 22.34 -2.68 21.68 -2 21 C2.33643601 20.68462284 4.32653229 20.55102153 8 23 C8.05411124 20.58303128 8.09372278 18.16728213 8.125 15.75 C8.14175781 15.06808594 8.15851563 14.38617188 8.17578125 13.68359375 C8.21181297 9.97232639 8.23441644 7.05762249 6 4 C2.9665533 2.23272142 2.9665533 2.23272142 0 1 C0 0.67 0 0.34 0 0 Z " fill="#FE6DB4" transform="translate(113,135)"/>
<path d="M0 0 C1.2065625 0.0309375 1.2065625 0.0309375 2.4375 0.0625 C3.57482426 3.46651948 3.27739957 5.83706664 2.5 9.3125 C2.30535156 10.20453125 2.11070313 11.0965625 1.91015625 12.015625 C1.75417969 12.69109375 1.59820312 13.3665625 1.4375 14.0625 C4.0775 14.0625 6.7175 14.0625 9.4375 14.0625 C9.52837891 12.67224609 9.52837891 12.67224609 9.62109375 11.25390625 C9.70488281 10.05636719 9.78867187 8.85882813 9.875 7.625 C9.95621094 6.43003906 10.03742187 5.23507813 10.12109375 4.00390625 C10.4375 1.0625 10.4375 1.0625 11.4375 0.0625 C13.10367115 0.02186168 14.77138095 0.019779 16.4375 0.0625 C18.0796044 4.97732994 16.54354364 9.11783432 15.4375 14.0625 C19.0675 14.0625 22.6975 14.0625 26.4375 14.0625 C26.9325 16.5375 26.9325 16.5375 27.4375 19.0625 C25.62634044 20.87365956 22.82471773 20.44449448 20.375 20.625 C18.71791016 20.75068359 18.71791016 20.75068359 17.02734375 20.87890625 C15.74537109 20.96978516 15.74537109 20.96978516 14.4375 21.0625 C14.1075 23.3725 13.7775 25.6825 13.4375 28.0625 C17.7275 28.0625 22.0175 28.0625 26.4375 28.0625 C26.9325 30.5375 26.9325 30.5375 27.4375 33.0625 C26.4375 34.0625 26.4375 34.0625 23.05859375 34.16015625 C21.66402923 34.15348369 20.26948257 34.14152532 18.875 34.125 C18.16408203 34.12048828 17.45316406 34.11597656 16.72070312 34.11132812 C14.95959987 34.09950864 13.19853964 34.08157263 11.4375 34.0625 C11.34662109 35.32707031 11.34662109 35.32707031 11.25390625 36.6171875 C11.17011719 37.71289062 11.08632813 38.80859375 11 39.9375 C10.91878906 41.02804688 10.83757813 42.11859375 10.75390625 43.2421875 C10.4375 46.0625 10.4375 46.0625 9.4375 48.0625 C7.77138095 48.105221 6.10367115 48.10313832 4.4375 48.0625 C3.9425 47.5675 3.9425 47.5675 3.4375 47.0625 C3.50170749 45.43396465 3.6387064 43.80800788 3.8125 42.1875 C3.90273438 41.30320313 3.99296875 40.41890625 4.0859375 39.5078125 C4.4375 37.0625 4.4375 37.0625 5.4375 34.0625 C2.7975 34.0625 0.1575 34.0625 -2.5625 34.0625 C-2.65337891 35.32707031 -2.65337891 35.32707031 -2.74609375 36.6171875 C-2.82988281 37.71289062 -2.91367187 38.80859375 -3 39.9375 C-3.08121094 41.02804688 -3.16242187 42.11859375 -3.24609375 43.2421875 C-3.5625 46.0625 -3.5625 46.0625 -4.5625 48.0625 C-6.2125 48.0625 -7.8625 48.0625 -9.5625 48.0625 C-11.18491545 43.03301211 -9.82566209 39.04084472 -8.5625 34.0625 C-12.1925 34.0625 -15.8225 34.0625 -19.5625 34.0625 C-19.8925 32.4125 -20.2225 30.7625 -20.5625 29.0625 C-19.5625 28.0625 -19.5625 28.0625 -16.83984375 27.96484375 C-15.73769531 27.97644531 -14.63554688 27.98804687 -13.5 28 C-11.84291016 28.01353516 -11.84291016 28.01353516 -10.15234375 28.02734375 C-9.29769531 28.03894531 -8.44304688 28.05054687 -7.5625 28.0625 C-7.2325 25.4225 -6.9025 22.7825 -6.5625 20.0625 C-10.8525 20.0625 -15.1425 20.0625 -19.5625 20.0625 C-19.8925 18.4125 -20.2225 16.7625 -20.5625 15.0625 C-19.5625 14.0625 -19.5625 14.0625 -16.40234375 13.96484375 C-14.47068359 13.98224609 -14.47068359 13.98224609 -12.5 14 C-11.20964844 14.00902344 -9.91929688 14.01804687 -8.58984375 14.02734375 C-7.59082031 14.03894531 -6.59179688 14.05054687 -5.5625 14.0625 C-5.42972656 13.13566406 -5.29695313 12.20882812 -5.16015625 11.25390625 C-4.98355469 10.05636719 -4.80695312 8.85882813 -4.625 7.625 C-4.36396484 5.83255859 -4.36396484 5.83255859 -4.09765625 4.00390625 C-3.38420744 0.08254164 -3.38420744 0.08254164 0 0 Z " fill="#F4F2F1" transform="translate(48.5625,78.9375)"/>
<path d="M0 0 C0.70253906 0.00386719 1.40507813 0.00773437 2.12890625 0.01171875 C2.83144531 0.00785156 3.53398438 0.00398438 4.2578125 0 C9.50229247 0.01010497 9.50229247 0.01010497 10.62890625 1.13671875 C10.72990113 3.86396154 10.76861154 6.56534398 10.76171875 9.29296875 C10.76315384 10.51916931 10.76315384 10.51916931 10.76461792 11.7701416 C10.7652997 13.50187253 10.76344554 15.23360599 10.75927734 16.96533203 C10.75392904 19.62538357 10.75922237 22.28526625 10.765625 24.9453125 C10.76496422 26.62369829 10.76368305 28.30208398 10.76171875 29.98046875 C10.76374298 30.78150024 10.76576721 31.58253174 10.76785278 32.40783691 C10.74385704 38.02176796 10.74385704 38.02176796 9.62890625 39.13671875 C6.93235771 39.20991496 4.26199167 39.22914412 1.56640625 39.19921875 C0.42848633 39.19245117 0.42848633 39.19245117 -0.73242188 39.18554688 C-2.61201246 39.17372555 -4.49156274 39.15578953 -6.37109375 39.13671875 C-6.39574224 33.74324887 -6.41392906 28.3498115 -6.42602539 22.95629883 C-6.43106606 21.12003 -6.43789852 19.28376521 -6.4465332 17.44750977 C-6.45861047 14.81395474 -6.46432456 12.18045259 -6.46875 9.546875 C-6.47391129 8.72083267 -6.47907257 7.89479034 -6.48439026 7.04371643 C-6.4845858 5.07435507 -6.43313527 3.10510261 -6.37109375 1.13671875 C-4.61549433 -0.61888067 -2.33526933 0.00449956 0 0 Z " fill="#90E5F1" transform="translate(119.37109375,49.86328125)"/>
<path d="M0 0 C2.4375 1 2.4375 1 4 2 C4.66 1.34 5.32 0.68 6 0 C10.34125236 -0.57337295 12.31361351 -0.48193094 15.9375 2.0625 C18.5243831 5.74684866 18.63151199 7.57941605 18 12 C15.57785103 17.84165339 10.12591359 21.58272427 5 25 C-0.74878052 24.68925511 -4.70630497 21.17869992 -8.8125 17.4375 C-11.50501933 14.43726417 -11.93233789 12.60895897 -12.375 8.625 C-12 5 -12 5 -9.9375 2.0625 C-6.28112744 -0.50474031 -4.384888 -0.55807665 0 0 Z " fill="#F7F1EF" transform="translate(105,156)"/>
<path d="M0 0 C1.51400391 0.01740234 1.51400391 0.01740234 3.05859375 0.03515625 C4.07050781 0.04417969 5.08242187 0.05320312 6.125 0.0625 C7.29869141 0.07990234 7.29869141 0.07990234 8.49609375 0.09765625 C8.49609375 2.73765625 8.49609375 5.37765625 8.49609375 8.09765625 C4.53609375 8.09765625 0.57609375 8.09765625 -3.50390625 8.09765625 C-3.54632348 5.7647085 -3.54483562 3.43063058 -3.50390625 1.09765625 C-2.50390625 0.09765625 -2.50390625 0.09765625 0 0 Z " fill="#74D1FA" transform="translate(65.50390625,98.90234375)"/>
<path d="M0 0 C1.134375 0.020625 2.26875 0.04125 3.4375 0.0625 C3.1075 2.7025 2.7775 5.3425 2.4375 8.0625 C0.1275 8.0625 -2.1825 8.0625 -4.5625 8.0625 C-4.60491723 5.72955225 -4.60342937 3.39547433 -4.5625 1.0625 C-3.5625 0.0625 -3.5625 0.0625 0 0 Z " fill="#75D1FA" transform="translate(52.5625,98.9375)"/>
</svg>
