<?xml version="1.0" encoding="utf-8"?>
<svg version="1.1" xmlns:xlink="http://www.w3.org/1999/xlink" width="32px" height="34px" xmlns="http://www.w3.org/2000/svg">
  <g transform="matrix(1 0 0 1 -1403 -1275 )">
    <path d="M 29.714285714285715 2.8296488946684013  L 29.714285714285715 11.318595578673602  C 30.3452380952381 11.318595578673602  30.883928571428573 11.594928478543563  31.330357142857142 12.147594278283485  C 31.776785714285715 12.700260078023408  32 13.367143476376247  32 14.148244473342004  C 32 14.929345470307757  31.776785714285715 15.596228868660596  31.330357142857142 16.14889466840052  C 30.883928571428573 16.70156046814044  30.3452380952381 16.977893368010402  29.714285714285715 16.977893368010402  L 29.714285714285715 25.466840052015602  C 29.714285714285715 26.233203294321626  29.48809523809524 26.896402254009534  29.035714285714285 27.45643693107932  C 28.583333333333336 28.01647160814911  28.047619047619047 28.296488946684004  27.428571428571427 28.296488946684004  C 22.464285714285715 23.182488079757256  17.630952380952383 20.38231469440832  12.928571428571429 19.89596879063719  C 12.238095238095239 20.175986129172085  11.696428571428571 20.662332032943215  11.303571428571429 21.355006501950584  C 10.910714285714286 22.047680970957952  10.726190476190478 22.788253142609445  10.75 23.57672301690507  C 10.773809523809524 24.365192891200692  11.011904761904763 25.046814044213264  11.464285714285714 25.621586475942784  C 11.226190476190478 26.107932379713915  11.089285714285714 26.590593844820113  11.053571428571429 27.06957087126138  C 11.017857142857142 27.548547897702644  11.053571428571429 27.97594278283485  11.160714285714286 28.351755526657996  C 11.267857142857142 28.727568270481147  11.467261904761907 29.132856523623754  11.758928571428571 29.567620286085823  C 12.050595238095239 30.0023840485479  12.336309523809524 30.370827915041176  12.616071428571429 30.67295188556567  C 12.895833333333334 30.97507585609016  13.261904761904763 31.347204161248374  13.714285714285714 31.789336801040314  C 13.36904761904762 32.644126571304724  12.705357142857142 33.25574338968357  11.723214285714286 33.62418725617685  C 10.741071428571429 33.99263112267014  9.738095238095239 34.07737321196359  8.714285714285714 33.878413524057216  C 7.690476190476192 33.67945383615085  6.904761904761906 33.2704811443433  6.357142857142857 32.65149544863459  C 6.273809523809525 32.31252709146077  6.098214285714286 31.66775032509753  5.830357142857143 30.717165149544865  C 5.5625 29.766579973992197  5.37202380952381 29.070221066319895  5.258928571428571 28.628088426527956  C 5.145833333333334 28.18595578673602  5.008928571428571 27.53012570437798  4.848214285714286 26.660598179453835  C 4.6875 25.79107065452969  4.598214285714286 25.046814044213264  4.580357142857143 24.427828348504555  C 4.562500000000001 23.808842652795835  4.583333333333334 23.083008235804073  4.642857142857143 22.25032509752926  C 4.702380952380953 21.417641959254443  4.833333333333334 20.60338101430429  5.035714285714286 19.807542262678805  L 2.857142857142857 19.807542262678805  C 2.0714285714285716 19.807542262678805  1.398809523809524 19.46120502817512  0.8392857142857143 18.76853055916775  C 0.27976190476190477 18.07585609016038  0 17.24317295188557  0 16.270481144343304  L 0 12.026007802340702  C 0 11.05331599479844  0.27976190476190477 10.22063285652362  0.8392857142857143 9.527958387516254  C 1.398809523809524 8.835283918508882  2.0714285714285716 8.488946684005201  2.857142857142857 8.488946684005201  L 11.428571428571429 8.488946684005201  C 16.607142857142858 8.488946684005201  21.940476190476193 5.659297789336799  27.428571428571427 0  C 28.047619047619047 0  28.583333333333336 0.2800173385348903  29.035714285714285 0.8400520156046822  C 29.48809523809524 1.4000866926744666  29.714285714285715 2.063285652362373  29.714285714285715 2.8296488946684013  Z M 13.714285714285714 17.13263979193758  C 18.202380952380953 17.751625487646294  22.773809523809526 20.26441265713047  27 24.671001300390117  L 27 3.581274382314694  C 22.73809523809524 8.032076289553531  18.166666666666668 10.55960121369744  13.714285714285714 11.163849154746424  L 13.714285714285714 17.13263979193758  Z " fill-rule="nonzero" fill="#000000" stroke="none" transform="matrix(1 0 0 1 1403 1275 )" />
  </g>
</svg>