<?xml version="1.0" encoding="utf-8"?>
<svg version="1.1" xmlns:xlink="http://www.w3.org/1999/xlink" width="50px" height="42px" xmlns="http://www.w3.org/2000/svg">
  <g transform="matrix(1 0 0 1 -18 -49 )">
    <path d="M 49.38151041666667 34.223437499999996  C 49.79383680555555 34.6390625  50 35.13125  50 35.699999999999996  L 50 39.9  C 50 40.46875  49.79383680555555 40.9609375  49.38151041666667 41.3765625  C 48.969184027777786 41.792187500000004  48.480902777777786 42  47.91666666666667 42  L 2.083333333333333 42  C 1.5190972222222223 42  1.030815972222222 41.792187500000004  0.6184895833333333 41.3765625  C 0.20616319444444445 40.9609375  0 40.46875  0 39.9  L 0 35.699999999999996  C 0 35.13125  0.20616319444444445 34.6390625  0.6184895833333333 34.223437499999996  C 1.030815972222222 33.8078125  1.5190972222222223 33.6  2.083333333333333 33  L 47.91666666666667 33  C 48.480902777777786 33.6  48.969184027777786 33.8078125  49.38151041666667 34.223437499999996  Z M 49.38151041666667 17.4234375  C 49.79383680555555 17.839062499999997  50 18.331249999999997  50 18.9  L 50 23.1  C 50 23.668749999999996  49.79383680555555 24.160937499999996  49.38151041666667 24.5765625  C 48.969184027777786 24.992187499999996  48.480902777777786 25.2  47.91666666666667 25  L 2.083333333333333 25  C 1.5190972222222223 25.2  1.030815972222222 24.992187499999996  0.6184895833333333 24.5765625  C 0.20616319444444445 24.160937499999996  0 23.668749999999996  0 23.1  L 0 18.9  C 0 18.331249999999997  0.20616319444444445 17.839062499999997  0.6184895833333333 17.4234375  C 1.030815972222222 17.007812500000004  1.5190972222222223 16.8  2.083333333333333 17  L 47.91666666666667 17  C 48.480902777777786 16.8  48.969184027777786 17.007812500000004  49.38151041666667 17.4234375  Z M 49.38151041666667 0.6234375000000019  C 49.79383680555555 1.039062499999997  50 1.531249999999997  50 2.100000000000002  L 50 6.300000000000001  C 50 6.868749999999997  49.79383680555555 7.360937499999997  49.38151041666667 7.776562500000001  C 48.969184027777786 8.192187499999996  48.480902777777786 8.399999999999999  47.91666666666667 9  L 2.083333333333333 9  C 1.5190972222222223 8.399999999999999  1.030815972222222 8.192187499999996  0.6184895833333333 7.776562500000001  C 0.20616319444444445 7.360937499999997  0 6.868749999999997  0 6.300000000000001  L 0 2.100000000000002  C 0 1.531249999999997  0.20616319444444445 1.039062499999997  0.6184895833333333 0.6234375000000019  C 1.030815972222222 0.2078124999999975  1.5190972222222223 0  2.083333333333333 0  L 47.91666666666667 0  C 48.480902777777786 0  48.969184027777786 0.2078124999999975  49.38151041666667 0.6234375000000019  Z " fill-rule="nonzero" fill="#333333" stroke="none" fill-opacity="0.996078431372549" transform="matrix(1 0 0 1 18 49 )" />
  </g>
</svg>