<?xml version="1.0" encoding="utf-8"?>
<svg version="1.1" xmlns:xlink="http://www.w3.org/1999/xlink" width="35px" height="35px" xmlns="http://www.w3.org/2000/svg">
  <g transform="matrix(1 0 0 1 -59 -236 )">
    <path d="M 24.453125 30.791015625  C 26.6015625 29.651692708333336  28.36588541666667 28.105468749999996  29.74609375 26.15234375  C 29.45963541666667 24.134114583333332  28.889973958333336 22.457682291666668  28.037109375 21.123046875  C 27.184244791666668 19.788411458333332  25.983072916666668 19.01692708333333  24.43359375 18.808593749999996  C 23.561197916666668 19.772135416666664  22.522786458333332 20.524088541666664  21.318359375 21.064453124999996  C 20.11393229166667 21.604817708333332  18.841145833333336 21.875  17.5 21.875  C 16.158854166666668 21.875  14.886067708333336 21.604817708333332  13.681640625 21.064453124999996  C 12.477213541666668 20.524088541666664  11.438802083333334 19.772135416666664  10.56640625 18.808593749999996  C 9.016927083333332 19.01692708333333  7.815755208333334 19.788411458333332  6.962890625 21.123046875  C 6.110026041666668 22.457682291666668  5.540364583333334 24.134114583333332  5.25390625 26.15234375  C 6.634114583333334 28.105468749999996  8.3984375 29.651692708333336  10.546875 30.791015625  C 12.6953125 31.930338541666664  15.013020833333336 32.5  17.5 32.5  C 19.986979166666668 32.5  22.3046875 31.930338541666664  24.453125 30.791015625  Z M 22.802734375 17.802734375  C 24.267578125 16.337890625  25 14.570312500000002  25 12.499999999999998  C 25 10.429687499999998  24.267578125 8.662109375  22.802734375 7.197265624999999  C 21.337890625 5.732421874999998  19.5703125 5.000000000000002  17.5 5.000000000000002  C 15.4296875 5.000000000000002  13.662109375 5.732421874999998  12.197265625 7.197265624999999  C 10.732421875 8.662109375  10 10.429687499999998  10 12.499999999999998  C 10 14.570312500000002  10.732421875 16.337890625  12.197265625 17.802734375  C 13.662109375 19.267578125000004  15.4296875 20  17.5 20  C 19.5703125 20  21.337890625 19.267578125000004  22.802734375 17.802734375  Z M 33.61328125 10.703124999999998  C 34.53776041666667 12.86458333333333  35 15.130208333333332  35 17.5  C 35 19.869791666666664  34.53776041666667 22.13216145833333  33.61328125 24.287109375  C 32.688802083333336 26.442057291666664  31.44856770833334 28.304036458333332  29.892578125 29.873046875  C 28.33658854166667 31.442057291666664  26.477864583333336 32.688802083333336  24.31640625 33.61328125  C 22.154947916666668 34.537760416666664  19.8828125 35  17.5 35  C 15.130208333333334 35  12.864583333333334 34.537760416666664  10.703125 33.61328125  C 8.541666666666668 32.688802083333336  6.6796875 31.4453125  5.1171875 29.882812499999996  C 3.5546875 28.3203125  2.3111979166666665 26.458333333333332  1.38671875 24.296875  C 0.46223958333333326 22.135416666666664  0 19.869791666666664  0 17.5  C 0 15.130208333333332  0.46223958333333326 12.86458333333333  1.38671875 10.703124999999998  C 2.3111979166666665 8.541666666666664  3.5546875 6.679687500000001  5.1171875 5.117187499999998  C 6.6796875 3.5546875  8.541666666666668 2.3111979166666656  10.703125 1.3867187499999996  C 12.864583333333334 0.46223958333333315  15.130208333333334 0  17.5 0  C 19.869791666666668 0  22.13541666666667 0.46223958333333315  24.296875 1.3867187499999996  C 26.458333333333336 2.3111979166666656  28.3203125 3.5546875  29.8828125 5.117187499999998  C 31.445312500000004 6.679687500000001  32.688802083333336 8.541666666666664  33.61328125 10.703124999999998  Z " fill-rule="nonzero" fill="#9875d1" stroke="none" transform="matrix(1 0 0 1 59 236 )" />
  </g>
</svg>