<?xml version="1.0" encoding="utf-8"?>
<svg version="1.1" xmlns:xlink="http://www.w3.org/1999/xlink" width="183px" height="180px" xmlns="http://www.w3.org/2000/svg">
  <g transform="matrix(1 0 0 1 -106 -174 )">
    <path d="M 55.96205357142858 7.131696428571425  C 67.26339285714286 2.377232142857142  79.109375 0  91.5 0  C 103.890625 0  115.73660714285715 2.377232142857142  127.03794642857143 7.131696428571425  C 138.33928571428572 11.88616071428571  148.07477678571428 18.28125  156.24441964285714 26.316964285714278  C 164.41406250000003 34.35267857142858  170.9157366071429 43.92857142857141  175.74944196428572 55.044642857142854  C 180.58314732142858 66.16071428571428  183 77.8125  183 90  C 183 102.12053571428572  180.60016741071428 113.73883928571428  175.80050223214286 124.85491071428571  C 171.00083705357144 135.97098214285717  164.51618303571428 145.546875  156.34654017857144 153.5825892857143  C 148.17689732142856 161.61830357142858  138.44140625 168.03013392857142  127.14006696428572 172.81808035714286  C 115.83872767857144 177.60602678571428  103.95870535714285 180  91.5 180  C 79.04129464285714 180  67.16127232142858 177.62276785714286  55.859933035714285 172.86830357142858  C 44.55859375 168.11383928571428  34.840122767857146 161.70200892857142  26.70452008928571 153.6328125  C 18.568917410714285 145.56361607142856  12.084263392857142 135.98772321428572  7.250558035714286 124.90513392857143  C 2.4168526785714284 113.82254464285712  0 102.18749999999999  0 90  C 0 77.8125  2.4168526785714284 66.16071428571428  7.250558035714286 55.044642857142854  C 12.084263392857142 43.92857142857141  18.5859375 34.35267857142858  26.755580357142858 26.316964285714278  C 34.925223214285715 18.28125  44.66071428571429 11.88616071428571  55.96205357142858 7.131696428571425  Z M 123.46372767857143 102.85714285714285  C 139.80301339285714 102.85714285714285  150.21930803571428 113.80580357142857  154.71261160714286 135.703125  C 164.85658482142858 121.97544642857143  169.92857142857144 106.74107142857142  169.92857142857144 90  C 169.92857142857144 79.55357142857143  167.8521205357143 69.57589285714285  163.69921875 60.06696428571428  C 159.54631696428572 50.55803571428571  153.96372767857147 42.354910714285694  146.95145089285714 35.45758928571428  C 139.9391741071429 28.560267857142858  131.59933035714286 23.06919642857142  121.93191964285715 18.984375  C 112.26450892857144 14.89955357142856  102.12053571428572 12.85714285714285  91.5 12.85714285714285  C 80.87946428571428 12.85714285714285  70.73549107142858 14.89955357142856  61.06808035714286 18.984375  C 51.400669642857146 23.06919642857142  43.06082589285715 28.560267857142858  36.04854910714286 35.45758928571428  C 29.036272321428577 42.354910714285694  23.453683035714285 50.55803571428571  19.30078125 60.06696428571428  C 15.147879464285717 69.57589285714285  13.071428571428571 79.55357142857143  13.071428571428571 90  C 13.071428571428571 106.74107142857142  18.14341517857143 121.97544642857143  28.287388392857142 135.703125  C 32.780691964285715 113.80580357142857  43.19698660714286 102.85714285714285  59.53627232142858 102.85714285714285  C 68.45479910714286 111.42857142857143  79.109375 115.71428571428571  91.5 115.71428571428571  C 103.890625 115.71428571428571  114.54520089285714 111.42857142857143  123.46372767857143 102.85714285714285  Z M 119.22572544642857 97.98549107142857  C 126.884765625 90.45200892857143  130.71428571428572 81.36160714285715  130.71428571428572 70.71428571428572  C 130.71428571428572 60.06696428571428  126.884765625 50.9765625  119.22572544642857 43.443080357142854  C 111.56668526785715 35.90959821428572  102.32477678571428 32.142857142857146  91.5 32.142857142857146  C 80.67522321428572 32.142857142857146  71.43331473214286 35.90959821428572  63.77427455357142 43.443080357142854  C 56.115234375 50.9765625  52.285714285714285 60.06696428571428  52.285714285714285 70.71428571428572  C 52.285714285714285 81.36160714285715  56.115234375 90.45200892857143  63.77427455357142 97.98549107142857  C 71.43331473214286 105.51897321428571  80.67522321428572 109.28571428571429  91.5 109.28571428571429  C 102.32477678571428 109.28571428571429  111.56668526785715 105.51897321428571  119.22572544642857 97.98549107142857  Z " fill-rule="nonzero" fill="#492f73" stroke="none" transform="matrix(1 0 0 1 106 174 )" />
  </g>
</svg>