<?xml version="1.0" ?><svg data-name="Layer 1" id="Layer_1" viewBox="0 0 64 64" xmlns="http://www.w3.org/2000/svg"><defs><style>
      .cls-1 {
        fill: #f76c5e;
      }

      .cls-2 {
        fill: #e7ecef;
      }

      .cls-3 {
        fill: #8b8c89;
      }

      .cls-4 {
        fill: #bc6c25;
      }

      .cls-5 {
        fill: #a3cef1;
      }

      .cls-6 {
        fill: #dda15e;
      }

      .cls-7 {
        fill: #6096ba;
      }

      .cls-8 {
        fill: #274c77;
      }
    </style></defs><path class="cls-6" d="M24.58,41.04l-3,1.29c-1.01,.43-2.15,.43-3.15,0l-3-1.29c-1.47-.63-2.42-2.08-2.42-3.68v-5.36c0-3.31,2.69-6,6-6h2c3.31,0,6,2.69,6,6v5.36c0,1.6-.95,3.05-2.42,3.68Z"/><path class="cls-8" d="M33.14,47c-1.82-1.85-4.35-3-7.14-3h-3c0,1.66-1.34,3-3,3s-3-1.34-3-3h-3c-5.52,0-10,4.48-10,10v7H26l4-14h3.14Z"/><path class="cls-6" d="M15,57h2c1.1,0,2,.9,2,2v2h-4v-4h0Z"/><path class="cls-8" d="M10,33.73c-.29,.17-.64,.27-1,.27-1.1,0-2-.9-2-2s.9-2,2-2c.42,0,.81,.13,1.14,.36"/><path class="cls-8" d="M30,33.73c.29,.17,.64,.27,1,.27,1.1,0,2-.9,2-2s-.9-2-2-2c-.42,0-.81,.13-1.14,.36"/><path class="cls-4" d="M17,41.71l1.42,.61c1.01,.44,2.15,.44,3.16,0l1.42-.61v2.29c0,1.66-1.34,3-3,3s-3-1.34-3-3v-2.29Z"/><polyline class="cls-3" points="26 61 30 47 52 47 48 61"/><path class="cls-8" d="M26.4,29.38h-.01c-.57-.23-1.23-.38-2.06-.38-4.33,0-4.33,4-8.67,4-1.13,0-1.97-.27-2.66-.67v-.33c0-3.31,2.69-6,6-6h2c2.37,0,4.42,1.38,5.39,3.38h.01Z"/><path class="cls-2" d="M27,36.6v-4.6c0-3.31-2.69-6-6-6h-2c-3.31,0-6,2.69-6,6v4h-2c-.55,0-1-.45-1-1v-3c0-5.52,4.48-10,10-10,2.76,0,5.26,1.12,7.07,2.93s2.93,4.31,2.93,7.07v3.18c0,.48-.34,.89-.8,.98l-2.2,.44Z"/><path class="cls-5" d="M39,53c.55,0,1,.45,1,1s-.45,1-1,1v-2Z"/><circle class="cls-5" cx="46" cy="18" r="15"/><path class="cls-6" d="M35,17h7l-.62,2.49c-.22,.89-1.02,1.51-1.94,1.51h-4.44"/><path class="cls-6" d="M57,21h-7s.62-2.49,.62-2.49c.22-.89,1.02-1.51,1.94-1.51h4.44"/><path class="cls-1" d="M47.92,7c-.23,.85-1,1.49-1.92,1.49s-1.7-.63-1.92-1.49c-1.23,.68-2.08,1.98-2.08,3.49,0,2.21,4,5,4,5,0,0,4-2.79,4-5,0-1.51-.84-2.8-2.08-3.49Z"/><polygon class="cls-7" points="48 28 47 28 47 30 44 28 42 28 42 24 48 24 48 28"/><path d="M52,46h-18.47c-2.05-1.93-4.7-3-7.53-3h-2v-.63l.97-.42c1.82-.78,3-2.56,3.03-4.54l1.4-.28c.93-.19,1.61-1.01,1.61-1.96v-.18c1.65,0,3-1.35,3-3s-1.35-3-3-3c-.14,0-.28,.01-.42,.03-1.3-4.63-5.55-8.03-10.58-8.03s-9.28,3.41-10.58,8.03c-.14-.02-.28-.03-.42-.03-1.65,0-3,1.35-3,3s1.35,3,3,3c0,1.1,.9,2,2,2h1v.36c0,2,1.19,3.81,3.03,4.6l.97,.42v.63h-2c-6.07,0-11,4.93-11,11v6h-1v2H52v-2h-2.67l3.64-12.73c.09-.3,.03-.63-.16-.88-.19-.25-.49-.4-.8-.4Zm-21-15c.55,0,1,.45,1,1s-.45,1-1,1v-1c0-.33-.02-.66-.05-.99,.02,0,.03,0,.05,0Zm-22,1v1c-.55,0-1-.45-1-1s.45-1,1-1c.02,0,.03,0,.05,0-.03,.33-.05,.66-.05,.99Zm3,0v3h-1v-3c0-4.96,4.04-9,9-9s9,4.04,9,9v3.18l-1,.2v-3.38c0-3.86-3.14-7-7-7h-2c-3.86,0-7,3.14-7,7Zm11.99-3.98c-2.33,.1-3.57,1.23-4.67,2.24-1.05,.97-1.88,1.74-3.66,1.74-.61,0-1.14-.09-1.63-.28,.15-2.62,2.31-4.72,4.97-4.72h2c1.13,0,2.16,.39,2.99,1.02Zm-8.18,12.1c-1.1-.47-1.82-1.56-1.82-2.76v-3.56c.52,.13,1.07,.2,1.66,.2,2.56,0,3.87-1.2,5.02-2.27,1.05-.97,1.88-1.73,3.65-1.73,.49,0,.91,.08,1.32,.2,.22,.56,.35,1.16,.35,1.8v3.78l-6.2,1.24,.39,1.96,5.77-1.15c-.16,1.01-.82,1.88-1.78,2.29h0s-3,1.29-3,1.29c-.75,.32-1.61,.32-2.36,0l-3-1.29Zm6.18,3.11v.77c0,1.1-.9,2-2,2s-2-.9-2-2v-.77h.03c.62,.28,1.3,.42,1.97,.42s1.34-.13,1.97-.4h.03Zm-4,16.76h-2v-2h1c.55,0,1,.45,1,1v1Zm2,0v-1c0-1.65-1.35-3-3-3h-6v-2.59l1.71-1.71-1.41-1.41-2,2c-.19,.19-.29,.44-.29,.71v4c0,.55,.45,1,1,1h4v2H5v-6c0-4.96,4.04-9,9-9h2.13c.44,1.72,2.01,3,3.87,3s3.43-1.28,3.87-3h2.13c1.46,0,2.85,.35,4.11,1h-.11c-.45,0-.84,.3-.96,.73l-3.79,13.27h-5.25Zm27.25,0H27.33l3.43-12h19.92l-3.43,12Z"/><path d="M46,2c-8.82,0-16,7.18-16,16s7.18,16,16,16,16-7.18,16-16S54.82,2,46,2Zm0,30c-7.72,0-14-6.28-14-14s6.28-14,14-14,14,6.28,14,14-6.28,14-14,14Z"/><rect height="2" width="2" x="45" y="36"/><rect height="2" width="2" x="42" y="40"/><rect height="2" width="2" x="38" y="42"/><path d="M42.35,19.73l.62-2.48c.08-.3,0-.62-.18-.86s-.48-.38-.79-.38h-3v-1h-2v1h-1v-1h-2v8h2v-1h3.44c1.38,0,2.58-.93,2.91-2.27Zm-1.94-.49c-.11,.45-.51,.76-.97,.76h-3.44v-2h4.72l-.31,1.24Z"/><path d="M49.65,18.27l-.62,2.48c-.08,.3,0,.62,.18,.86s.48,.38,.79,.38h3v1h2v-1h1v1h2V15h-2v1h-3.44c-1.38,0-2.58,.93-2.91,2.27Zm6.35,1.73h-4.72l.31-1.24c.11-.45,.51-.76,.97-.76h3.44v2Z"/><path d="M45.43,16.31c.17,.12,.37,.18,.57,.18s.4-.06,.57-.18c.74-.52,4.43-3.22,4.43-5.82,0-1.81-.99-3.48-2.59-4.36-.27-.15-.59-.17-.88-.04-.28,.12-.5,.36-.57,.66-.12,.44-.51,.74-.96,.74s-.84-.31-.96-.74c-.08-.3-.29-.54-.57-.66-.28-.12-.61-.1-.88,.04-1.6,.88-2.59,2.56-2.59,4.36,0,2.6,3.69,5.3,4.43,5.82Zm-1.65-7.81c.55,.62,1.36,.99,2.22,.99s1.67-.38,2.22-.99c.49,.54,.78,1.25,.78,1.99,0,1.02-1.6,2.67-3,3.76-1.37-1.08-3-2.75-3-3.76,0-.74,.29-1.45,.78-1.99Z"/><path d="M48,23h-6c-.55,0-1,.45-1,1v4c0,.55,.45,1,1,1h1.7l2.75,1.83c.17,.11,.36,.17,.55,.17,.16,0,.32-.04,.47-.12,.33-.17,.53-.51,.53-.88v-1c.55,0,1-.45,1-1v-4c0-.55-.45-1-1-1Zm-1,4c-.55,0-1,.45-1,1v.13l-1.45-.96c-.16-.11-.36-.17-.55-.17h-1v-2h4v2Z"/></svg>