<?xml version="1.0" encoding="UTF-8"?>
<svg version="1.1" xmlns="http://www.w3.org/2000/svg" width="210" height="210">
<path d="M0 0 C1.41000948 -0.00486144 2.82001206 -0.01230553 4.22999573 -0.02212524 C8.04428321 -0.04087397 11.85753804 -0.02215449 15.67174459 0.00453901 C19.67011542 0.02723913 23.66843806 0.01894765 27.66685486 0.01504517 C34.37931103 0.01328163 41.09136231 0.03539161 47.80371094 0.07226562 C55.55704454 0.11461517 63.30978564 0.12161583 71.0632115 0.10914171 C78.53251511 0.09774137 86.00161071 0.10905978 93.47088432 0.1314888 C96.64501237 0.14076193 99.81901282 0.14253676 102.99315071 0.13831711 C106.73214194 0.13454183 110.47053255 0.15082989 114.20938683 0.1824379 C116.23108514 0.19493012 118.25287464 0.18792173 120.27459717 0.18029785 C131.55449246 0.31241535 131.55449246 0.31241535 136.08178711 4.74462891 C137.85004566 7.66705417 138.33663864 9.84395311 138.3626709 13.24067688 C138.37409119 14.1363739 138.38551147 15.03207092 138.39727783 15.95491028 C138.40063141 17.41763618 138.40063141 17.41763618 138.40405273 18.90991211 C138.41894745 20.45937027 138.41894745 20.45937027 138.43414307 22.04013062 C138.4633613 25.4585842 138.47698566 28.8768522 138.48803711 32.29541016 C138.49954182 34.67189031 138.51105727 37.04837041 138.52258301 39.42485046 C138.54359566 44.40897486 138.55528586 49.3930348 138.56225586 54.37719727 C138.57322595 60.75975681 138.6212838 67.14146313 138.67819977 73.52375507 C138.71547082 78.43345113 138.72586463 83.34294199 138.72892761 88.25276756 C138.73497739 90.60549778 138.75102369 92.95822453 138.77729797 95.31081581 C138.81146206 98.60492262 138.80765098 101.89694936 138.79467773 105.19116211 C138.8131073 106.16024002 138.83153687 107.12931793 138.8505249 108.12776184 C138.77753507 114.05274079 137.72413978 117.20392165 133.56453705 121.48674297 C130.85976595 123.78132645 128.99943138 123.86740336 125.5402832 123.8581543 C124.12904678 123.858041 124.12904678 123.858041 122.68930054 123.85792542 C121.67155548 123.85276413 120.65381042 123.84760284 119.60522461 123.84228516 C118.56484039 123.84087021 117.52445618 123.83945526 116.45254517 123.83799744 C113.1205969 123.83238757 109.78871516 123.81983338 106.45678711 123.80712891 C104.20157974 123.80211518 101.94637133 123.79755205 99.69116211 123.79345703 C94.15465736 123.78326464 88.61829694 123.76369111 83.08178711 123.74462891 C83.08178711 131.99462891 83.08178711 140.24462891 83.08178711 148.74462891 C88.25779852 148.62607121 88.25779852 148.62607121 93.43286133 148.47436523 C95.31786311 148.45245757 97.20255474 148.59564114 99.08178711 148.74462891 C101.39461298 152.21386771 101.50657297 153.66668466 101.08178711 157.74462891 C100.03955078 159.40786743 100.03955078 159.40786743 98.08178711 160.74462891 C95.45736556 161.04062325 93.07000126 161.15457237 90.44506836 161.1328125 C89.66916351 161.13806946 88.89325867 161.14332642 88.09384155 161.14874268 C85.52711909 161.16195475 82.96101597 161.15320057 80.39428711 161.14306641 C78.61214071 161.1450868 76.82999512 161.14799795 75.04785156 161.15176392 C71.31201306 161.1561889 67.57638968 161.14975067 63.84057617 161.13574219 C59.04849627 161.11865014 54.25692041 161.1284904 49.46485901 161.14645958 C45.78458855 161.15729275 42.10443786 161.15385324 38.42416382 161.1460762 C36.65709372 161.1440729 34.89001279 161.14653803 33.12295532 161.15351486 C30.65451187 161.16112176 28.18688815 161.14953643 25.71850586 161.1328125 C24.98594574 161.13888519 24.25338562 161.14495789 23.49862671 161.1512146 C20.58812191 161.11462584 18.5699989 161.07864648 16.12792969 159.40786743 C14.479285 156.78672437 14.70519935 154.75733097 15.08178711 151.74462891 C16.12475586 150.06884766 16.12475586 150.06884766 18.08178711 148.74462891 C20.75072674 148.52586336 23.11678998 148.46127596 25.76928711 148.55712891 C28.18241211 148.61900391 30.59553711 148.68087891 33.08178711 148.74462891 C33.08178711 140.49462891 33.08178711 132.24462891 33.08178711 123.74462891 C22.85178711 123.74462891 12.62178711 123.74462891 2.08178711 123.74462891 C2.13399414 127.37398437 2.13399414 127.37398437 2.18725586 131.07666016 C2.21065146 133.41982849 2.22886796 135.76298382 2.24658203 138.10620117 C2.26166954 139.73484113 2.28214217 141.36344047 2.30810547 142.99194336 C2.3444916 145.33278426 2.36151331 147.67308809 2.37475586 150.01416016 C2.39023972 150.7423848 2.40572357 151.47060944 2.42167664 152.22090149 C2.42334409 157.2284064 2.42334409 157.2284064 0.96221924 159.4367218 C-1.8048886 161.36134325 -3.99681026 161.12598969 -7.34570312 161.1328125 C-7.99320526 161.13806946 -8.6407074 161.14332642 -9.30783081 161.14874268 C-11.44773503 161.16194366 -13.58689488 161.15320397 -15.72680664 161.14306641 C-17.21509443 161.14508738 -18.70338125 161.14799901 -20.19166565 161.15176392 C-23.31130397 161.15618758 -26.4306846 161.14975603 -29.55029297 161.13574219 C-33.54639717 161.11866482 -37.54189626 161.12848154 -41.53797817 161.14645958 C-44.61180668 161.15730914 -47.68549217 161.15384551 -50.75932503 161.1460762 C-52.23250462 161.14407665 -53.70569725 161.14652489 -55.17886162 161.15351486 C-57.2400326 161.16114733 -59.30022954 161.14950104 -61.36132812 161.1328125 C-62.53364487 161.13042572 -63.70596161 161.12803894 -64.9138031 161.12557983 C-68.32406289 160.69316824 -69.50064149 160.14489966 -71.91821289 157.74462891 C-72.42437077 155.18740273 -72.42437077 155.18740273 -72.43287659 152.06460571 C-72.44560104 150.8813118 -72.4583255 149.69801788 -72.47143555 148.47886658 C-72.46490967 147.1790535 -72.45838379 145.87924042 -72.45166016 144.54003906 C-72.45871682 143.15855486 -72.46746077 141.7770784 -72.47776794 140.39561462 C-72.50030364 136.64131779 -72.49731225 132.88744169 -72.48844647 129.13310289 C-72.48334148 125.99939554 -72.49062535 122.8657676 -72.49791855 119.73206842 C-72.51493166 112.33839841 -72.51133862 104.9449347 -72.49462891 97.55126953 C-72.47771417 89.92405879 -72.49352955 82.29742063 -72.52585179 74.67027247 C-72.55254898 68.12237424 -72.55982315 61.57465424 -72.55133671 55.02670705 C-72.54640677 51.11574502 -72.5486259 47.20512736 -72.56912422 43.29420853 C-72.58748318 39.61514689 -72.58152136 35.93690813 -72.55692482 32.2578907 C-72.54953067 30.26573539 -72.56677191 28.2735363 -72.58474731 26.28144836 C-72.4922394 17.58964288 -72.4922394 17.58964288 -69.67242432 13.43864441 C-66.8434295 11.69863236 -65.4940953 11.13088408 -62.21972656 11.17700195 C-61.31917038 11.17737961 -60.4186142 11.17775726 -59.49076843 11.17814636 C-58.53225479 11.20395279 -57.57374115 11.22975922 -56.58618164 11.25634766 C-55.59443436 11.26342239 -54.60268707 11.27049713 -53.58088684 11.27778625 C-50.42171947 11.30571457 -47.26434207 11.36845171 -44.10571289 11.43212891 C-41.96055624 11.45721373 -39.81537174 11.48002657 -37.67016602 11.50048828 C-32.41890705 11.55553564 -27.16868786 11.63914581 -21.91821289 11.74462891 C-21.89758789 11.04337891 -21.87696289 10.34212891 -21.85571289 9.61962891 C-18.54808009 -0.52377833 -9.12111025 -0.10628657 0 0 Z " fill="#3E5959" transform="translate(71.918212890625,24.25537109375)"/>
<path d="M0 0 C44.88 0 89.76 0 136 0 C136 32.67 136 65.34 136 99 C91.12 99 46.24 99 0 99 C0 66.33 0 33.66 0 0 Z " fill="#159AE0" transform="translate(62,37)"/>
<path d="M0 0 C0.92065247 0.00030212 1.84130493 0.00060425 2.78985596 0.00091553 C4.26817902 0.03188324 4.26817902 0.03188324 5.77636719 0.06347656 C7.2994046 0.07196625 7.2994046 0.07196625 8.85321045 0.08062744 C12.0937022 0.10300403 15.33308509 0.15320401 18.57324219 0.20410156 C20.77114288 0.22416485 22.96906091 0.24241592 25.16699219 0.25878906 C30.55278669 0.30287285 35.93793522 0.36979783 41.32324219 0.45410156 C41.32910843 1.72086227 41.33497467 2.98762299 41.34101868 4.29277039 C41.39821171 16.22613208 41.4709556 28.15931094 41.5589571 40.09248638 C41.60369982 46.2275785 41.64294751 52.3626036 41.66967773 58.49780273 C41.69567152 64.41772417 41.7360465 70.33738828 41.78642845 76.25715065 C41.80312366 78.51655694 41.81462137 80.77600777 41.82085609 83.03546715 C41.8304681 86.1983175 41.8584935 89.36050555 41.89086914 92.52319336 C41.88943405 93.45899231 41.88799896 94.39479126 41.88652039 95.35894775 C41.95673218 100.20347703 42.15094709 103.53427727 45.32324219 107.45410156 C49.3060003 110.6587009 53.18672841 110.97584512 58.13574219 111.14160156 C58.82861328 111.17576172 59.52148438 111.20992188 60.23535156 111.24511719 C61.93077068 111.32696501 63.62697677 111.39222521 65.32324219 111.45410156 C65.39739386 116.24125779 65.45184423 121.02807983 65.48803711 125.81567383 C65.50312462 127.44431379 65.52359725 129.07291312 65.54956055 130.70141602 C65.58594667 133.04225692 65.60296839 135.38256075 65.61621094 137.72363281 C65.63169479 138.45185745 65.64717865 139.18008209 65.66313171 139.93037415 C65.66479917 144.93787905 65.66479917 144.93787905 64.20367432 147.14619446 C61.43656648 149.0708159 59.24464482 148.83546234 55.89575195 148.84228516 C55.24824982 148.84754211 54.60074768 148.85279907 53.93362427 148.85821533 C51.79372005 148.87141631 49.6545602 148.86267662 47.51464844 148.85253906 C46.02636065 148.85456004 44.53807383 148.85747167 43.04978943 148.86123657 C39.93015111 148.86566024 36.81077047 148.85922868 33.69116211 148.84521484 C29.69505791 148.82813748 25.69955882 148.8379542 21.70347691 148.85593224 C18.6296484 148.86678179 15.55596291 148.86331816 12.48213005 148.85554886 C11.00895046 148.85354931 9.53575783 148.85599755 8.06259346 148.86298752 C6.00142247 148.87061999 3.94122553 148.8589737 1.88012695 148.84228516 C0.70781021 148.83989838 -0.46450653 148.8375116 -1.67234802 148.83505249 C-5.08267864 148.40263191 -6.25961947 147.855041 -8.67675781 145.45410156 C-9.18012238 142.89408207 -9.18012238 142.89408207 -9.18469238 139.76734924 C-9.19597168 138.58261017 -9.20725098 137.39787109 -9.21887207 136.17723083 C-9.21077515 134.87584671 -9.20267822 133.57446259 -9.19433594 132.23364258 C-9.19975555 130.85053774 -9.20687732 129.46743868 -9.21557617 128.08435059 C-9.2338337 124.32597148 -9.22673185 120.56803089 -9.21405983 116.80964398 C-9.20394256 112.87836847 -9.21332214 108.94713085 -9.21960449 105.01585388 C-9.2268855 98.41243745 -9.21728232 91.80919984 -9.19824219 85.20581055 C-9.17648144 77.57069318 -9.18351695 69.9360032 -9.20554781 62.30089623 C-9.22369976 55.747924 -9.22626091 49.19508046 -9.21579313 42.64209121 C-9.20955586 38.7273066 -9.20872865 34.81272285 -9.22193909 30.89795113 C-9.23349382 27.21651589 -9.22547952 23.53563141 -9.20236206 19.85425568 C-9.19454885 17.85834511 -9.20643476 15.86238796 -9.21887207 13.86650085 C-9.20759277 12.67894196 -9.19631348 11.49138306 -9.18469238 10.26783752 C-9.18318428 9.23563867 -9.18167618 8.20343981 -9.18012238 7.1399622 C-8.19939332 1.90697251 -5.12644944 -0.05633461 0 0 Z " fill="#3E5959" transform="translate(8.6767578125,36.5458984375)"/>
<path d="M0 0 C22.44 0 44.88 0 68 0 C68 32.67 68 65.34 68 99 C45.56 99 23.12 99 0 99 C0 66.33 0 33.66 0 0 Z " fill="#19BFEE" transform="translate(62,37)"/>
<path d="M0 0 C1.60423694 0.01120311 3.20849452 0.01973803 4.8127594 0.02572632 C9.01693287 0.04853766 13.21984486 0.10739171 17.42352295 0.1739502 C21.72032612 0.23554072 26.01733492 0.2627769 30.31445312 0.29296875 C38.73234707 0.3571449 47.14921935 0.45942797 55.56640625 0.5859375 C55.56640625 4.5459375 55.56640625 8.5059375 55.56640625 12.5859375 C33.12640625 12.5859375 10.68640625 12.5859375 -12.43359375 12.5859375 C-12.43359375 45.2559375 -12.43359375 77.9259375 -12.43359375 111.5859375 C10.00640625 111.5859375 32.44640625 111.5859375 55.56640625 111.5859375 C55.56640625 115.5459375 55.56640625 119.5059375 55.56640625 123.5859375 C47.64640625 123.5859375 39.72640625 123.5859375 31.56640625 123.5859375 C31.56640625 131.8359375 31.56640625 140.0859375 31.56640625 148.5859375 C39.48640625 148.5859375 47.40640625 148.5859375 55.56640625 148.5859375 C55.56640625 152.5459375 55.56640625 156.5059375 55.56640625 160.5859375 C49.92475264 160.66004477 44.28338178 160.71451917 38.64135742 160.75073242 C36.72171087 160.7658273 34.80209885 160.78630523 32.88256836 160.81225586 C30.12475061 160.84860859 27.36738845 160.86565662 24.609375 160.87890625 C23.74990768 160.89439011 22.89044037 160.90987396 22.00492859 160.92582703 C21.2043251 160.92605362 20.40372162 160.92628021 19.57885742 160.92651367 C18.52295662 160.93650642 18.52295662 160.93650642 17.44572449 160.94670105 C14.96455417 160.47040289 14.08459807 159.57361201 12.56640625 157.5859375 C12.18923615 154.56857672 11.97182501 152.5412759 13.609375 149.91015625 C16.63030077 147.86605678 19.74738569 148.27172281 23.25390625 148.3984375 C25.66703125 148.4603125 28.08015625 148.5221875 30.56640625 148.5859375 C30.56640625 140.3359375 30.56640625 132.0859375 30.56640625 123.5859375 C27.30378906 123.62074219 24.04117188 123.65554687 20.6796875 123.69140625 C17.51571528 123.71481031 14.35175275 123.7330221 11.18774414 123.75073242 C8.99076004 123.76580802 6.79380599 123.78627176 4.59692383 123.81225586 C1.43693625 123.84869252 -1.72265299 123.86567634 -4.8828125 123.87890625 C-6.35339363 123.90213203 -6.35339363 123.90213203 -7.85368347 123.92582703 C-14.01080132 123.92734255 -17.42534587 123.16443568 -22.18359375 119.0859375 C-24.44351029 116.37403765 -24.55799826 113.72680018 -24.55384827 110.3528595 C-24.55522293 109.49049179 -24.5565976 108.62812408 -24.55801392 107.73962402 C-24.552621 106.32513977 -24.552621 106.32513977 -24.54711914 104.88208008 C-24.54726517 103.8867778 -24.54741119 102.89147552 -24.54756165 101.86601257 C-24.54686407 98.57080925 -24.53907886 95.27566221 -24.53125 91.98046875 C-24.52938527 89.69789155 -24.52796163 87.41531395 -24.52696228 85.13273621 C-24.52314142 79.12068581 -24.51331479 73.10865952 -24.5022583 67.09661865 C-24.49023793 59.88546497 -24.48563988 52.67430323 -24.47980499 45.4631424 C-24.47010284 34.50405733 -24.45094323 23.54502516 -24.43359375 12.5859375 C-39.28359375 12.5859375 -54.13359375 12.5859375 -69.43359375 12.5859375 C-69.43359375 12.2559375 -69.43359375 11.9259375 -69.43359375 11.5859375 C-54.58359375 11.5859375 -39.73359375 11.5859375 -24.43359375 11.5859375 C-24.10359375 9.9359375 -23.77359375 8.2859375 -23.43359375 6.5859375 C-18.49752803 -1.77346739 -8.41403176 -0.17275731 0 0 Z " fill="#567A84" transform="translate(74.43359375,24.4140625)"/>
<path d="M0 0 C4.29 0 8.58 0 13 0 C13.00586624 1.26676071 13.01173248 2.53352142 13.01777649 3.83866882 C13.07496952 15.77203051 13.14771341 27.70520938 13.23571491 39.63838482 C13.28045763 45.77347693 13.31970532 51.90850204 13.34643555 58.04370117 C13.37242933 63.96362261 13.41280432 69.88328672 13.46318626 75.80304909 C13.47988148 78.06245538 13.49137918 80.32190621 13.49761391 82.58136559 C13.50722591 85.74421594 13.53525131 88.90640398 13.56762695 92.0690918 C13.56619186 93.00489075 13.56475677 93.9406897 13.5632782 94.90484619 C13.63348999 99.74937546 13.82770491 103.08017571 17 107 C20.98275811 110.20459934 24.86348622 110.52174356 29.8125 110.6875 C30.50537109 110.72166016 31.19824219 110.75582031 31.91210938 110.79101562 C33.60752849 110.87286344 35.30373458 110.93812365 37 111 C37.07415168 115.78715623 37.12860204 120.57397827 37.16479492 125.36157227 C37.17988243 126.99021223 37.20035506 128.61881156 37.22631836 130.24731445 C37.26270449 132.58815535 37.2797262 134.92845919 37.29296875 137.26953125 C37.30845261 137.99775589 37.32393646 138.72598053 37.33988953 139.47627258 C37.34081499 142.25553109 37.27489736 144.47821368 35.96484375 146.96484375 C32.85083949 148.60542253 29.69975176 148.36590372 26.26953125 148.29296875 C25.51911057 148.28872391 24.76868988 148.28447906 23.99552917 148.28010559 C21.60081974 148.2633245 19.20695466 148.2256749 16.8125 148.1875 C15.1881632 148.17245235 13.5638132 148.15876409 11.93945312 148.14648438 C7.95931052 148.11342305 3.97979837 148.06164594 0 148 C-0.06735002 146.20493489 -0.11592238 144.40915665 -0.15625 142.61328125 C-0.18525391 141.61337158 -0.21425781 140.61346191 -0.24414062 139.58325195 C-0.12329102 138.30454224 -0.12329102 138.30454224 0 137 C2.5 135.1875 2.5 135.1875 5 134 C5.83349951 131.04340127 5.83349951 131.04340127 5 128 C4.17381668 127.52097229 3.34763336 127.04194458 2.49641418 126.54840088 C-0.96741221 123.01244187 -0.59055431 120.44704772 -0.62210083 115.63311768 C-0.60412445 114.4880072 -0.58614807 113.34289673 -0.56762695 112.16308594 C-0.56835709 110.95305908 -0.56908722 109.74303223 -0.56983948 108.49633789 C-0.56695358 105.18201917 -0.54188975 101.86925952 -0.50696969 98.55521679 C-0.47570294 95.09058925 -0.47277524 91.6259407 -0.46684265 88.16119385 C-0.45130498 81.60208976 -0.41027811 75.04340259 -0.3600952 68.48448205 C-0.3041989 61.01663389 -0.27671461 53.54876577 -0.25161803 46.08076048 C-0.19936172 30.72025897 -0.11041389 15.36019964 0 0 Z " fill="#293939" transform="translate(37,37)"/>
<path d="M0 0 C15.84 0 31.68 0 48 0 C48 8.25 48 16.5 48 25 C32.16 25 16.32 25 0 25 C0 16.75 0 8.5 0 0 Z " fill="#293939" transform="translate(106,148)"/>
<path d="M0 0 C0.72680969 0.00565979 1.45361938 0.01131958 2.20245361 0.01715088 C4.51585745 0.03947947 6.8276922 0.08966452 9.140625 0.140625 C10.71221716 0.16069477 12.28383368 0.17894471 13.85546875 0.1953125 C17.70160638 0.23592641 21.54436713 0.31420928 25.390625 0.390625 C25.390625 10.620625 25.390625 20.850625 25.390625 31.390625 C13.180625 31.390625 0.970625 31.390625 -11.609375 31.390625 C-11.691875 27.018125 -11.774375 22.645625 -11.859375 18.140625 C-11.89579102 16.76745117 -11.93220703 15.39427734 -11.96972656 13.97949219 C-11.9797168 12.89313477 -11.98970703 11.80677734 -12 10.6875 C-12.02094727 9.57729492 -12.04189453 8.46708984 -12.06347656 7.32324219 C-11.609375 4.390625 -11.609375 4.390625 -10.06054688 2.02148438 C-6.73855481 -0.18876532 -3.85123833 -0.1133921 0 0 Z " fill="#3E5959" transform="translate(11.609375,36.609375)"/>
<path d="M0 0 C12.21 0 24.42 0 37 0 C37 8.25 37 16.5 37 25 C24.79 25 12.58 25 0 25 C0 16.75 0 8.5 0 0 Z " fill="#537882" transform="translate(0,68)"/>
<path d="M0 0 C4.29 0 8.58 0 13 0 C13 18.48 13 36.96 13 56 C8.71 56 4.42 56 0 56 C0 37.52 0 19.04 0 0 Z " fill="#293939" transform="translate(37,37)"/>
<path d="M0 0 C7.92 0 15.84 0 24 0 C24 8.25 24 16.5 24 25 C16.08 25 8.16 25 0 25 C0 16.75 0 8.5 0 0 Z " fill="#3E5959" transform="translate(106,148)"/>
<path d="M0 0 C4.29 0 8.58 0 13 0 C13 8.25 13 16.5 13 25 C8.71 25 4.42 25 0 25 C0 16.75 0 8.5 0 0 Z " fill="#3D5858" transform="translate(37,68)"/>
<path d="M0 0 C1.875 1.125 1.875 1.125 3 3 C3.4375 6 3.4375 6 3 9 C1.375 10.9375 1.375 10.9375 -1 12 C-4.67293796 11.77962372 -6.36966546 11.63033454 -9 9 C-9.33015665 5.89652746 -9.50531294 3.84218824 -7.875 1.125 C-5.11909116 -0.52854531 -3.14924548 -0.39365568 0 0 Z " fill="#7FE483" transform="translate(40,162)"/>
<path d="M0 0 C4 1 4 1 6 3 C6.375 5.9375 6.375 5.9375 6 9 C4.125 10.875 4.125 10.875 2 12 C1.34 12 0.68 12 0 12 C0 8.04 0 4.08 0 0 Z " fill="#5CC681" transform="translate(37,162)"/>
</svg>
