<?xml version="1.0" encoding="utf-8"?>
<svg version="1.1" xmlns:xlink="http://www.w3.org/1999/xlink" width="4px" height="17px" xmlns="http://www.w3.org/2000/svg">
  <g transform="matrix(1 0 0 1 -406 -183 )">
    <path d="M 3.9505208333333335 13.85234375  C 3.983506944444444 14.020572916666667  4 14.219791666666667  4 14.45  L 4 16.15  C 4 16.380208333333332  3.983506944444444 16.579427083333332  3.9505208333333335 16.74765625  C 3.9175347222222228 16.91588541666667  3.8784722222222228 17  3.8333333333333335 17  L 0.16666666666666666 17  C 0.12152777777777779 17  0.08246527777777778 16.91588541666667  0.049479166666666664 16.74765625  C 0.016493055555555556 16.579427083333332  0 16.380208333333332  0 16.15  L 0 14.45  C 0 14.219791666666667  0.016493055555555556 14.020572916666667  0.049479166666666664 13.85234375  C 0.08246527777777778 13.684114583333333  0.12152777777777779 13.600000000000001  0.16666666666666666 13.600000000000001  L 3.8333333333333335 13.600000000000001  C 3.8784722222222228 13.600000000000001  3.9175347222222228 13.684114583333333  3.9505208333333335 13.85234375  Z M 3.9505208333333335 7.0523437499999995  C 3.983506944444444 7.220572916666666  4 7.419791666666666  4 7.6499999999999995  L 4 9.350000000000001  C 4 9.580208333333331  3.983506944444444 9.779427083333331  3.9505208333333335 9.947656250000001  C 3.9175347222222228 10.115885416666666  3.8784722222222228 10.2  3.8333333333333335 10.2  L 0.16666666666666666 10.2  C 0.12152777777777779 10.2  0.08246527777777778 10.115885416666666  0.049479166666666664 9.947656250000001  C 0.016493055555555556 9.779427083333331  0 9.580208333333331  0 9.350000000000001  L 0 7.6499999999999995  C 0 7.419791666666666  0.016493055555555556 7.220572916666666  0.049479166666666664 7.0523437499999995  C 0.08246527777777778 6.884114583333335  0.12152777777777779 6.800000000000001  0.16666666666666666 6.800000000000001  L 3.8333333333333335 6.800000000000001  C 3.8784722222222228 6.800000000000001  3.9175347222222228 6.884114583333335  3.9505208333333335 7.0523437499999995  Z M 3.9505208333333335 0.25234375000000075  C 3.983506944444444 0.4205729166666654  4 0.6197916666666654  4 0.8500000000000008  L 4 2.5500000000000003  C 4 2.780208333333332  3.983506944444444 2.979427083333332  3.9505208333333335 3.1476562500000003  C 3.9175347222222228 3.315885416666665  3.8784722222222228 3.3999999999999995  3.8333333333333335 3.3999999999999995  L 0.16666666666666666 3.3999999999999995  C 0.12152777777777779 3.3999999999999995  0.08246527777777778 3.315885416666665  0.049479166666666664 3.1476562500000003  C 0.016493055555555556 2.979427083333332  0 2.780208333333332  0 2.5500000000000003  L 0 0.8500000000000008  C 0 0.6197916666666654  0.016493055555555556 0.4205729166666654  0.049479166666666664 0.25234375000000075  C 0.08246527777777778 0.08411458333333233  0.12152777777777779 0  0.16666666666666666 0  L 3.8333333333333335 0  C 3.8784722222222228 0  3.9175347222222228 0.08411458333333233  3.9505208333333335 0.25234375000000075  Z " fill-rule="nonzero" fill="#a580e2" stroke="none" transform="matrix(1 0 0 1 406 183 )" />
  </g>
</svg>