<?xml version="1.0" encoding="utf-8"?>
<svg version="1.1" xmlns:xlink="http://www.w3.org/1999/xlink" width="50px" height="45px" xmlns="http://www.w3.org/2000/svg">
  <g transform="matrix(1 0 0 1 -1068 -572 )">
    <path d="M 49.072265625 1.4843750000000022  C 49.690755208333336 2.4739583333333286  50 3.645833333333322  50 5.000000000000002  C 50 6.3541666666666625  49.690755208333336 7.526041666666661  49.072265625 8.515625000000002  L 27.197265625 43.515625  C 26.578776041666668 44.50520833333334  25.846354166666668 45  25 45  C 24.153645833333336 45  23.421223958333336 44.50520833333334  22.802734375 43.515625  L 0.927734375 8.515625000000002  C 0.30924479166666663 7.526041666666661  0 6.3541666666666625  0 5.000000000000002  C 0 3.645833333333322  0.30924479166666663 2.4739583333333286  0.927734375 1.4843750000000022  C 1.5462239583333335 0.49479166666666075  2.2786458333333335 0  3.125 0  L 46.875 0  C 47.72135416666667 0  48.45377604166667 0.49479166666666075  49.072265625 1.4843750000000022  Z " fill-rule="nonzero" fill="#e4d8f5" stroke="none" transform="matrix(1 0 0 1 1068 572 )" />
  </g>
</svg>