<?xml version="1.0" encoding="utf-8"?>
<svg version="1.1" xmlns:xlink="http://www.w3.org/1999/xlink" width="32px" height="39px" xmlns="http://www.w3.org/2000/svg">
  <g transform="matrix(1 0 0 1 -285 -1270 )">
    <path d="M 31.470301850048685 11.253731343283583  C 32.03115871470302 11.84506041222459  32.12463485881207 12.473347547974411  31.75073028237585 13.138592750533052  C 31.37682570593963 13.82231698649609  30.77442388834794 14.164179104477613  29.94352482960078 14.164179104477613  L 24 14.164179104477613  L 24 38.11300639658848  C 23.961051606621226 38.37171286425018  23.86757546251217 38.58422174840085  23.68062317429406 38.75053304904051  C 23.49367088607595 38.91684434968017  23.25478740668614 39  22.963972736124635 39  L 1.0282375851996106 39  C 0.5920155793573515 39  0.290814670561506 38.833688699360344  0.124634858812074 38.501066098081026  C -0.04154495293735802 38.13148542999289  0 37.80810234541578  0.249269717624148 37.53091684434968  L 5.234664070107108 32.2089552238806  C 5.4216163583252195 32.00568585643212  5.6812723141837065 31.904051172707888  6.013631937682571 31.904051172707888  L 16 31.904051172707888  L 16 14.164179104477613  L 10.001947419668939 14.164179104477613  C 9.17104836092178 14.164179104477613  8.568646543330088 13.82231698649609  8.194741966893865 13.138592750533052  C 7.841609866926323 12.454868514570004  7.935086011035379 11.826581378820181  8.475170399221032 11.253731343283583  L 18.44595910418695 0.6098081023454167  C 18.819863680623175 0.2032693674484679  19.328789354105812 0  19.97273612463486 0  C 20.616682895163912 0  21.125608568646545 0.2032693674484679  21.499513145082766 0.6098081023454167  L 31.470301850048685 11.253731343283583  Z " fill-rule="nonzero" fill="#000000" stroke="none" transform="matrix(1 0 0 1 285 1270 )" />
  </g>
</svg>