<?xml version="1.0" encoding="utf-8"?>
<svg version="1.1" xmlns:xlink="http://www.w3.org/1999/xlink" width="6px" height="26px" xmlns="http://www.w3.org/2000/svg">
  <g transform="matrix(1 0 0 1 -1208 -180 )">
    <path d="M 5.92578125 21.185937499999998  C 5.975260416666666 21.44322916666667  6 21.74791666666667  6 22.099999999999998  L 6 24.7  C 6 25.052083333333332  5.975260416666666 25.356770833333332  5.92578125 25.6140625  C 5.876302083333334 25.87135416666667  5.817708333333334 26  5.75 26  L 0.25 26  C 0.18229166666666669 26  0.12369791666666666 25.87135416666667  0.07421875 25.6140625  C 0.024739583333333336 25.356770833333332  0 25.052083333333332  0 24.7  L 0 22.099999999999998  C 0 21.74791666666667  0.024739583333333336 21.44322916666667  0.07421875 21.185937499999998  C 0.12369791666666666 20.928645833333334  0.18229166666666669 20.8  0.25 20.8  L 5.75 20.8  C 5.817708333333334 20.8  5.876302083333334 20.928645833333334  5.92578125 21.185937499999998  Z M 5.92578125 10.7859375  C 5.975260416666666 11.043229166666665  6 11.347916666666665  6 11.7  L 6 14.3  C 6 14.652083333333332  5.975260416666666 14.956770833333332  5.92578125 15.2140625  C 5.876302083333334 15.471354166666664  5.817708333333334 15.6  5.75 15.6  L 0.25 15.6  C 0.18229166666666669 15.6  0.12369791666666666 15.471354166666664  0.07421875 15.2140625  C 0.024739583333333336 14.956770833333332  0 14.652083333333332  0 14.3  L 0 11.7  C 0 11.347916666666665  0.024739583333333336 11.043229166666665  0.07421875 10.7859375  C 0.12369791666666666 10.528645833333336  0.18229166666666669 10.4  0.25 10.4  L 5.75 10.4  C 5.817708333333334 10.4  5.876302083333334 10.528645833333336  5.92578125 10.7859375  Z M 5.92578125 0.38593750000000115  C 5.975260416666666 0.6432291666666647  6 0.9479166666666647  6 1.3000000000000012  L 6 3.9000000000000004  C 6 4.252083333333331  5.975260416666666 4.556770833333331  5.92578125 4.8140625  C 5.876302083333334 5.071354166666664  5.817708333333334 5.199999999999999  5.75 5.199999999999999  L 0.25 5.199999999999999  C 0.18229166666666669 5.199999999999999  0.12369791666666666 5.071354166666664  0.07421875 4.8140625  C 0.024739583333333336 4.556770833333331  0 4.252083333333331  0 3.9000000000000004  L 0 1.3000000000000012  C 0 0.9479166666666647  0.024739583333333336 0.6432291666666647  0.07421875 0.38593750000000115  C 0.12369791666666666 0.1286458333333318  0.18229166666666669 0  0.25 0  L 5.75 0  C 5.817708333333334 0  5.876302083333334 0.1286458333333318  5.92578125 0.38593750000000115  Z " fill-rule="nonzero" fill="#b6b6b6" stroke="none" transform="matrix(1 0 0 1 1208 180 )" />
  </g>
</svg>