<?xml version="1.0" encoding="utf-8"?>
<svg version="1.1" xmlns:xlink="http://www.w3.org/1999/xlink" width="25px" height="25px" xmlns="http://www.w3.org/2000/svg">
  <g transform="matrix(1 0 0 1 -1192 -677 )">
    <path d="M 23.325892857142858 5.180546519193233  C 24.441964285714285 6.7799826501843405  25 8.523096942094991  25 10.409889394925179  C 25 12.296681847755368  24.441964285714285 14.039796139666013  23.325892857142858 15.639232270657125  C 22.209821428571427 17.238668401648233  20.693824404761905 18.50195185426155  18.777901785714285 19.42908262849707  C 16.861979166666668 20.356213402732596  14.769345238095239 20.819778789850357  12.5 20.819778789850357  C 11.848958333333334 20.819778789850357  11.174665178571429 20.776404250704836  10.477120535714286 20.689655172413794  C 8.635602678571429 22.587291260030362  6.496465773809525 23.899371069182386  4.059709821428571 24.625894599869877  C 3.6039806547619055 24.7777054868792  3.0738467261904763 24.896985469529387  2.4693080357142856 24.98373454782043  C 2.311197916666667 25.00542181739319  2.1693638392857144 24.956625460854482  2.0438058035714284 24.837345478204295  C 1.9182477678571428 24.71806549555411  1.83686755952381 24.560832791151594  1.7996651785714284 24.365647364996747  L 1.7996651785714284 24.349381912817176  C 1.7717633928571432 24.306007373671655  1.769438244047619 24.240945564953375  1.7926897321428572 24.15419648666233  C 1.8159412202380956 24.067447408371287  1.8252418154761907 24.013229234439383  1.8205915178571428 23.991541964866624  C 1.8159412202380956 23.96985469529386  1.83686755952381 23.918347430058557  1.8833705357142856 23.837020169160702  L 1.9670758928571428 23.690631099544568  C 1.9670758928571428 23.690631099544568  1.9996279761904763 23.644545651702455  2.064732142857143 23.552374756018217  C 2.1298363095238098 23.460203860333984  2.1670386904761907 23.41140750379527  2.1763392857142856 23.40598568640208  C 2.2414434523809526 23.31923660811104  2.3856026785714284 23.132183908045977  2.6088169642857144 22.844827586206897  C 2.83203125 22.557471264367816  2.992466517857143 22.35144220342659  3.090122767857143 22.226740403383214  C 3.1877790178571432 22.10203860333984  3.331938244047619 21.887876816308825  3.522600446428571 21.584255042290177  C 3.713262648809524 21.280633268271522  3.864397321428571 21.004120581218825  3.9760044642857144 20.754716981132077  C 4.087611607142857 20.50531338104533  4.213169642857143 20.185426154847104  4.352678571428571 19.795055302537413  C 4.4921875 19.404684450227716  4.613095238095238 18.992626328345263  4.715401785714286 18.558880936890045  C 3.2552083333333335 17.593797440902186  2.1042596726190474 16.400997614400346  1.2625558035714286 14.980481457384515  C 0.4208519345238095 13.559965300368681  0 12.036434612882237  0 10.409889394925179  C 0 9.000216872695727  0.33017113095238093 7.652895250487965  0.9905133928571428 6.367924528301888  C 1.6508556547619049 5.082953806115811  2.5390625 3.9741921492084136  3.655133928571429 3.0416395575797006  C 4.771205357142857 2.1090869659509845  6.101190476190476 1.369008891780521  7.6450892857142865 0.8214053350683148  C 9.188988095238097 0.2738017783561031  10.807291666666668 0  12.5 0  C 14.769345238095239 0  16.861979166666668 0.46356538711776196  18.777901785714285 1.390696161353286  C 20.693824404761905 2.3178269355888097  22.209821428571427 3.581110388202122  23.325892857142858 5.180546519193233  Z " fill-rule="nonzero" fill="#929292" stroke="none" transform="matrix(1 0 0 1 1192 677 )" />
  </g>
</svg>