<?xml version="1.0" encoding="utf-8"?>
<svg version="1.1" xmlns:xlink="http://www.w3.org/1999/xlink" width="46px" height="46px" xmlns="http://www.w3.org/2000/svg">
  <g transform="matrix(1 0 0 1 -1152 -13 )">
    <path d="M 44.91582491582491 34.38383838383838  C 45.63860830527497 35.10662177328843  46 35.98428731762065  46 37.01683501683502  C 46 38.04938271604939  45.63860830527497 38.92704826038159  44.91582491582491 39.64983164983165  L 39.64983164983165 44.91582491582491  C 38.9270482603816 45.63860830527497  38.04938271604939 46  37.01683501683502 46  C 35.984287317620655 46  35.106621773288445 45.63860830527497  34.38383838383839 44.91582491582491  L 23 33.53198653198653  L 11.616161616161618 44.91582491582491  C 10.893378226711562 45.63860830527497  10.01571268237935 46  8.983164983164983 46  C 7.950617283950618 46  7.072951739618407 45.63860830527497  6.35016835016835 44.91582491582491  L 1.0841750841750841 39.64983164983165  C 0.3613916947250284 38.92704826038159  0 38.04938271604939  0 37.01683501683502  C 0 35.98428731762065  0.3613916947250284 35.10662177328843  1.0841750841750841 34.38383838383838  L 12.468013468013467 23  L 1.0841750841750841 11.616161616161614  C 0.3613916947250284 10.893378226711556  0 10.01571268237935  0 8.983164983164983  C 0 7.950617283950617  0.3613916947250284 7.0729517396184  1.0841750841750841 6.350168350168352  L 6.35016835016835 1.0841750841750843  C 7.072951739618407 0.3613916947250264  7.950617283950618 0  8.983164983164983 0  C 10.01571268237935 0  10.893378226711562 0.3613916947250264  11.616161616161618 1.0841750841750843  L 23 12.46801346801347  L 34.38383838383839 1.0841750841750843  C 35.106621773288445 0.3613916947250264  35.984287317620655 0  37.01683501683502 0  C 38.04938271604939 0  38.9270482603816 0.3613916947250264  39.64983164983165 1.0841750841750843  L 44.91582491582491 6.350168350168352  C 45.63860830527497 7.0729517396184  46 7.950617283950617  46 8.983164983164983  C 46 10.01571268237935  45.63860830527497 10.893378226711556  44.91582491582491 11.616161616161614  L 33.53198653198653 23  L 44.91582491582491 34.38383838383838  Z " fill-rule="nonzero" fill="#492f73" stroke="none" transform="matrix(1 0 0 1 1152 13 )" />
  </g>
</svg>