<?xml version="1.0" encoding="utf-8"?>
<svg version="1.1" xmlns:xlink="http://www.w3.org/1999/xlink" width="25px" height="25px" xmlns="http://www.w3.org/2000/svg">
  <g transform="matrix(1 0 0 1 -1147 -678 )">
    <path d="M 3.857421875 5.483774038461539  C 4.063585069444445 5.293469551282051  4.166666666666666 5.068108974358973  4.166666666666666 4.8076923076923075  C 4.166666666666666 4.547275641025639  4.063585069444445 4.32191506410256  3.857421875 4.131610576923078  C 3.651258680555556 3.9413060897435876  3.407118055555556 3.8461538461538463  3.125 3.8461538461538463  C 2.8428819444444446 3.8461538461538463  2.5987413194444446 3.9413060897435876  2.392578125 4.131610576923078  C 2.186414930555556 4.32191506410256  2.083333333333333 4.547275641025639  2.083333333333333 4.8076923076923075  C 2.083333333333333 5.068108974358973  2.186414930555556 5.293469551282051  2.392578125 5.483774038461539  C 2.5987413194444446 5.674078525641024  2.8428819444444446 5.769230769230768  3.125 5.769230769230768  C 3.407118055555556 5.769230769230768  3.651258680555556 5.674078525641024  3.857421875 5.483774038461539  Z M 22.281901041666664 14.806189903846153  C 22.705078125 14.420572916666666  22.916666666666664 13.97235576923077  22.916666666666664 13.461538461538462  C 22.916666666666664 13.110977564102564  22.800021701388893 12.705328525641024  22.566731770833336 12.244591346153847  C 22.33344184027778 11.783854166666666  22.043185763888893 11.548477564102564  21.695963541666664 11.538461538461538  C 21.858723958333336 11.368189102564102  21.994357638888893 11.130308493589741  22.102864583333336 10.824819711538462  C 22.21137152777778 10.519330929487177  22.265625 10.241386217948717  22.265625 9.990985576923078  C 22.265625 9.299879807692307  21.978081597222225 8.703926282051281  21.402994791666664 8.203125  C 21.598307291666664 7.892628205128204  21.695963541666664 7.547075320512819  21.695963541666664 7.166466346153847  C 21.695963541666664 6.795873397435898  21.60101996527778 6.427784455128204  21.4111328125 6.062199519230768  C 21.221245659722225 5.696614583333331  20.963541666666664 5.433693910256407  20.638020833333336 5.2734375  C 20.692274305555557 4.972956730769232  20.719401041666664 4.692508012820512  20.719401041666664 4.432091346153847  C 20.719401041666664 3.5807291666666656  20.45355902777778 2.949719551282051  19.921875 2.5390625  C 19.390190972222225 2.1284054487179462  18.65234375 1.9230769230769218  17.708333333333336 1.9230769230769218  L 15.625 1.9230769230769218  C 14.203559027777779 1.9230769230769218  12.348090277777779 2.2886618589743586  10.05859375 3.0198317307692317  C 10.004340277777779 3.03986378205128  9.847005208333332 3.0924479166666656  9.586588541666668 3.1775841346153855  C 9.326171875 3.2627203525640995  9.133572048611112 3.325320512820512  9.0087890625 3.3653846153846145  C 8.88400607638889 3.405448717948717  8.694118923611112 3.4630408653846145  8.439127604166668 3.5381610576923075  C 8.184136284722223 3.61328125  7.977973090277779 3.6683693910256387  7.820638020833333 3.7034254807692317  C 7.663302951388889 3.7384815705128194  7.484266493055556 3.7710336538461537  7.283528645833333 3.8010817307692317  C 7.082790798611112 3.8311298076923075  6.911892361111112 3.8461538461538463  6.770833333333333 3.8461538461538463  L 6.25 3.8461538461538463  L 6.25 13.461538461538462  L 6.770833333333333 13.461538461538462  C 6.944444444444446 13.461538461538462  7.137044270833334 13.506610576923078  7.3486328125 13.596754807692307  C 7.560221354166667 13.686899038461538  7.777235243055556 13.822115384615385  7.999674479166667 14.002403846153847  C 8.222113715277777 14.182692307692307  8.430989583333332 14.360476762820513  8.626302083333332 14.535757211538462  C 8.821614583333332 14.711037660256409  9.038628472222223 14.931390224358973  9.27734375 15.196814903846153  C 9.516059027777779 15.462239583333332  9.703233506944446 15.675080128205126  9.8388671875 15.835336538461538  C 9.974500868055557 15.995592948717945  10.145399305555557 16.200921474358974  10.3515625 16.451322115384613  C 10.557725694444446 16.701722756410252  10.682508680555557 16.85196314102564  10.725911458333332 16.90204326923077  C 11.322699652777779 17.58313301282051  11.74045138888889 18.038862179487182  11.979166666666668 18.26923076923077  C 12.424045138888891 18.699919871794872  12.746853298611112 19.248297275641026  12.947591145833334 19.91436298076923  C 13.148328993055555 20.580428685897434  13.313802083333334 21.208934294871796  13.444010416666666 21.799879807692307  C 13.57421875 22.390825320512818  13.780381944444445 22.816506410256412  14.0625 23.076923076923077  C 15.104166666666668 23.076923076923077  15.798611111111112 22.841546474358974  16.145833333333336 22.370793269230766  C 16.493055555555554 21.900040064102566  16.666666666666664 21.173878205128204  16.666666666666664 20.192307692307693  C 16.666666666666664 19.601362179487182  16.40625 18.797576121794872  15.885416666666666 17.78094951923077  C 15.364583333333334 16.764322916666664  15.104166666666666 15.965544871794869  15.104166666666666 15.384615384615385  L 20.833333333333336 15.384615384615385  C 21.375868055555557 15.384615384615385  21.858723958333336 15.191806891025642  22.281901041666664 14.806189903846153  Z M 24.202473958333336 11.027644230769232  C 24.734157986111107 11.758814102564102  25 12.575120192307693  25 13.4765625  C 25 14.508213141025639  24.587673611111107 15.404647435897434  23.763020833333336 16.165865384615387  C 22.938368055555557 16.927083333333332  21.961805555555557 17.307692307692307  20.833333333333336 17.307692307692307  L 17.96875 17.307692307692307  C 18.489583333333336 18.299278846153847  18.75 19.260817307692307  18.75 20.192307692307693  C 18.75 21.37419871794872  18.560112847222225 22.305689102564102  18.180338541666664 22.986778846153847  C 17.800564236111114 23.677884615384613  17.247178819444446 24.186197916666664  16.520182291666664 24.51171875  C 15.793185763888893 24.837239583333336  14.973958333333334 25  14.0625 25  C 13.509114583333334 25  13.020833333333334 24.814703525641026  12.59765625 24.444110576923077  C 12.22873263888889 24.113581730769234  11.93576388888889 23.702924679487182  11.71875 23.212139423076923  C 11.501736111111112 22.721354166666664  11.363389756944446 22.26812900641026  11.3037109375 21.852463942307693  C 11.244032118055557 21.436798878205128  11.149088541666668 21.013621794871796  11.018880208333332 20.582932692307693  C 10.888671875 20.15224358974359  10.720486111111112 19.83173076923077  10.514322916666668 19.62139423076923  C 9.993489583333332 19.120592948717952  9.412977430555557 18.484575320512818  8.772786458333332 17.713341346153847  C 7.676866319444446 16.401241987179485  6.933593750000002 15.625  6.54296875 15.384615384615385  L 2.083333333333333 15.384615384615385  C 1.508246527777778 15.384615384615385  1.0172526041666667 15.196814903846153  0.6103515625 14.821213942307693  C 0.20345052083333334 14.44561298076923  0 13.99238782051282  0 13.461538461538462  L 0 3.8461538461538463  C 0 3.315304487179485  0.20345052083333334 2.8620793269230784  0.6103515625 2.4864783653846145  C 1.0172526041666667 2.1108774038461537  1.508246527777778 1.9230769230769218  2.083333333333333 1.9230769230769218  L 6.770833333333333 1.9230769230769218  C 7.009548611111112 1.9230769230769218  7.758246527777779 1.722756410256407  9.016927083333332 1.3221153846153855  C 10.405815972222223 0.8814102564102533  11.615668402777779 0.5508814102564069  12.646484375 0.33052884615384637  C 13.677300347222223 0.11017628205128027  14.762369791666666 0  15.901692708333334 0  L 17.724609375 0  C 19.243706597222225 0  20.472547743055557 0.3956330128205121  21.4111328125 1.1868990384615392  C 22.349717881944446 1.9781650641025605  22.813585069444446 3.0598958333333313  22.802734375 4.432091346153847  L 22.802734375 4.507211538461539  C 23.453776041666664 5.278445512820512  23.779296875 6.169871794871792  23.779296875 7.181490384615385  C 23.779296875 7.401842948717946  23.763020833333336 7.6171875  23.73046875 7.827524038461539  C 24.142795138888893 8.498597756410254  24.348958333333336 9.2197516025641  24.348958333333336 9.990985576923078  C 24.348958333333336 10.3515625  24.300130208333336 10.697115384615385  24.202473958333336 11.027644230769232  Z " fill-rule="nonzero" fill="#929292" stroke="none" transform="matrix(1 0 0 1 1147 678 )" />
  </g>
</svg>