<?xml version="1.0" encoding="utf-8"?>
<svg version="1.1" xmlns:xlink="http://www.w3.org/1999/xlink" width="162px" height="165px" xmlns="http://www.w3.org/2000/svg">
  <g transform="matrix(1 0 0 1 -668 -418 )">
    <path d="M 82 99  L 82 71  L 160.70830564784052 71  C 161.56943521594684 75.48177083333333  162 80.06510416666666  162 84.43359375  C 162 99.97395833333331  158.73488372093024 113.84928385416664  152.2046511627907 126.0595703125  C 145.67441860465118 138.26985677083334  136.36345514950168 147.8125  124.2717607973422 154.6875  C 112.18006644518273 161.5625  98.31229235880399 165  82.66843853820598 165  C 71.40199335548174 165  60.673754152823925 162.83365885416666  50.48372093023256 158.5009765625  C 40.293687707641205 154.16829427083334  31.502990033222595 148.31380208333334  24.111627906976743 140.9375  C 16.720265780730895 133.56119791666666  10.853820598006646 124.78841145833333  6.512292358803987 114.61914062499999  C 2.1707641196013285 104.44986979166666  0 93.74348958333334  0 82.5  C 0 71.25651041666666  2.1707641196013285 60.55013020833332  6.512292358803987 50.38085937499999  C 10.853820598006646 40.211588541666664  16.720265780730895 31.43880208333331  24.111627906976743 24.062500000000007  C 31.502990033222595 16.686197916666664  40.293687707641205 10.831705729166659  50.48372093023256 6.499023437500006  C 60.673754152823925 2.166341145833317  71.40199335548174 0  82.66843853820598 0  C 104.19667774086379 0  122.67508305647841 7.197265624999994  138.10365448504982 21.591796875  L 115.60664451827243 43.18359375  C 106.78006644518274 34.661458333333314  95.80066445182726 30.400390624999993  82.66843853820598 30.400390624999993  C 73.41129568106312 30.400390624999993  64.85382059800665 32.727864583333314  56.99601328903654 37.3828125  C 49.138205980066445 42.03776041666665  42.912956810631236 48.357747395833314  38.3202657807309 56.34277343749999  C 33.72757475083057 64.32779947916666  31.431229235880398 73.046875  31.431229235880398 82.5  C 31.431229235880398 91.95312500000001  33.72757475083057 100.6722005208333  38.3202657807309 108.65722656249999  C 42.912956810631236 116.64225260416667  49.138205980066445 122.96223958333333  56.99601328903654 127.6171875  C 64.85382059800665 132.27213541666666  73.41129568106312 134.599609375  82.66843853820598 134.599609375  C 88.91162790697675 134.599609375  94.65249169435216 133.740234375  99.89102990033223 132.021484375  C 105.12956810631229 130.302734375  109.43521594684387 128.154296875  112.80797342192692 125.576171875  C 116.18073089700998 122.99804687499999  119.12292358803987 120.06184895833333  121.63455149501662 116.76757812500001  C 124.14617940199336 113.47330729166666  125.99401993355481 110.35807291666667  127.178073089701 107.42187500000001  C 128.36212624584718 104.48567708333331  129.16943521594683 101.69270833333333  129.6 99  L 82 99  Z " fill-rule="nonzero" fill="#fffcfc" stroke="none" transform="matrix(1 0 0 1 668 418 )" />
  </g>
</svg>