<?xml version="1.0" encoding="utf-8"?>
<svg version="1.1" xmlns:xlink="http://www.w3.org/1999/xlink" width="25px" height="25px" xmlns="http://www.w3.org/2000/svg">
  <g transform="matrix(1 0 0 1 -1102 -677 )">
    <path d="M 3.703125 20.5322265625  C 3.9010416666666674 20.33148871527778  4 20.084635416666664  4 19.791666666666664  C 4 19.509548611111114  3.9010416666666674 19.265407986111114  3.703125 19.059244791666664  C 3.505208333333334 18.85308159722222  3.270833333333333 18.75  3 18.75  C 2.71875 18.75  2.4817708333333335 18.85308159722222  2.2890625 19.059244791666664  C 2.096354166666667 19.265407986111114  2 19.509548611111114  2 19.791666666666664  C 2 20.084635416666664  2.096354166666667 20.33148871527778  2.2890625 20.5322265625  C 2.4817708333333335 20.73296440972222  2.71875 20.833333333333336  3 20.833333333333336  C 3.270833333333333 20.833333333333336  3.505208333333334 20.73296440972222  3.703125 20.5322265625  Z M 6.203125 10.725911458333334  C 6.401041666666667 10.932074652777777  6.5 11.176215277777777  6.5 11.458333333333334  L 6.5 21.875  C 6.5 22.157118055555554  6.401041666666667 22.401258680555554  6.203125 22.607421875  C 6.005208333333334 22.813585069444446  5.770833333333334 22.916666666666664  5.5 22.916666666666664  L 1 22.916666666666664  C 0.7291666666666667 22.916666666666664  0.49479166666666663 22.813585069444446  0.296875 22.607421875  C 0.09895833333333331 22.401258680555554  0 22.157118055555554  0 21.875  L 0 11.458333333333334  C 0 11.176215277777777  0.09895833333333331 10.932074652777777  0.296875 10.725911458333334  C 0.49479166666666663 10.51974826388889  0.7291666666666667 10.416666666666666  1 10.416666666666666  L 5.5 10.416666666666666  C 5.770833333333334 10.416666666666666  6.005208333333334 10.51974826388889  6.203125 10.725911458333334  Z M 24.109375 9.261067708333334  C 24.703125 9.879557291666666  25 10.611979166666666  25 11.458333333333334  C 25 12.391493055555555  24.713541666666668 13.199869791666668  24.140625 13.883463541666668  C 24.296875000000004 14.360894097222221  24.375000000000004 14.77322048611111  24.375 15.120442708333332  C 24.406250000000004 15.94509548611111  24.18229166666667 16.688368055555554  23.703125 17.350260416666668  C 23.880208333333336 17.957899305555554  23.880208333333336 18.592664930555554  23.703125 19.254557291666664  C 23.546875 19.873046875  23.265625 20.383029513888886  22.859375 20.784505208333336  C 22.953125 21.999782986111114  22.697916666666668 22.981770833333336  22.09375 23.73046875  C 21.427083333333336 24.55512152777778  20.401041666666668 24.978298611111114  19.015625 25  L 18.453125 25  L 17.265625 25  L 17 25  C 16.3125 25  15.562500000000002 24.915907118055554  14.75 24.747721354166664  C 13.9375 24.57953559027778  13.3046875 24.422200520833336  12.8515625 24.275716145833336  C 12.3984375 24.129231770833336  11.770833333333334 23.914930555555554  10.96875 23.6328125  C 9.6875 23.166232638888886  8.864583333333334 22.927517361111114  8.5 22.916666666666664  C 8.229166666666668 22.90581597222222  7.994791666666668 22.800021701388886  7.796875 22.599283854166664  C 7.598958333333333 22.398546006944446  7.500000000000001 22.157118055555554  7.5 21.875  L 7.5 11.442057291666666  C 7.500000000000001 11.170789930555555  7.593750000000001 10.934787326388888  7.781250000000001 10.734049479166666  C 7.968750000000001 10.533311631944445  8.192708333333334 10.422092013888888  8.453125 10.400390625  C 8.703125 10.378689236111107  9.098958333333334 10.058593749999996  9.640625 9.440104166666666  C 10.182291666666668 8.821614583333332  10.708333333333334 8.165147569444443  11.21875 7.470703125  C 11.927083333333336 6.526692708333334  12.453125000000002 5.875651041666666  12.796875 5.517578125  C 12.984375 5.322265625  13.145833333333334 5.061848958333334  13.28125 4.736328125  C 13.416666666666668 4.410807291666666  13.5078125 4.147677951388887  13.554687500000002 3.9469401041666656  C 13.6015625 3.746202256944442  13.671875 3.41796875  13.765625 2.9622395833333344  C 13.838541666666668 2.5390625  13.903645833333336 2.208116319444442  13.9609375 1.9694010416666656  C 14.018229166666668 1.7306857638888866  14.119791666666668 1.4485677083333344  14.265625000000002 1.123046875  C 14.411458333333336 0.7975260416666657  14.588541666666668 0.5262586805555552  14.796875000000002 0.30924479166666574  C 14.994791666666668 0.10308159722222099  15.229166666666668 0  15.5 0  C 15.979166666666666 0  16.408854166666668 0.05696614583333426  16.7890625 0.1708984375  C 17.169270833333336 0.28483072916666574  17.481770833333336 0.425889756944442  17.7265625 0.5940755208333343  C 17.971354166666668 0.762261284722221  18.1796875 0.981987847222221  18.3515625 1.2532552083333344  C 18.5234375 1.524522569444442  18.6484375 1.768663194444442  18.7265625 1.9856770833333344  C 18.8046875 2.202690972222221  18.8671875 2.4739583333333344  18.9140625 2.7994791666666656  C 18.9609375 3.125  18.986979166666668 3.369140625  18.9921875 3.5319010416666656  C 18.997395833333336 3.6946614583333344  19 3.90625  19 4.166666666666666  C 19 4.578993055555555  18.950520833333336 4.991319444444442  18.8515625 5.403645833333334  C 18.752604166666668 5.815972222222221  18.653645833333336 6.141493055555555  18.5546875 6.380208333333334  C 18.455729166666668 6.618923611111108  18.3125 6.922743055555555  18.125 7.291666666666666  C 18.09375 7.356770833333334  18.041666666666668 7.454427083333334  17.96875 7.584635416666666  C 17.895833333333336 7.71484375  17.838541666666668 7.834201388888887  17.796875 7.942708333333334  C 17.755208333333336 8.051215277777777  17.713541666666668 8.181423611111107  17.671875 8.333333333333334  L 22 8.333333333333334  C 22.8125 8.333333333333334  23.515625 8.642578125  24.109375 9.261067708333334  Z " fill-rule="nonzero" fill="#aa75ff" stroke="none" transform="matrix(1 0 0 1 1102 677 )" />
  </g>
</svg>