<?xml version="1.0" encoding="utf-8"?>
<svg version="1.1" xmlns:xlink="http://www.w3.org/1999/xlink" width="27px" height="17px" xmlns="http://www.w3.org/2000/svg">
  <g transform="matrix(1 0 0 1 -649 -505 )">
    <path d="M 20.046595982142858 13.31814236111111  C 22.060546875000004 12.12282986111111  23.735491071428573 10.516782407407405  25.071428571428573 8.5  C 23.544642857142858 6.1782407407407405  21.631138392857142 4.441840277777778  19.330915178571427 3.2907986111111103  C 19.943638392857142 4.313946759259258  20.25 5.420717592592592  20.25 6.611111111111111  C 20.25 8.431134259259258  19.589564732142858 9.987991898148147  18.268694196428573 11.281684027777777  C 16.94782366071429 12.575376157407405  15.358258928571429 13.222222222222223  13.5 13.222222222222223  C 11.641741071428573 13.222222222222223  10.052176339285715 12.575376157407405  8.731305803571429 11.281684027777777  C 7.410435267857144 9.987991898148147  6.75 8.431134259259258  6.75 6.611111111111111  C 6.75 5.420717592592592  7.056361607142858 4.313946759259258  7.669084821428571 3.2907986111111103  C 5.368861607142858 4.441840277777778  3.4553571428571432 6.1782407407407405  1.9285714285714284 8.5  C 3.264508928571429 10.516782407407405  4.939453125 12.12282986111111  6.953404017857143 13.31814236111111  C 8.967354910714286 14.51345486111111  11.149553571428571 15.11111111111111  13.5 15.11111111111111  C 15.850446428571427 15.11111111111111  18.03264508928572 14.51345486111111  20.046595982142858 13.31814236111111  Z M 14.012276785714286 3.3350694444444446  C 14.152901785714286 3.1973379629629632  14.223214285714286 3.0300925925925917  14.223214285714286 2.8333333333333326  C 14.223214285714286 2.6365740740740735  14.152901785714286 2.4693287037037024  14.012276785714286 2.3315972222222223  C 13.871651785714288 2.1938657407407387  13.700892857142856 2.1249999999999982  13.5 2.125  C 12.244419642857144 2.1249999999999982  11.167131696428573 2.5652488425925917  10.268136160714286 3.4457465277777777  C 9.369140625000002 4.326244212962964  8.919642857142858 5.3813657407407405  8.919642857142858 6.611111111111111  C 8.919642857142858 6.807870370370369  8.98995535714286 6.9751157407407405  9.130580357142858 7.112847222222222  C 9.271205357142858 7.250578703703702  9.441964285714286 7.319444444444445  9.642857142857142 7.319444444444445  C 9.843750000000002 7.319444444444445  10.01450892857143 7.250578703703702  10.155133928571429 7.112847222222222  C 10.295758928571429 6.9751157407407405  10.366071428571429 6.807870370370369  10.366071428571429 6.611111111111111  C 10.366071428571429 5.765046296296296  10.672433035714286 5.041956018518518  11.28515625 4.441840277777778  C 11.897879464285715 3.8417245370370368  12.636160714285715 3.541666666666665  13.5 3.5416666666666674  C 13.700892857142856 3.541666666666665  13.871651785714288 3.4728009259259247  14.012276785714286 3.3350694444444446  Z M 26.698660714285715 7.481770833333333  C 26.899553571428573 7.826099537037036  27 8.165509259259258  27 8.5  C 27 8.834490740740739  26.899553571428573 9.173900462962964  26.698660714285715 9.518229166666666  C 25.29241071428572 11.780960648148147  23.401506696428577 13.593605324074076  21.025948660714285 14.956163194444445  C 18.650390625 16.318721064814813  16.141741071428573 17  13.5 17  C 10.85825892857143 17  8.349609375 16.316261574074076  5.974051339285714 14.948784722222223  C 3.598493303571429 13.58130787037037  1.707589285714286 11.771122685185183  0.3013392857142857 9.518229166666666  C 0.10044642857142856 9.173900462962964  0 8.834490740740739  0 8.5  C 0 8.165509259259258  0.10044642857142856 7.826099537037036  0.3013392857142857 7.481770833333333  C 1.707589285714286 5.228877314814814  3.598493303571429 3.418692129629629  5.974051339285714 2.0512152777777777  C 8.349609375 0.6837384259259246  10.85825892857143 0  13.5 0  C 16.141741071428573 0  18.650390625 0.6837384259259246  21.025948660714285 2.0512152777777777  C 23.401506696428577 3.418692129629629  25.29241071428572 5.228877314814814  26.698660714285715 7.481770833333333  Z " fill-rule="nonzero" fill="#8e71bc" stroke="none" transform="matrix(1 0 0 1 649 505 )" />
  </g>
</svg>