<?xml version="1.0" encoding="utf-8"?>
<svg version="1.1" xmlns:xlink="http://www.w3.org/1999/xlink" width="27px" height="17px" xmlns="http://www.w3.org/2000/svg">
  <g transform="matrix(1 0 0 1 -649 -505 )">
    <path d="M 1.9285714285714284 8.5  C 3.6060267857142856 10.675595238095237  5.750558035714286 12.256696428571427  8.362165178571429 13.243303571428573  L 9.537388392857142 11.459821428571427  C 8.663504464285714 10.928571428571427  7.980468750000001 10.258184523809524  7.48828125 9.448660714285714  C 6.996093750000001 8.639136904761905  6.75 7.783234126984126  6.75 6.880952380952381  C 6.75 5.860615079365079  7.056361607142858 4.911954365079364  7.669084821428571 4.034970238095238  C 5.368861607142858 5.021577380952381  3.4553571428571432 6.509920634920634  1.9285714285714284 8.5  Z M 14.012276785714286 4.072916666666667  C 14.152901785714286 3.9548611111111085  14.223214285714286 3.8115079365079363  14.223214285714286 3.6428571428571432  C 14.223214285714286 3.474206349206348  14.152901785714286 3.330853174603174  14.012276785714286 3.212797619047619  C 13.871651785714288 3.094742063492062  13.700892857142856 3.0357142857142865  13.5 3.0357142857142865  C 12.244419642857144 3.0357142857142865  11.167131696428573 3.4130704365079363  10.268136160714286 4.167782738095238  C 9.369140625000002 4.9224950396825395  8.919642857142858 5.826884920634921  8.919642857142858 6.880952380952381  C 8.919642857142858 7.049603174603174  8.98995535714286 7.192956349206348  9.130580357142858 7.311011904761905  C 9.271205357142858 7.429067460317459  9.441964285714286 7.488095238095238  9.642857142857142 7.488095238095238  C 9.843750000000002 7.488095238095238  10.01450892857143 7.429067460317459  10.155133928571429 7.311011904761905  C 10.295758928571429 7.192956349206348  10.366071428571429 7.049603174603174  10.366071428571429 6.880952380952381  C 10.366071428571429 6.1557539682539675  10.672433035714286 5.535962301587301  11.28515625 5.021577380952381  C 11.897879464285715 4.507192460317459  12.636160714285715 4.249999999999998  13.5 4.25  C 13.700892857142856 4.249999999999998  13.871651785714288 4.1909722222222205  14.012276785714286 4.072916666666667  Z M 19.451450892857142 0.8854166666666673  C 19.61216517857143 0.9697420634920619  19.692522321428573 1.0835813492063482  19.692522321428573 1.2269345238095242  C 19.692522321428573 1.2859623015872998  19.687500000000004 1.3239087301587273  19.677455357142858 1.3407738095238104  C 18.61272321428572 2.93452380952381  17.025669642857142 5.32514880952381  14.916294642857142 8.51264880952381  C 12.806919642857144 11.70014880952381  11.224888392857144 14.086557539682541  10.170200892857142 15.671875  L 9.431919642857142 16.797619047619047  C 9.331473214285715 16.932539682539684  9.190848214285714 17  9.010044642857142 17  C 8.889508928571429 17  8.216517857142858 16.70486111111111  6.991071428571429 16.114583333333332  C 6.830357142857144 16.030257936507937  6.75 15.912202380952381  6.75 15.760416666666668  C 6.75 15.65922619047619  6.970982142857143 15.292410714285714  7.412946428571429 14.659970238095237  C 5.976562500000001 14.111855158730158  4.65318080357143 13.382440476190476  3.4428013392857144 12.47172619047619  C 2.232421875 11.561011904761905  1.1852678571428574 10.528025793650793  0.3013392857142857 9.372767857142858  C 0.10044642857142856 9.111359126984127  0 8.820436507936506  0 8.5  C 0 8.179563492063492  0.10044642857142856 7.888640873015873  0.3013392857142857 7.627232142857143  C 1.838169642857143 5.645585317460317  3.746651785714286 4.081349206349205  6.026785714285714 2.93452380952381  C 8.306919642857144 1.7876984126984121  10.797991071428573 1.2142857142857137  13.5 1.2142857142857137  C 14.393973214285715 1.2142857142857137  15.297991071428573 1.2859623015872998  16.212053571428573 1.4293154761904758  L 17.025669642857142 0.20238095238095166  C 17.126116071428573 0.06746031746031722  17.266741071428573 0  17.447544642857142 0  C 17.49776785714286 0  17.588169642857146 0.025297619047618958  17.71875 0.07589285714285687  C 17.849330357142858 0.1264880952380948  18.005022321428573 0.19184027777777568  18.185825892857142 0.2719494047619052  C 18.366629464285715 0.35205853174603097  18.532366071428573 0.43005952380952417  18.683035714285715 0.505952380952381  C 18.833705357142858 0.5818452380952379  18.991908482142858 0.6598462301587273  19.157645089285715 0.7399553571428569  C 19.323381696428573 0.8200644841269826  19.421316964285715 0.8685515873015861  19.451450892857142 0.8854166666666673  Z M 20.129464285714285 5.818452380952381  C 20.20982142857143 6.197916666666667  20.25 6.552083333333333  20.25 6.880952380952381  C 20.25 8.053075396825397  19.853236607142858 9.1218998015873  19.059709821428573 10.087425595238095  C 18.26618303571429 11.052951388888888  17.216517857142858 11.746527777777775  15.910714285714286 12.168154761904763  L 20.129464285714285 5.818452380952381  Z M 26.698660714285715 7.627232142857143  C 26.899553571428573 7.913938492063491  27 8.20486111111111  27 8.5  C 27 8.795138888888888  26.899553571428573 9.086061507936506  26.698660714285715 9.372767857142858  C 26.306919642857142 9.912450396825395  25.759486607142858 10.523809523809524  25.056361607142858 11.206845238095237  C 23.549665178571427 12.657242063492065  21.804408482142858 13.782986111111112  19.820591517857142 14.584077380952381  C 17.83677455357143 15.38516865079365  15.729910714285714 15.785714285714286  13.5 15.785714285714286  L 14.614955357142858 14.116071428571427  C 16.744419642857146 13.964285714285714  18.71568080357143 13.386656746031745  20.528738839285715 12.383184523809524  C 22.341796875 11.3797123015873  23.85602678571429 10.085317460317459  25.071428571428573 8.5  C 23.916294642857146 6.990575396825396  22.5 5.750992063492064  20.822544642857142 4.78125  L 21.771763392857142 3.3645833333333326  C 22.72600446428572 3.9042658730158704  23.642578125000004 4.549355158730156  24.521484375 5.29985119047619  C 25.400390625 6.0503472222222205  26.126116071428573 6.826140873015873  26.698660714285715 7.627232142857143  Z " fill-rule="nonzero" fill="#8e71bc" stroke="none" transform="matrix(1 0 0 1 649 505 )" />
  </g>
</svg>