<?xml version="1.0" encoding="utf-8"?>
<svg version="1.1" xmlns:xlink="http://www.w3.org/1999/xlink" width="34px" height="34px" xmlns="http://www.w3.org/2000/svg">
  <g transform="matrix(1 0 0 1 -87 -231 )">
    <path d="M 23.754464285714285 29.911272321428573  C 25.841517857142858 28.80450148809524  27.55543154761905 27.302455357142854  28.896205357142858 25.405133928571427  C 28.61793154761905 23.444568452380953  28.064546130952383 21.816034226190474  27.236049107142858 20.51953125  C 26.407552083333336 19.223028273809526  25.24069940476191 18.473586309523807  23.735491071428573 18.271205357142854  C 22.888020833333336 19.20721726190476  21.879278273809526 19.93768601190476  20.709263392857142 20.462611607142854  C 19.539248511904766 20.987537202380953  18.302827380952383 21.25  17 21.25  C 15.697172619047619 21.25  14.460751488095239 20.987537202380953  13.290736607142858 20.462611607142854  C 12.120721726190478 19.93768601190476  11.111979166666668 19.20721726190476  10.264508928571429 18.271205357142854  C 8.759300595238095 18.473586309523807  7.592447916666667 19.223028273809526  6.763950892857143 20.51953125  C 5.9354538690476195 21.816034226190474  5.3820684523809526 23.444568452380953  5.103794642857143 25.405133928571427  C 6.4445684523809526 27.302455357142854  8.158482142857142 28.80450148809524  10.245535714285714 29.911272321428573  C 12.332589285714286 31.018043154761905  14.584077380952383 31.571428571428573  17 31.571428571428573  C 19.41592261904762 31.571428571428573  21.667410714285715 31.018043154761905  23.754464285714285 29.911272321428573  Z M 22.151227678571427 17.294084821428573  C 23.57421875 15.87109375  24.285714285714285 14.15401785714286  24.285714285714285 12.14285714285714  C 24.285714285714285 10.131696428571427  23.57421875 8.414620535714286  22.151227678571427 6.9916294642857135  C 20.728236607142858 5.5686383928571415  19.011160714285715 4.8571428571428585  17 4.8571428571428585  C 14.988839285714286 4.8571428571428585  13.271763392857142 5.5686383928571415  11.848772321428571 6.9916294642857135  C 10.42578125 8.414620535714286  9.714285714285714 10.131696428571427  9.714285714285714 12.14285714285714  C 9.714285714285714 14.15401785714286  10.42578125 15.87109375  11.848772321428571 17.294084821428573  C 13.271763392857142 18.717075892857146  14.988839285714286 19.428571428571427  17 19.428571428571427  C 19.011160714285715 19.428571428571427  20.728236607142858 18.717075892857146  22.151227678571427 17.294084821428573  Z M 32.652901785714285 10.397321428571427  C 33.550967261904766 12.497023809523807  34 14.697916666666666  34 17  C 34 19.302083333333332  33.550967261904766 21.499813988095234  32.652901785714285 23.593191964285715  C 31.754836309523814 25.68656994047619  30.55003720238096 27.495349702380953  29.038504464285715 29.01953125  C 27.526971726190478 30.543712797619044  25.721354166666668 31.75483630952381  23.621651785714285 32.652901785714285  C 21.52194940476191 33.55096726190476  19.314732142857142 34  17 34  C 14.697916666666668 34  12.49702380952381 33.55096726190476  10.397321428571429 32.652901785714285  C 8.297619047619047 31.75483630952381  6.488839285714286 30.546875  4.970982142857143 29.029017857142854  C 3.453125 27.511160714285715  2.2451636904761907 25.702380952380953  1.3470982142857142 23.602678571428573  C 0.449032738095238 21.50297619047619  0 19.302083333333332  0 17  C 0 14.697916666666666  0.449032738095238 12.497023809523807  1.3470982142857142 10.397321428571427  C 2.2451636904761907 8.297619047619044  3.453125 6.4888392857142865  4.970982142857143 4.9709821428571415  C 6.488839285714286 3.453125  8.297619047619047 2.24516369047619  10.397321428571429 1.3470982142857137  C 12.49702380952381 0.4490327380952379  14.697916666666668 0  17 0  C 19.302083333333336 0  21.502976190476193 0.4490327380952379  23.602678571428573 1.3470982142857137  C 25.702380952380956 2.24516369047619  27.511160714285715 3.453125  29.029017857142858 4.9709821428571415  C 30.546875000000004 6.4888392857142865  31.754836309523814 8.297619047619044  32.652901785714285 10.397321428571427  Z " fill-rule="nonzero" fill="#828282" stroke="none" transform="matrix(1 0 0 1 87 231 )" />
  </g>
</svg>